<?xml version="1.0" encoding="utf-8"?>
<!-- Generator: Adobe Illustrator 17.0.2, SVG Export Plug-In . SVG Version: 6.00 Build 0)  -->
<!DOCTYPE svg PUBLIC "-//W3C//DTD SVG 1.1//EN" "http://www.w3.org/Graphics/SVG/1.1/DTD/svg11.dtd">
<svg version="1.1" id="Layer_1" xmlns="http://www.w3.org/2000/svg" xmlns:xlink="http://www.w3.org/1999/xlink" x="0px" y="0px"
	 width="194.795px" height="41.587px" viewBox="3.333 0.947 194.795 41.587" enable-background="new 3.333 0.947 194.795 41.587"
	 xml:space="preserve">
<g>
	<g>
		<g>
			<path fill="#77787B" d="M80.06,15.017v19.175h4.287V9.273l0,0h-5.933l-7.542,18.509L63.553,9.273h-6.175v24.918h4.029V15.015
				h0.138l7.729,19.177h3.04l7.607-19.175H80.06z"/>
		</g>
		<g>
			<path fill="#77787B" d="M90.541,8.727c-0.692,0-1.294,0.236-1.79,0.702c-0.497,0.468-0.749,1.057-0.749,1.752
				c0,0.684,0.249,1.262,0.742,1.718c0.49,0.454,1.094,0.684,1.797,0.684c0.703,0,1.311-0.23,1.806-0.683
				c0.498-0.456,0.751-1.034,0.751-1.718c0-0.67-0.246-1.254-0.731-1.733C91.883,8.969,91.268,8.727,90.541,8.727L90.541,8.727z
				 M92.598,16.334h-4.201v17.858h4.201V16.334L92.598,16.334z"/>
		</g>
		<g>
			<path fill="#77787B" d="M105.126,15.904c-1.927,0-3.646,0.413-5.108,1.228c-1.465,0.816-2.598,1.982-3.369,3.464
				c-0.768,1.479-1.158,3.206-1.158,5.132c0,1.687,0.378,3.236,1.125,4.6c0.747,1.367,1.805,2.436,3.144,3.178
				c1.336,0.741,2.881,1.116,4.592,1.116c1.996,0,3.701-0.399,5.067-1.186l0.056-0.032v-3.848l-0.177,0.128
				c-0.619,0.451-1.311,0.811-2.055,1.07c-0.742,0.259-1.419,0.39-2.013,0.39c-1.648,0-2.971-0.516-3.932-1.533
				c-0.962-1.018-1.451-2.447-1.451-4.247c0-1.81,0.509-3.277,1.512-4.358c1-1.079,2.326-1.626,3.94-1.626
				c1.381,0,2.727,0.467,3.999,1.391l0.176,0.128v-4.055l-0.057-0.032c-0.479-0.268-1.132-0.49-1.943-0.657
				C106.666,15.988,105.876,15.904,105.126,15.904L105.126,15.904z"/>
		</g>
		<g>
			<path fill="#77787B" d="M116.849,19.427v-3.093h-4.201v17.858h4.201v-9.135c0-1.554,0.352-2.829,1.047-3.793
				c0.686-0.952,1.6-1.435,2.717-1.435c0.378,0,0.803,0.062,1.263,0.186c0.455,0.122,0.785,0.255,0.98,0.396l0.176,0.127v-4.235
				l-0.068-0.029c-0.391-0.166-0.945-0.25-1.645-0.25l0,0c-1.055,0-2,0.339-2.809,1.007c-0.71,0.587-1.224,1.391-1.616,2.395
				H116.849z"/>
		</g>
		<g>
			<path fill="#77787B" d="M132.767,15.904c-2.945,0-5.284,0.863-6.951,2.565c-1.667,1.702-2.512,4.057-2.512,7.001
				c0,2.797,0.825,5.045,2.452,6.683c1.627,1.639,3.841,2.47,6.58,2.47c2.854,0,5.147-0.875,6.814-2.6
				c1.666-1.724,2.511-4.056,2.511-6.932c0-2.84-0.793-5.106-2.356-6.733C137.741,16.729,135.541,15.904,132.767,15.904
				L132.767,15.904z M132.578,31.146c-1.543,0-2.76-0.512-3.618-1.52c-0.862-1.013-1.3-2.457-1.3-4.293
				c0-1.894,0.438-3.376,1.3-4.407c0.858-1.025,2.063-1.544,3.583-1.544c1.474,0,2.648,0.496,3.489,1.477
				c0.845,0.985,1.273,2.455,1.273,4.371c0,1.939-0.403,3.429-1.199,4.425C135.318,30.643,134.131,31.146,132.578,31.146
				L132.578,31.146z"/>
		</g>
		<g>
			<path fill="#77787B" d="M150.509,15.904c-2.003,0-3.66,0.512-4.926,1.523c-1.273,1.016-1.919,2.349-1.919,3.962
				c0,0.838,0.14,1.583,0.414,2.215c0.276,0.634,0.703,1.192,1.271,1.66c0.563,0.465,1.432,0.951,2.585,1.446
				c0.968,0.399,1.691,0.736,2.149,1.002c0.449,0.261,0.767,0.522,0.946,0.778c0.175,0.249,0.264,0.59,0.264,1.012
				c0,1.2-0.899,1.783-2.747,1.783c-0.686,0-1.468-0.143-2.325-0.425c-0.858-0.282-1.659-0.688-2.381-1.207l-0.176-0.126v4.094
				l0.065,0.03c0.602,0.278,1.36,0.512,2.254,0.696c0.893,0.185,1.703,0.278,2.408,0.278c2.174,0,3.924-0.515,5.201-1.531
				c1.285-1.023,1.936-2.388,1.936-4.056c0-1.203-0.351-2.236-1.042-3.068c-0.686-0.826-1.878-1.583-3.54-2.254
				c-1.324-0.531-2.172-0.973-2.522-1.311c-0.338-0.327-0.509-0.79-0.509-1.375c0-0.52,0.211-0.935,0.646-1.273
				c0.437-0.339,1.045-0.511,1.809-0.511c0.709,0,1.434,0.112,2.155,0.331c0.72,0.219,1.353,0.513,1.881,0.872l0.174,0.119v-3.884
				l-0.067-0.029c-0.487-0.209-1.13-0.387-1.91-0.532C151.827,15.977,151.122,15.904,150.509,15.904L150.509,15.904z"/>
		</g>
		<g>
			<path fill="#77787B" d="M166.828,15.904c-2.945,0-5.284,0.863-6.951,2.565c-1.667,1.702-2.512,4.057-2.512,7.001
				c0,2.796,0.825,5.045,2.452,6.683c1.627,1.639,3.841,2.47,6.58,2.47c2.854,0,5.147-0.875,6.814-2.6
				c1.667-1.724,2.511-4.056,2.511-6.932c0-2.84-0.792-5.106-2.356-6.733C171.802,16.729,169.602,15.904,166.828,15.904
				L166.828,15.904z M166.639,31.146c-1.543,0-2.76-0.512-3.618-1.52c-0.862-1.013-1.3-2.458-1.3-4.293
				c0-1.894,0.438-3.376,1.3-4.407c0.858-1.025,2.064-1.544,3.583-1.544c1.475,0,2.648,0.496,3.489,1.477
				c0.845,0.985,1.274,2.455,1.274,4.371c0,1.939-0.403,3.429-1.199,4.425C169.379,30.643,168.191,31.146,166.639,31.146
				L166.639,31.146z"/>
		</g>
		<path fill="#77787B" d="M198.129,19.76v-3.426h-4.253v-5.326l-0.144,0.044l-3.996,1.223l-0.079,0.024v4.035h-6.307v-2.247
			c0-1.047,0.234-1.848,0.696-2.382c0.458-0.528,1.114-0.796,1.949-0.796c0.601,0,1.223,0.141,1.849,0.421l0.157,0.07V7.791
			l-0.074-0.027c-0.583-0.21-1.378-0.316-2.362-0.316c-1.241,0-2.369,0.27-3.351,0.806c-0.984,0.536-1.758,1.301-2.3,2.274
			c-0.54,0.972-0.815,2.094-0.815,3.335v2.472h-2.962v3.426h2.962v14.432h4.253V19.76h6.307v9.172c0,3.777,1.781,5.691,5.295,5.691
			c0.578,0,1.185-0.068,1.806-0.2c0.632-0.136,1.062-0.272,1.315-0.417l0.056-0.033v-3.458l-0.173,0.115
			c-0.231,0.154-0.518,0.279-0.855,0.373c-0.338,0.095-0.621,0.143-0.84,0.143c-0.823,0-1.432-0.222-1.81-0.66
			c-0.382-0.442-0.575-1.214-0.575-2.295V19.76H198.129z"/>
	</g>
	<rect x="3.333" y="0.947" fill="#F26522" width="19.761" height="19.761"/>
	<rect x="25.151" y="0.947" fill="#8DC63F" width="19.76" height="19.761"/>
	<rect x="3.333" y="22.773" fill="#00AEEF" width="19.76" height="19.761"/>
	<rect x="25.151" y="22.773" fill="#FFC20E" width="19.76" height="19.761"/>
</g>
</svg>
