<?xml version="1.0" encoding="utf-8"?>
<!-- Generator: Adobe Illustrator 17.0.2, SVG Export Plug-In . SVG Version: 6.00 Build 0)  -->
<!DOCTYPE svg PUBLIC "-//W3C//DTD SVG 1.1//EN" "http://www.w3.org/Graphics/SVG/1.1/DTD/svg11.dtd">
<svg version="1.1" id="b_x2F_w_-_logo" xmlns="http://www.w3.org/2000/svg" xmlns:xlink="http://www.w3.org/1999/xlink" x="0px"
	 y="0px" width="737.936px" height="132.026px" viewBox="206.247 299.685 737.936 132.026"
	 enable-background="new 206.247 299.685 737.936 132.026" xml:space="preserve">
<g>
	<g>
		<path d="M464.208,403.67l-20.187-42.327c-4.818-10.028-9.768-21.358-11.461-26.698l-0.391,0.391
			c0.651,7.554,0.782,17.061,0.912,25.005l0.521,43.629h-14.716v-90.122h16.93l21.88,44.018c4.167,8.336,8.074,19.014,9.246,23.182
			l0.391-0.391c-0.391-4.559-1.302-17.451-1.302-25.656l-0.261-41.153h14.195v90.122L464.208,403.67L464.208,403.67z"/>
		<path d="M506.791,374.626v1.042c0,9.116,3.387,18.754,16.279,18.754c6.121,0,11.461-2.214,16.41-6.512l5.6,8.726
			c-6.902,5.862-14.847,8.725-23.702,8.725c-18.624,0-30.345-13.413-30.345-34.511c0-11.591,2.475-19.274,8.205-25.786
			c5.339-6.121,11.851-8.855,20.185-8.855c6.512,0,12.503,1.692,18.103,6.772c5.73,5.209,8.596,13.283,8.596,28.651v2.995h-39.331
			V374.626z M519.424,347.017c-8.074,0-12.502,6.382-12.502,17.06h24.353C531.275,353.399,526.587,347.017,519.424,347.017z"/>
		<path d="M622.304,403.93H608.89l-8.074-30.344c-2.084-7.814-4.298-17.973-4.298-17.973h-0.261c0,0-1.042,6.512-4.298,18.623
			l-7.944,29.694h-13.414l-17.972-65.248l14.195-1.953l7.163,31.907c1.823,8.205,3.386,17.32,3.386,17.32h0.391
			c0,0,1.303-8.595,3.776-17.711l8.466-30.475h14.065l7.423,29.693c2.735,10.679,4.168,18.754,4.168,18.754h0.391
			c0,0,1.562-10.029,3.256-17.713l6.771-30.734h14.847L622.304,403.93z"/>
		<path d="M724.4,403.67l-7.813-13.936c-6.251-11.07-10.419-17.32-15.367-22.27c-1.693-1.693-2.996-2.605-5.861-2.735v38.941
			h-14.716v-90.122h27.479c20.186,0,29.302,11.721,29.302,25.786c0,12.893-8.335,24.744-22.399,24.744
			c3.256,1.693,9.246,10.419,13.935,17.973l13.284,21.62H724.4V403.67z M703.563,325.659h-8.205v28.521h7.685
			c7.813,0,11.981-1.042,14.716-3.776c2.475-2.475,4.037-6.252,4.037-10.939C721.796,330.347,716.848,325.659,703.563,325.659z"/>
		<path d="M761.904,374.626v1.042c0,9.116,3.387,18.754,16.279,18.754c6.121,0,11.461-2.214,16.41-6.512l5.6,8.726
			c-6.902,5.862-14.847,8.725-23.702,8.725c-18.624,0-30.345-13.413-30.345-34.511c0-11.591,2.475-19.274,8.205-25.786
			c5.339-6.121,11.851-8.855,20.186-8.855c6.512,0,12.503,1.692,18.102,6.772c5.73,5.209,8.596,13.283,8.596,28.651v2.995h-39.331
			V374.626z M774.537,347.017c-8.074,0-12.502,6.382-12.502,17.06h24.354C786.389,353.399,781.7,347.017,774.537,347.017z"/>
		<path d="M828.06,405.102c-14.456,0-14.456-13.024-14.456-18.624v-56.131c0-8.986-0.391-13.805-1.303-19.274l14.717-3.256
			c1.042,4.037,1.172,9.507,1.172,18.102v55.87c0,8.856,0.391,10.288,1.433,11.852c0.781,1.172,2.995,1.823,4.688,1.042l2.344,8.856
			C834.05,404.58,831.315,405.102,828.06,405.102z"/>
		<path d="M852.932,328.003c-5.21,0-9.247-4.298-9.247-9.508c0-5.34,4.167-9.637,9.507-9.637c5.079,0,9.377,4.168,9.377,9.637
			C862.568,323.706,858.271,328.003,852.932,328.003z M845.769,403.67v-64.858l14.456-2.604v67.461h-14.456V403.67z"/>
		<path d="M901.246,405.361c-17.972,0-28-12.631-28-33.86c0-23.963,14.326-35.424,29.042-35.424c7.163,0,12.372,1.693,18.232,7.162
			l-7.162,9.508c-3.907-3.516-7.293-5.079-11.07-5.079c-4.558,0-8.335,2.345-10.419,6.642c-1.953,4.037-2.734,10.158-2.734,18.363
			c0,8.986,1.433,14.717,4.428,17.973c2.084,2.344,5.209,3.776,8.726,3.776c4.559,0,8.986-2.214,13.284-6.512l6.772,8.726
			C916.353,402.627,910.102,405.361,901.246,405.361z"/>
		<path d="M934.562,405.111c-5.277,0-9.62-4.264-9.62-9.672c0-5.383,4.343-9.673,9.62-9.673c5.278,0,9.621,4.29,9.621,9.673
			C944.184,400.848,939.841,405.111,934.562,405.111z M934.562,387.691c-4.107,0-7.41,3.432-7.41,7.748
			c0,4.317,3.303,7.799,7.41,7.799c4.108,0,7.437-3.482,7.437-7.799C941.999,391.123,938.671,387.691,934.562,387.691z
			 M936.461,400.795c-0.416-0.729-0.598-1.014-1.014-1.793c-1.066-1.951-1.404-2.497-1.794-2.653
			c-0.104-0.053-0.208-0.078-0.339-0.078v4.524h-2.132v-10.842h4.03c1.924,0,3.198,1.273,3.198,3.172
			c0,1.639-1.092,2.965-2.418,2.99c0.208,0.182,0.312,0.285,0.442,0.468c0.623,0.781,2.6,4.212,2.6,4.212L936.461,400.795
			L936.461,400.795z M935.317,391.851c-0.234-0.078-0.702-0.156-1.223-0.156h-0.78v2.938h0.729c0.935,0,1.351-0.103,1.638-0.363
			c0.261-0.26,0.416-0.65,0.416-1.092C936.097,392.501,935.837,392.058,935.317,391.851z"/>
	</g>
	<path fill="#696969" d="M368.066,348.234c7.643,35.148-22.118,71.465-66.475,81.108c-44.351,9.645-86.506-11.033-94.148-46.182
		c-7.641-35.148,22.12-71.463,66.472-81.107C318.271,292.41,360.424,313.085,368.066,348.234z"/>
	<path fill="#C2C2C1" d="M341.449,366.861c0,25.693-20.83,46.524-46.525,46.524c-25.691,0-46.521-20.831-46.521-46.524
		s20.83-46.522,46.521-46.522C320.619,320.338,341.449,341.168,341.449,366.861z"/>
	<path fill="#FFFFFF" d="M316.056,365.695c0,15.633-12.672,28.305-28.298,28.305c-15.632,0-28.304-12.672-28.304-28.305
		c0-15.629,12.672-28.299,28.304-28.299C303.384,337.396,316.056,350.066,316.056,365.695z"/>
</g>
</svg>
