<?xml version="1.0" encoding="utf-8"?>
<!-- Generator: Adobe Illustrator 17.0.2, SVG Export Plug-In . SVG Version: 6.00 Build 0)  -->
<!DOCTYPE svg PUBLIC "-//W3C//DTD SVG 1.1//EN" "http://www.w3.org/Graphics/SVG/1.1/DTD/svg11.dtd">
<svg version="1.1" id="Layer_1" xmlns="http://www.w3.org/2000/svg" xmlns:xlink="http://www.w3.org/1999/xlink" x="0px" y="0px"
	 width="233.54px" height="41.783px" viewBox="0 0 233.54 41.783" enable-background="new 0 0 233.54 41.783" xml:space="preserve">
<g id="outlines_8_">
	<g>
		<path fill="#231F20" d="M81.639,32.909L75.25,19.513c-1.525-3.173-3.091-6.759-3.627-8.449l-0.124,0.124
			c0.206,2.391,0.248,5.399,0.289,7.913l0.165,13.807h-4.657V4.387h5.358l6.924,13.931c1.319,2.638,2.555,6.017,2.926,7.336
			l0.124-0.124c-0.124-1.442-0.412-5.523-0.412-8.119L82.133,4.387h4.492v28.521H81.639z"/>
		<path fill="#231F20" d="M95.115,23.718v0.329c0,2.885,1.072,5.935,5.152,5.935c1.937,0,3.627-0.701,5.193-2.061l1.772,2.761
			c-2.184,1.855-4.699,2.762-7.501,2.762c-5.894,0-9.603-4.245-9.603-10.922c0-3.668,0.783-6.1,2.597-8.161
			c1.69-1.937,3.75-2.803,6.388-2.803c2.061,0,3.957,0.536,5.729,2.143c1.814,1.649,2.72,4.204,2.72,9.067v0.948H95.115z
			 M99.113,14.98c-2.555,0-3.957,2.02-3.957,5.4h7.707C102.864,16.999,101.38,14.98,99.113,14.98z"/>
		<path fill="#231F20" d="M131.672,32.991h-4.245l-2.555-9.603c-0.66-2.473-1.36-5.688-1.36-5.688h-0.083c0,0-0.33,2.061-1.36,5.894
			l-2.514,9.397h-4.245l-5.688-20.649l4.492-0.618l2.267,10.098c0.577,2.596,1.071,5.482,1.071,5.482h0.124
			c0,0,0.412-2.72,1.195-5.606l2.679-9.645h4.451l2.349,9.397c0.866,3.38,1.319,5.935,1.319,5.935h0.124c0,0,0.494-3.173,1.03-5.605
			l2.143-9.727h4.699L131.672,32.991z"/>
		<path fill="#231F20" d="M163.983,32.909l-2.473-4.41c-1.978-3.503-3.297-5.482-4.863-7.048c-0.536-0.536-0.948-0.824-1.855-0.865
			v12.324h-4.657V4.387h8.697c6.388,0,9.273,3.709,9.273,8.161c0,4.08-2.638,7.831-7.089,7.831c1.03,0.536,2.926,3.297,4.41,5.688
			l4.204,6.842H163.983z M157.389,8.22h-2.597v9.026h2.432c2.473,0,3.792-0.33,4.657-1.195c0.783-0.783,1.278-1.978,1.278-3.462
			C163.159,9.704,161.593,8.22,157.389,8.22z"/>
		<path fill="#231F20" d="M175.853,23.718v0.329c0,2.885,1.072,5.935,5.152,5.935c1.937,0,3.627-0.701,5.193-2.061l1.772,2.761
			c-2.184,1.855-4.699,2.762-7.501,2.762c-5.894,0-9.603-4.245-9.603-10.922c0-3.668,0.783-6.1,2.597-8.161
			c1.69-1.937,3.75-2.803,6.388-2.803c2.061,0,3.957,0.536,5.729,2.143c1.814,1.649,2.72,4.204,2.72,9.067v0.948H175.853z
			 M179.851,14.98c-2.555,0-3.957,2.02-3.957,5.4h7.707C183.601,16.999,182.118,14.98,179.851,14.98z"/>
		<path fill="#231F20" d="M196.789,33.362c-4.575,0-4.575-4.122-4.575-5.894V9.704c0-2.844-0.124-4.369-0.412-6.1l4.658-1.03
			c0.33,1.278,0.371,3.009,0.371,5.729v17.682c0,2.803,0.124,3.256,0.453,3.751c0.247,0.371,0.948,0.577,1.484,0.329l0.742,2.803
			C198.685,33.197,197.82,33.362,196.789,33.362z"/>
		<path fill="#231F20" d="M204.661,8.962c-1.649,0-2.926-1.36-2.926-3.008c0-1.69,1.319-3.05,3.009-3.05
			c1.607,0,2.968,1.319,2.968,3.05C207.71,7.602,206.35,8.962,204.661,8.962z M202.394,32.909V12.383l4.575-0.825v21.35H202.394z"/>
		<path fill="#231F20" d="M219.951,33.445c-5.688,0-8.861-3.998-8.861-10.716c0-7.584,4.534-11.211,9.191-11.211
			c2.267,0,3.915,0.536,5.77,2.267l-2.267,3.009c-1.237-1.113-2.308-1.607-3.503-1.607c-1.442,0-2.638,0.742-3.297,2.102
			c-0.618,1.278-0.865,3.215-0.865,5.811c0,2.844,0.453,4.657,1.401,5.688c0.66,0.742,1.649,1.195,2.761,1.195
			c1.443,0,2.844-0.701,4.204-2.061l2.143,2.761C224.732,32.579,222.754,33.445,219.951,33.445z"/>
		<path fill="#231F20" d="M230.495,33.365c-1.67,0-3.045-1.349-3.045-3.061c0-1.703,1.374-3.061,3.045-3.061
			c1.67,0,3.045,1.358,3.045,3.061C233.54,32.015,232.165,33.365,230.495,33.365z M230.495,27.852c-1.3,0-2.345,1.086-2.345,2.452
			c0,1.366,1.045,2.469,2.345,2.469c1.3,0,2.353-1.103,2.353-2.469C232.848,28.938,231.795,27.852,230.495,27.852z M231.096,31.999
			c-0.132-0.231-0.189-0.321-0.321-0.568c-0.337-0.617-0.444-0.79-0.568-0.839c-0.033-0.016-0.066-0.025-0.107-0.025v1.432h-0.675
			v-3.432h1.275c0.609,0,1.012,0.404,1.012,1.004c0,0.518-0.346,0.938-0.765,0.946c0.066,0.058,0.099,0.091,0.14,0.148
			c0.197,0.247,0.823,1.333,0.823,1.333H231.096z M230.734,29.168c-0.074-0.025-0.222-0.049-0.387-0.049H230.1v0.93h0.231
			c0.296,0,0.428-0.033,0.518-0.116c0.083-0.082,0.132-0.206,0.132-0.346C230.98,29.374,230.898,29.234,230.734,29.168z"/>
	</g>
	<g>
		<path fill="#008B98" d="M51.212,15.365C48.793,4.241,35.453-2.303,21.415,0.75C7.379,3.801-2.04,15.294,0.379,26.418
			c2.419,11.124,15.76,17.668,29.796,14.616C44.212,37.982,53.631,26.488,51.212,15.365z M25.796,31.146
			c-5.664,0-10.255-4.591-10.255-10.255c0-5.662,4.591-10.253,10.255-10.253c5.662,0,10.253,4.59,10.253,10.253
			C36.049,26.554,31.458,31.146,25.796,31.146z"/>
		<path fill="#71CAD1" d="M28.064,6.537c-8.131,0-14.723,6.592-14.723,14.723c0,8.131,6.592,14.724,14.723,14.724
			c8.132,0,14.724-6.592,14.724-14.724C42.788,13.128,36.196,6.537,28.064,6.537z M25.796,29.848c-4.947,0-8.957-4.01-8.957-8.958
			c0-4.946,4.01-8.956,8.957-8.956c4.945,0,8.956,4.01,8.956,8.956C34.752,25.838,30.741,29.848,25.796,29.848z"/>
	</g>
</g>
</svg>
