<?xml version="1.0" encoding="utf-8"?>
<!-- Generator: Adobe Illustrator 17.0.2, SVG Export Plug-In . SVG Version: 6.00 Build 0)  -->
<!DOCTYPE svg PUBLIC "-//W3C//DTD SVG 1.1//EN" "http://www.w3.org/Graphics/SVG/1.1/DTD/svg11.dtd">
<svg version="1.1" id="Layer_1" xmlns="http://www.w3.org/2000/svg" xmlns:xlink="http://www.w3.org/1999/xlink" x="0px" y="0px"
	 width="222.234px" height="30.923px" viewBox="0 0 222.234 30.923" enable-background="new 0 0 222.234 30.923"
	 xml:space="preserve">
<path id="squarespace-logo-horizontal_1_" fill="#231F20" d="M79.84,14.87v-0.045c0-4.349-3.222-8.111-8.021-8.111
	c-4.799,0-8.067,3.808-8.067,8.156v0.045c0,4.349,3.224,8.111,8.023,8.111c1.959,0,3.649-0.63,4.978-1.689l2.073,1.891l1.217-1.33
	l-2.096-1.733C79.164,18.723,79.84,16.852,79.84,14.87z M76.618,18.993l-2.907-2.636l-1.194,1.33l2.93,2.501
	c-0.969,0.743-2.232,1.192-3.629,1.192c-3.604,0-6.218-2.927-6.218-6.51v-0.045c0-3.582,2.567-6.466,6.174-6.466
	c3.604,0,6.218,2.929,6.218,6.511v0.045C77.993,16.469,77.475,17.888,76.618,18.993z M94.71,16.154c0,3.448-1.847,5.205-4.753,5.205
	c-3.021,0-4.822-1.915-4.822-5.317V6.984h-1.78v9.17c0,4.46,2.658,6.85,6.556,6.85c3.943,0,6.579-2.389,6.579-6.985V6.984h-1.78
	V16.154z M201.348,21.38c-3.47,0-6.106-2.86-6.106-6.51v-0.045c0-3.627,2.612-6.466,6.106-6.466c2.14,0,3.626,0.9,4.956,2.163
	l1.217-1.307c-1.576-1.488-3.289-2.501-6.151-2.501c-4.642,0-7.976,3.694-7.976,8.156v0.045c0,4.529,3.357,8.111,7.908,8.111
	c2.861,0,4.664-1.104,6.309-2.77l-1.172-1.149C204.929,20.547,203.51,21.38,201.348,21.38z M212.499,21.132v-5.519h8.609v-1.622
	h-8.609V8.606h9.622V6.984h-11.401v15.77h11.515v-1.623H212.499z M169.645,6.984h-5.902v15.77h1.78V17.19h3.831
	c3.357,0,6.195-1.757,6.195-5.16v-0.044C175.55,8.876,173.206,6.984,169.645,6.984z M173.748,12.099c0,2.073-1.713,3.47-4.327,3.47
	h-3.897V8.629h3.988c2.547,0,4.236,1.171,4.236,3.424V12.099z M55.687,14.014c-3.469-0.743-4.28-1.578-4.28-3.064v-0.045
	c0-1.419,1.307-2.546,3.356-2.546c1.622,0,3.087,0.518,4.551,1.711l1.037-1.373c-1.6-1.284-3.244-1.938-5.542-1.938
	c-2.998,0-5.183,1.825-5.183,4.303v0.045c0,2.591,1.667,3.763,5.296,4.551c3.312,0.698,4.1,1.532,4.1,2.996V18.7
	c0,1.556-1.398,2.68-3.515,2.68c-2.185,0-3.762-0.742-5.407-2.228l-1.103,1.306c1.892,1.69,3.942,2.524,6.443,2.524
	c3.132,0,5.384-1.758,5.384-4.461v-0.045C60.823,16.064,59.202,14.779,55.687,14.014z M136.009,15.613h8.606v-1.622h-8.606V8.606
	h9.621V6.984h-11.4v15.77h11.513v-1.623h-9.733V15.613z M154.978,14.014c-3.468-0.743-4.279-1.578-4.279-3.064v-0.045
	c0-1.419,1.307-2.546,3.356-2.546c1.621,0,3.089,0.518,4.552,1.711l1.036-1.373c-1.599-1.284-3.244-1.938-5.543-1.938
	c-2.996,0-5.182,1.825-5.182,4.303v0.045c0,2.591,1.668,3.763,5.295,4.551c3.311,0.698,4.101,1.532,4.101,2.996V18.7
	c0,1.556-1.398,2.68-3.515,2.68c-2.185,0-3.762-0.742-5.407-2.228l-1.104,1.306c1.893,1.69,3.942,2.524,6.443,2.524
	c3.132,0,5.384-1.758,5.384-4.461v-0.045C160.116,16.064,158.495,14.779,154.978,14.014z M105.975,6.872l-7.186,15.883h1.824
	l1.87-4.167h8.585l1.846,4.167h1.916l-7.188-15.883H105.975z M103.181,16.987l3.605-8.043l3.583,8.043H103.181z M183.052,6.872
	l-7.187,15.883h1.825l1.869-4.167h8.586l1.847,4.167h1.915l-7.188-15.883H183.052z M180.26,16.987l3.605-8.043l3.581,8.043H180.26z
	 M130.421,11.716V11.67c0-1.239-0.45-2.343-1.216-3.109c-0.991-0.991-2.547-1.577-4.482-1.577h-6.782v15.77h1.777v-6.127h4.506
	l4.575,6.127h2.186l-4.844-6.442C128.618,15.861,130.421,14.329,130.421,11.716z M119.718,15.027V8.629h4.869
	c2.544,0,4.031,1.171,4.031,3.109v0.045c0,2.028-1.69,3.244-4.056,3.244H119.718z M6.177,16.788c0.732,0.732,1.92,0.732,2.652,0
	L20.767,4.851c1.465-1.465,3.84-1.465,5.305,0c0.733,0.732,1.921,0.732,2.653,0c0.732-0.733,0.732-1.92,0-2.653
	c-2.931-2.931-7.681-2.931-10.611,0L6.177,14.135C5.444,14.868,5.444,16.056,6.177,16.788z M24.746,8.83
	c0.732-0.732,0.732-1.92,0-2.653c-0.732-0.733-1.92-0.733-2.652,0L10.156,18.114c-1.466,1.465-3.841,1.465-5.306,0
	c-1.466-1.465-1.466-3.84,0-5.306L16.558,1.101c-1.465-1.465-3.841-1.465-5.306,0l-9.056,9.055c-2.93,2.931-2.93,7.681,0,10.611
	c2.931,2.931,7.681,2.931,10.611,0L24.746,8.83z M26.073,10.156L14.135,22.094c-0.732,0.733-0.732,1.92,0,2.653
	c0.733,0.732,1.921,0.732,2.653,0l11.937-11.938c1.465-1.465,3.841-1.465,5.306,0c1.465,1.465,1.465,3.84,0,5.306L22.323,29.823
	c1.465,1.465,3.84,1.465,5.306,0l9.056-9.056c2.93-2.93,2.93-7.681,0-10.611C33.754,7.226,29.003,7.226,26.073,10.156z
	 M32.705,14.135c-0.732-0.732-1.921-0.732-2.653,0L18.114,26.073c-1.465,1.465-3.841,1.465-5.306,0c-0.732-0.733-1.92-0.733-2.652,0
	c-0.733,0.732-0.733,1.92,0,2.653c2.93,2.93,7.681,2.93,10.611,0l11.938-11.938C33.437,16.056,33.437,14.868,32.705,14.135z"/>
</svg>
