<?xml version="1.0" encoding="utf-8"?>
<!-- Generator: Adobe Illustrator 17.1.0, SVG Export Plug-In . SVG Version: 6.00 Build 0)  -->
<!DOCTYPE svg PUBLIC "-//W3C//DTD SVG 1.1//EN" "http://www.w3.org/Graphics/SVG/1.1/DTD/svg11.dtd">
<svg version="1.1" id="Layer_1" xmlns="http://www.w3.org/2000/svg" xmlns:xlink="http://www.w3.org/1999/xlink" x="0px" y="0px"
	 viewBox="0 0 197 44.7" enable-background="new 0 0 197 44.7" xml:space="preserve">
<g>
	<g>
		<defs>
			<rect id="SVGID_1_" x="-37.4" y="-46.2" width="271.4" height="135.7"/>
		</defs>
		<clipPath id="SVGID_2_">
			<use xlink:href="#SVGID_1_"  overflow="visible"/>
		</clipPath>
		<g clip-path="url(#SVGID_2_)">
			<defs>
				<rect id="SVGID_3_" x="-37.4" y="-46.2" width="271.4" height="135.7"/>
			</defs>
			<clipPath id="SVGID_4_">
				<use xlink:href="#SVGID_3_"  overflow="visible"/>
			</clipPath>
			<path clip-path="url(#SVGID_4_)" fill="#3490C0" d="M20.1,4.5c-9.5,0-17.2,7.7-17.2,17.2c0,9.5,7.7,17.2,17.2,17.2
				c9.5,0,17.2-7.7,17.2-17.2C37.3,12.2,29.6,4.5,20.1,4.5 M4.7,21.7c0-2.2,0.5-4.4,1.3-6.3l7.4,20.2C8.2,33.1,4.7,27.8,4.7,21.7
				 M20.1,37.1c-1.5,0-3-0.2-4.4-0.6L20.4,23l4.7,13c0,0.1,0.1,0.1,0.1,0.2C23.6,36.8,21.9,37.1,20.1,37.1 M22.2,14.4
				c0.9,0,1.8-0.1,1.8-0.1c0.8-0.1,0.7-1.3-0.1-1.3c0,0-2.5,0.2-4.1,0.2c-1.5,0-4.1-0.2-4.1-0.2c-0.8,0-0.9,1.2-0.1,1.3
				c0,0,0.8,0.1,1.6,0.1l2.4,6.6l-3.4,10.1l-5.6-16.7c0.9,0,1.8-0.1,1.8-0.1c0.8-0.1,0.7-1.3-0.1-1.3c0,0-2.5,0.2-4.1,0.2
				c-0.3,0-0.6,0-1,0c2.8-4.2,7.5-7,12.9-7c4,0,7.7,1.5,10.4,4.1c-0.1,0-0.1,0-0.2,0c-1.5,0-2.6,1.3-2.6,2.7c0,1.3,0.7,2.3,1.5,3.6
				c0.6,1,1.3,2.3,1.3,4.3c0,1.3-0.4,3-1.2,5L27.8,31L22.2,14.4z M27.9,35l4.7-13.6c0.9-2.2,1.2-4,1.2-5.5c0-0.6,0-1.1-0.1-1.6
				c1.2,2.2,1.9,4.7,1.9,7.4C35.5,27.4,32.5,32.3,27.9,35"/>
			<path clip-path="url(#SVGID_4_)" fill="#9B9B9B" d="M58.1,29.4h-2.6L53,20.6c-0.1-0.4-0.2-0.9-0.4-1.7c-0.2-0.7-0.3-1.2-0.3-1.5
				c-0.1,0.4-0.2,1-0.3,1.7c-0.2,0.7-0.3,1.2-0.4,1.5l-2.5,8.8h-2.6L44.6,22l-1.9-7.4h2.5l2.1,8.6c0.3,1.4,0.6,2.6,0.7,3.7
				c0.1-0.6,0.2-1.2,0.3-1.9c0.1-0.7,0.3-1.3,0.4-1.7l2.4-8.7h2.4l2.5,8.7c0.2,0.8,0.5,2,0.8,3.6c0.1-1,0.3-2.2,0.7-3.7l2.1-8.6H62
				L58.1,29.4z"/>
			<path clip-path="url(#SVGID_4_)" fill="#9B9B9B" d="M73.4,23.8c0,1.8-0.5,3.3-1.4,4.3c-0.9,1-2.2,1.5-3.9,1.5c-1,0-2-0.2-2.8-0.7
				c-0.8-0.5-1.4-1.2-1.9-2C63,26,62.8,25,62.8,23.8c0-1.8,0.5-3.2,1.4-4.3c0.9-1,2.2-1.5,3.9-1.5c1.6,0,2.9,0.5,3.9,1.6
				C72.9,20.6,73.4,22,73.4,23.8 M65.2,23.8c0,2.6,1,3.9,2.9,3.9c1.9,0,2.8-1.3,2.8-3.9c0-2.6-1-3.8-2.9-3.8c-1,0-1.7,0.3-2.2,1
				C65.4,21.6,65.2,22.6,65.2,23.8"/>
			<path clip-path="url(#SVGID_4_)" fill="#9B9B9B" d="M81.4,18c0.5,0,0.9,0,1.2,0.1l-0.2,2.2c-0.3-0.1-0.7-0.1-1.1-0.1
				c-1,0-1.7,0.3-2.3,0.9c-0.6,0.6-0.9,1.4-0.9,2.4v5.9h-2.4V18.2h1.9l0.3,2H78c0.4-0.7,0.9-1.2,1.5-1.6C80.1,18.2,80.7,18,81.4,18"
				/>
			<path clip-path="url(#SVGID_4_)" fill="#9B9B9B" d="M88,29.6c-1.4,0-2.5-0.5-3.3-1.5c-0.8-1-1.2-2.4-1.2-4.3
				c0-1.8,0.4-3.3,1.2-4.3c0.8-1,1.9-1.5,3.3-1.5c1.5,0,2.6,0.5,3.4,1.6h0.1c-0.1-0.8-0.2-1.4-0.2-1.9v-4.1h2.4v15.8h-1.9L91.5,28
				h-0.1C90.6,29.1,89.5,29.6,88,29.6 M88.7,27.7c1,0,1.7-0.3,2.1-0.8c0.4-0.6,0.7-1.4,0.7-2.7v-0.3c0-1.4-0.2-2.4-0.7-3
				c-0.5-0.6-1.2-0.9-2.2-0.9c-0.8,0-1.5,0.3-1.9,1c-0.5,0.7-0.7,1.6-0.7,2.9c0,1.2,0.2,2.2,0.7,2.8C87.1,27.4,87.8,27.7,88.7,27.7"
				/>
			<path clip-path="url(#SVGID_4_)" fill="#9B9B9B" d="M106.9,19.1c0,1.5-0.5,2.7-1.5,3.6c-1,0.8-2.5,1.2-4.3,1.2h-1.5v5.6H97V14.6
				h4.3c1.9,0,3.2,0.4,4.2,1.1C106.4,16.5,106.9,17.6,106.9,19.1 M99.5,21.8h1.3c1.2,0,2.2-0.2,2.7-0.6c0.6-0.4,0.9-1.1,0.9-2
				c0-0.9-0.3-1.5-0.8-1.9c-0.5-0.4-1.3-0.6-2.4-0.6h-1.7V21.8z"/>
			<path clip-path="url(#SVGID_4_)" fill="#9B9B9B" d="M114.8,18c0.5,0,0.9,0,1.2,0.1l-0.2,2.2c-0.3-0.1-0.7-0.1-1.1-0.1
				c-1,0-1.7,0.3-2.3,0.9c-0.6,0.6-0.9,1.4-0.9,2.4v5.9h-2.4V18.2h1.9l0.3,2h0.1c0.4-0.7,0.9-1.2,1.5-1.6
				C113.5,18.2,114.2,18,114.8,18"/>
			<path clip-path="url(#SVGID_4_)" fill="#9B9B9B" d="M122.6,29.6c-1.7,0-3.1-0.5-4.1-1.5c-1-1-1.5-2.4-1.5-4.2
				c0-1.8,0.5-3.3,1.4-4.3c0.9-1,2.2-1.6,3.8-1.6c1.5,0,2.7,0.5,3.5,1.4c0.9,0.9,1.3,2.1,1.3,3.7v1.3h-7.5c0,1.1,0.3,1.9,0.9,2.5
				c0.6,0.6,1.3,0.9,2.3,0.9c0.7,0,1.3-0.1,1.9-0.2c0.6-0.1,1.2-0.3,1.8-0.6v1.9c-0.6,0.3-1.2,0.5-1.8,0.6
				C124,29.6,123.4,29.6,122.6,29.6 M122.2,19.8c-0.8,0-1.4,0.2-1.8,0.7c-0.5,0.5-0.7,1.2-0.8,2.1h5.1c0-0.9-0.2-1.6-0.7-2.1
				C123.5,20,122.9,19.8,122.2,19.8"/>
			<path clip-path="url(#SVGID_4_)" fill="#9B9B9B" d="M136.8,26.2c0,1.1-0.4,1.9-1.2,2.5c-0.8,0.6-1.9,0.9-3.4,0.9
				c-1.5,0-2.7-0.2-3.6-0.7v-2.1c1.3,0.6,2.5,0.9,3.7,0.9c1.5,0,2.2-0.4,2.2-1.3c0-0.3-0.1-0.5-0.2-0.7c-0.2-0.2-0.4-0.4-0.8-0.6
				c-0.4-0.2-0.9-0.4-1.6-0.7c-1.3-0.5-2.2-1-2.6-1.5c-0.5-0.5-0.7-1.1-0.7-1.9c0-1,0.4-1.7,1.2-2.2c0.8-0.5,1.8-0.8,3.2-0.8
				c1.3,0,2.6,0.3,3.7,0.8l-0.8,1.8c-1.2-0.5-2.2-0.8-3.1-0.8c-1.3,0-1.9,0.4-1.9,1.1c0,0.4,0.2,0.6,0.5,0.9c0.3,0.2,1,0.6,2.1,1
				c0.9,0.4,1.6,0.7,2,1c0.4,0.3,0.7,0.6,0.9,1C136.7,25.2,136.8,25.7,136.8,26.2"/>
			<path clip-path="url(#SVGID_4_)" fill="#9B9B9B" d="M146.5,26.2c0,1.1-0.4,1.9-1.2,2.5c-0.8,0.6-1.9,0.9-3.4,0.9
				c-1.5,0-2.7-0.2-3.6-0.7v-2.1c1.3,0.6,2.5,0.9,3.7,0.9c1.5,0,2.2-0.4,2.2-1.3c0-0.3-0.1-0.5-0.2-0.7c-0.2-0.2-0.4-0.4-0.8-0.6
				c-0.4-0.2-0.9-0.4-1.6-0.7c-1.3-0.5-2.2-1-2.6-1.5c-0.5-0.5-0.7-1.1-0.7-1.9c0-1,0.4-1.7,1.2-2.2c0.8-0.5,1.8-0.8,3.2-0.8
				c1.3,0,2.6,0.3,3.7,0.8l-0.8,1.8c-1.2-0.5-2.2-0.8-3.1-0.8c-1.3,0-1.9,0.4-1.9,1.1c0,0.4,0.2,0.6,0.5,0.9c0.3,0.2,1,0.6,2.1,1
				c0.9,0.4,1.6,0.7,2,1c0.4,0.3,0.7,0.6,0.9,1C146.4,25.2,146.5,25.7,146.5,26.2"/>
			<path clip-path="url(#SVGID_4_)" fill="#9B9B9B" d="M148.3,28.2c0-0.5,0.1-0.9,0.4-1.1c0.3-0.3,0.6-0.4,1.1-0.4
				c0.5,0,0.9,0.1,1.1,0.4c0.3,0.3,0.4,0.6,0.4,1.1c0,0.5-0.1,0.9-0.4,1.1c-0.3,0.3-0.6,0.4-1.1,0.4c-0.5,0-0.9-0.1-1.1-0.4
				C148.4,29,148.3,28.6,148.3,28.2"/>
			<path clip-path="url(#SVGID_4_)" fill="#9B9B9B" d="M158.5,29.6c-1.7,0-3-0.5-3.9-1.5c-0.9-1-1.3-2.4-1.3-4.3
				c0-1.9,0.5-3.3,1.4-4.4c0.9-1,2.3-1.5,4-1.5c1.2,0,2.2,0.2,3.2,0.7l-0.7,1.9c-1-0.4-1.8-0.6-2.5-0.6c-1.9,0-2.9,1.3-2.9,3.9
				c0,1.3,0.2,2.2,0.7,2.8c0.5,0.6,1.2,0.9,2.1,0.9c1.1,0,2.1-0.3,3-0.8v2.1c-0.4,0.3-0.9,0.4-1.4,0.5
				C159.8,29.6,159.2,29.6,158.5,29.6"/>
			<path clip-path="url(#SVGID_4_)" fill="#9B9B9B" d="M173.8,23.8c0,1.8-0.5,3.3-1.4,4.3c-0.9,1-2.2,1.5-3.9,1.5
				c-1,0-2-0.2-2.8-0.7c-0.8-0.5-1.4-1.2-1.9-2c-0.4-0.9-0.6-1.9-0.6-3.1c0-1.8,0.5-3.2,1.4-4.3c0.9-1,2.2-1.5,3.9-1.5
				c1.6,0,2.9,0.5,3.9,1.6C173.3,20.6,173.8,22,173.8,23.8 M165.6,23.8c0,2.6,1,3.9,2.9,3.9c1.9,0,2.8-1.3,2.8-3.9
				c0-2.6-1-3.8-2.9-3.8c-1,0-1.7,0.3-2.2,1C165.8,21.6,165.6,22.6,165.6,23.8"/>
			<path clip-path="url(#SVGID_4_)" fill="#9B9B9B" d="M185.6,29.4h-2.4v-6.9c0-0.9-0.2-1.5-0.5-1.9c-0.3-0.4-0.8-0.6-1.5-0.6
				c-0.9,0-1.6,0.3-2,0.9c-0.4,0.6-0.6,1.6-0.6,3v5.6h-2.4V18.2h1.9l0.3,1.5h0.1c0.3-0.5,0.8-0.9,1.4-1.2c0.6-0.3,1.2-0.4,2-0.4
				c1.7,0,2.9,0.6,3.4,1.8h0.2c0.3-0.6,0.8-1,1.4-1.3c0.6-0.3,1.3-0.5,2.1-0.5c1.3,0,2.3,0.3,2.9,1c0.6,0.7,0.9,1.7,0.9,3.1v7.3
				h-2.4v-6.9c0-0.9-0.2-1.5-0.5-1.9c-0.3-0.4-0.8-0.6-1.5-0.6c-0.9,0-1.6,0.3-2,0.9c-0.4,0.6-0.6,1.5-0.6,2.7V29.4z"/>
		</g>
	</g>
</g>
</svg>
