<?xml version="1.0" encoding="utf-8"?>
<!-- Generator: Adobe Illustrator 17.0.2, SVG Export Plug-In . SVG Version: 6.00 Build 0)  -->
<!DOCTYPE svg PUBLIC "-//W3C//DTD SVG 1.1//EN" "http://www.w3.org/Graphics/SVG/1.1/DTD/svg11.dtd">
<svg version="1.1" id="Layer_1" xmlns="http://www.w3.org/2000/svg" xmlns:xlink="http://www.w3.org/1999/xlink" x="0px" y="0px"
	 width="197.005px" height="44.699px" viewBox="0.839 0.19 197.005 44.699" enable-background="new 0.839 0.19 197.005 44.699"
	 xml:space="preserve">
<g>
	<path fill="#00749A" d="M115.098,17.785h-7.755v0.823c2.426,0,2.816,0.52,2.816,3.596v5.546c0,3.076-0.39,3.639-2.816,3.639
		c-1.862-0.26-3.119-1.257-4.852-3.163l-1.992-2.166c2.686-0.477,4.115-2.166,4.115-4.073c0-2.382-2.036-4.202-5.849-4.202H91.14
		v0.823c2.426,0,2.816,0.52,2.816,3.596v5.546c0,3.076-0.39,3.639-2.816,3.639v0.823h8.621v-0.823c-2.426,0-2.816-0.563-2.816-3.639
		v-1.56h0.736l4.809,6.021h12.607c6.195,0,8.881-3.292,8.881-7.235C123.98,21.034,121.294,17.785,115.098,17.785z M96.946,24.846
		v-5.761h1.776c1.949,0,2.816,1.343,2.816,2.902c0,1.517-0.867,2.859-2.816,2.859H96.946z M115.228,30.868h-0.303
		c-1.56,0-1.776-0.39-1.776-2.383v-9.401c0,0,1.906,0,2.079,0c4.505,0,5.329,3.292,5.329,5.849
		C120.557,27.576,119.734,30.868,115.228,30.868z"/>
	<path fill="#00749A" d="M67.01,26.449l2.989-8.839c0.867-2.556,0.477-3.292-2.296-3.292v-0.867h8.145v0.867
		c-2.729,0-3.379,0.65-4.462,3.813l-4.939,14.817h-0.563l-4.419-13.561l-4.505,13.561h-0.563l-4.809-14.817
		c-1.04-3.163-1.733-3.813-4.246-3.813v-0.867h9.618v0.867c-2.556,0-3.25,0.606-2.339,3.292l2.902,8.839l4.376-12.998h0.823
		L67.01,26.449z"/>
	<path fill="#00749A" d="M81.739,32.774c-4.765,0-8.665-3.509-8.665-7.799c0-4.245,3.899-7.755,8.665-7.755
		c4.766,0,8.665,3.51,8.665,7.755C90.404,29.265,86.505,32.774,81.739,32.774z M81.739,18.565c-3.985,0-5.372,3.596-5.372,6.411
		c0,2.86,1.387,6.412,5.372,6.412c4.029,0,5.416-3.553,5.416-6.412C87.155,22.16,85.769,18.565,81.739,18.565z"/>
	<path fill="#464342" d="M134.68,31.345v0.866h-9.921v-0.866c2.903,0,3.423-0.736,3.423-5.069v-6.931
		c0-4.333-0.52-5.026-3.423-5.026v-0.867h8.968c4.462,0,6.932,2.296,6.932,5.373c0,2.989-2.47,5.329-6.932,5.329h-2.469v2.122
		C131.257,30.608,131.777,31.345,134.68,31.345z M133.727,15.011h-2.469v7.539h2.469c2.426,0,3.553-1.69,3.553-3.726
		C137.279,16.745,136.153,15.011,133.727,15.011z"/>
	<path fill="#464342" d="M170.421,28.139l-0.216,0.78c-0.39,1.43-0.867,1.95-3.942,1.95h-0.607c-2.252,0-2.642-0.52-2.642-3.596
		V25.28c3.379,0,3.639,0.303,3.639,2.556h0.823V21.38h-0.823c0,2.253-0.26,2.556-3.639,2.556v-4.852h2.382
		c3.076,0,3.553,0.52,3.943,1.949l0.217,0.823h0.693l-0.303-4.072h-12.737v0.823c2.426,0,2.816,0.52,2.816,3.596v5.546
		c0,2.814-0.331,3.523-2.244,3.624c-1.818-0.277-3.066-1.269-4.774-3.147l-1.993-2.166c2.686-0.477,4.116-2.166,4.116-4.073
		c0-2.382-2.036-4.202-5.849-4.202h-7.625v0.823c2.426,0,2.816,0.52,2.816,3.596v5.546c0,3.076-0.39,3.639-2.816,3.639v0.823h8.621
		v-0.823c-2.426,0-2.816-0.563-2.816-3.639v-1.56h0.736l4.809,6.021h17.805l0.26-4.072H170.421z M147.46,24.846v-5.761h1.776
		c1.95,0,2.816,1.343,2.816,2.902c0,1.517-0.867,2.859-2.816,2.859H147.46z"/>
	<path fill="#464342" d="M179.216,32.774c-1.733,0-3.25-0.91-3.899-1.473c-0.216,0.217-0.606,0.867-0.693,1.473H173.8v-5.978h0.866
		c0.347,2.859,2.339,4.549,4.896,4.549c1.386,0,2.513-0.78,2.513-2.079c0-1.126-0.997-1.993-2.773-2.816l-2.469-1.17
		c-1.733-0.824-3.033-2.253-3.033-4.159c0-2.079,1.95-3.855,4.636-3.855c1.43,0,2.642,0.52,3.379,1.126
		c0.216-0.173,0.433-0.65,0.563-1.17h0.823v5.113h-0.91c-0.303-2.036-1.43-3.726-3.726-3.726c-1.213,0-2.34,0.693-2.34,1.777
		c0,1.126,0.91,1.733,2.99,2.686l2.382,1.17c2.08,0.996,2.903,2.6,2.903,3.899C184.501,30.868,182.118,32.774,179.216,32.774z"/>
	<path fill="#464342" d="M192.559,32.774c-1.733,0-3.25-0.91-3.899-1.473c-0.216,0.217-0.606,0.867-0.693,1.473h-0.823v-5.978h0.866
		c0.347,2.859,2.339,4.549,4.896,4.549c1.386,0,2.513-0.78,2.513-2.079c0-1.126-0.997-1.993-2.773-2.816l-2.469-1.17
		c-1.733-0.824-3.033-2.253-3.033-4.159c0-2.079,1.949-3.855,4.636-3.855c1.43,0,2.642,0.52,3.379,1.126
		c0.216-0.173,0.433-0.65,0.563-1.17h0.823v5.113h-0.91c-0.303-2.036-1.43-3.726-3.726-3.726c-1.213,0-2.34,0.693-2.34,1.777
		c0,1.126,0.91,1.733,2.99,2.686l2.382,1.17c2.08,0.996,2.903,2.6,2.903,3.899C197.844,30.868,195.461,32.774,192.559,32.774z"/>
	<g>
		<path fill="#464342" d="M4.016,22.54c0,7.589,4.41,14.147,10.806,17.256L5.676,14.737C4.612,17.121,4.016,19.76,4.016,22.54z"/>
		<path fill="#464342" d="M36.132,21.572c0-2.369-0.851-4.01-1.581-5.288c-0.972-1.579-1.883-2.917-1.883-4.496
			c0-1.763,1.337-3.403,3.22-3.403c0.085,0,0.165,0.01,0.248,0.015c-3.411-3.125-7.955-5.033-12.947-5.033
			c-6.698,0-12.591,3.437-16.019,8.642c0.45,0.014,0.874,0.023,1.234,0.023c2.005,0,5.11-0.243,5.11-0.243
			c1.034-0.061,1.156,1.457,0.123,1.579c0,0-1.039,0.122-2.194,0.183l6.982,20.768l4.196-12.584l-2.987-8.184
			c-1.032-0.061-2.01-0.183-2.01-0.183c-1.033-0.06-0.912-1.64,0.121-1.579c0,0,3.166,0.243,5.05,0.243
			c2.005,0,5.11-0.243,5.11-0.243c1.034-0.061,1.156,1.457,0.123,1.579c0,0-1.041,0.122-2.194,0.183l6.929,20.61l1.913-6.39
			C35.501,25.118,36.132,23.213,36.132,21.572z"/>
		<path fill="#464342" d="M23.525,24.217l-5.753,16.716c1.718,0.505,3.534,0.781,5.416,0.781c2.232,0,4.374-0.386,6.367-1.087
			c-0.051-0.082-0.098-0.169-0.136-0.264L23.525,24.217z"/>
		<path fill="#464342" d="M40.012,13.341c0.082,0.611,0.129,1.266,0.129,1.971c0,1.946-0.363,4.132-1.458,6.867l-5.856,16.933
			c5.7-3.324,9.534-9.5,9.534-16.573C42.361,19.206,41.51,16.072,40.012,13.341z"/>
		<path fill="#464342" d="M23.189,0.19c-12.323,0-22.35,10.026-22.35,22.349c0,12.325,10.026,22.35,22.35,22.35
			c12.323,0,22.351-10.025,22.351-22.35C45.539,10.216,35.512,0.19,23.189,0.19z M23.189,43.865
			c-11.758,0-21.325-9.567-21.325-21.325c0-11.758,9.567-21.325,21.325-21.325c11.758,0,21.324,9.566,21.324,21.325
			C44.513,34.298,34.947,43.865,23.189,43.865z"/>
	</g>
</g>
</svg>
