<?xml version="1.0" standalone="no"?>
<!DOCTYPE svg PUBLIC "-//W3C//DTD SVG 1.1//EN" "http://www.w3.org/Graphics/SVG/1.1/DTD/svg11.dtd" >
<svg>
<metadata>
Created by FontForge 20110222 at Fri Feb  1 11:29:19 2013
 By Bobby Tannam
</metadata>
<defs>
<font id="FoundationIconsGeneralEnclos-" horiz-adv-x="2048" >
  <font-face 
    font-family="Foundation Icons General Enclos"
    font-weight="400"
    font-stretch="normal"
    units-per-em="2048"
    panose-1="0 0 0 0 0 0 0 0 0 0"
    ascent="1706"
    descent="-342"
    x-height="1706"
    cap-height="1706"
    bbox="-1024 -344 6144 3877"
    underline-thickness="102"
    underline-position="-153"
    unicode-range="U+0020-FB04"
  />
<missing-glyph horiz-adv-x="512" 
 />
    <glyph glyph-name=".notdef" horiz-adv-x="512" 
 />
    <glyph glyph-name="NULL" horiz-adv-x="0" 
 />
    <glyph glyph-name="nonmarkingreturn" horiz-adv-x="682" 
 />
    <glyph glyph-name="space" unicode=" " horiz-adv-x="512" 
 />
    <glyph glyph-name="exclam" unicode="!" 
d="M0 682q0 141 37 272t103.5 245t159.5 207t207 159.5t245 103.5t272 37q211 0 398.5 -81t325.5 -219t219 -325.5t81 -398.5q0 -141 -37 -272t-103.5 -245t-159.5 -207t-207 -159.5t-245 -103.5t-272 -37t-272 37t-245 103.5t-207 159.5t-159.5 207t-103.5 245t-37 272z
M483 150q6 -18 29 -19h1024q23 0 29 19q6 18 -13 32q-2 2 -24.5 13.5t-74.5 26t-136 27.5t-207 17v64h283q20 0 34.5 14t14.5 35v455q0 20 -14.5 33.5t-34.5 13.5h-47v-58h-64v385q0 6 -13.5 19.5t-41.5 29.5v-182q0 -4 -6.5 -15t-20.5 -11q-16 0 -21 11t-5 15v201
q-27 8 -66 12v-213q0 -4 -6 -15t-21 -11q-16 0 -21 11t-5 15v217q-10 2 -31 2h-18q-8 0 -19 -2v-217q0 -4 -5 -15t-21 -11q-14 0 -19.5 11t-5.5 15v213q-20 -4 -35.5 -6t-32.5 -6v-201q0 -4 -6 -15t-20 -11t-20.5 11t-6.5 15v180q-29 -14 -43 -27.5t-14 -19.5v-385h-64v58
h-47q-20 0 -33.5 -13.5t-13.5 -33.5v-455q0 -20 13.5 -34.5t33.5 -14.5h283v-64q-121 -4 -203 -17t-133 -27.5t-73.5 -26t-24.5 -13.5q-19 -12 -13 -32zM694 426v309h64v-180q0 -6 14 -19.5t47 -26.5t84 -23.5t123 -10.5t121 10.5t78.5 23.5t43 26.5t13.5 19.5v180h64v-309
h-652z" />
    <glyph glyph-name="quotedbl" unicode="&#x22;" 
d="M0 682q0 141 37 272t103.5 245t159.5 207t207 159.5t245 103.5t272 37q211 0 398.5 -81t325.5 -219t219 -325.5t81 -398.5q0 -141 -37 -272t-103.5 -245t-159.5 -207t-207 -159.5t-245 -103.5t-272 -37t-272 37t-245 103.5t-207 159.5t-159.5 207t-103.5 245t-37 272z
M461 611.5q0 -25.5 16 -42.5q18 -18 44 -18t42 18l522 523q57 57 104.5 76.5t86.5 15.5t69.5 -24.5t53.5 -43.5q88 -88 61 -180q-14 -59 -86 -133l-52 -52l-101 -102q-59 -59 -128 -126.5t-129 -128.5l-104 -103l-53 -53q-51 -51 -92 -58q-8 0 -29.5 3t-54.5 34
q-49 49 -43 96q2 27 17.5 48.5t31.5 37.5l477 478q25 25 42.5 36t27.5 14t15 0t7 -5q2 -4 5 -9.5t0 -15.5t-14 -26.5t-36 -41.5l-438 -438l84 -86l440 438q47 47 67.5 87t21.5 73t-12 58.5t-32 44.5q-16 14 -39.5 28.5t-57.5 15.5t-76 -18.5t-91 -68.5l-477 -478
q-74 -74 -84 -159q-4 -35 9 -86.5t71 -108.5q41 -43 82 -57.5t76 -14.5q18 0 26 2q84 12 162 91l53 53l104 103l128 128l127 127q59 59 102 101.5t53 52.5q92 96 117 188q8 27 10 60.5t-6 71.5t-30.5 79t-65.5 84q-111 111 -237 104.5t-249 -126.5l-522 -525
q-16 -16 -16 -41.5z" />
    <glyph glyph-name="numbersign" unicode="#" 
d="M0 682q0 141 37 272t103.5 245t159.5 207t207 159.5t245 103.5t272 37q211 0 398.5 -81t325.5 -219t219 -325.5t81 -398.5q0 -141 -37 -272t-103.5 -245t-159.5 -207t-207 -159.5t-245 -103.5t-272 -37t-272 37t-245 103.5t-207 159.5t-159.5 207t-103.5 245t-37 272z
M543 248q0 -20 13 -33.5t32 -13.5h776q18 0 31.5 13t13.5 34v22h68q12 0 20 9.5t8 21.5v84q0 12 -8 21.5t-20 9.5h-68v82h68q29 0 28 28v86q0 29 -28 29h-68v82h68q12 0 20 9t8 22v84q0 12 -8 21t-20 9h-68v82h68q29 0 28 29v86q0 29 -28 29h-68v22q0 20 -13.5 33.5
t-31.5 13.5h-776q-18 0 -31.5 -13t-13.5 -34v-868zM748 483v125q0 23 16 29l158 74q-29 16 -46.5 48t-17.5 72q0 55 35 95.5t82 40.5q49 0 83 -40t34 -96q0 -41 -16.5 -72.5t-45.5 -47.5l158 -74q16 -6 16 -29v-125q0 -12 -8 -21t-18 -9h-404q-10 0 -18 9t-8 21z" />
    <glyph glyph-name="dollar" unicode="$" 
d="M0 682q0 141 37 272t103.5 245t159.5 207t207 159.5t245 103.5t272 37q211 0 398.5 -81t325.5 -219t219 -325.5t81 -398.5q0 -141 -37 -272t-103.5 -245t-159.5 -207t-207 -159.5t-245 -103.5t-272 -37t-272 37t-245 103.5t-207 159.5t-159.5 207t-103.5 245t-37 272z
M481 223q-20 -41 11 -71l2 -2q14 -18 41 -19q10 0 30 8l617 371q8 4 20 20l365 611q10 16 6 37.5t-19 35.5q-31 31 -71 11l-611 -365q-16 -12 -20 -20z" />
    <glyph glyph-name="percent" unicode="%" 
d="M1026 1706q211 0 397.5 -81t325.5 -219t219 -325.5t80 -398.5q0 -213 -80 -399.5t-219 -324.5t-325.5 -219t-397.5 -81q-213 0 -399.5 81t-325.5 219t-220 324.5t-81 399.5q0 211 81 398.5t220 325.5t325.5 219t399.5 81zM965 168q32 0 67 18.5t68 49t61.5 69.5t46.5 80
l-18 16l-150 -43l-4 9l129 413q2 6 -19.5 20.5t-52 30t-63.5 27.5t-53 12q-33 0 -65.5 -19.5t-61.5 -50t-54.5 -69.5t-45.5 -80l20 -16l152 43l4 -8l-119 -412q-4 -12 15.5 -27.5t45 -29t53 -23.5t44.5 -10zM1135 911q77 0 101 33t24 109q0 75 -24 106t-101 31
q-78 0 -104.5 -31t-26.5 -106q0 -76 26.5 -109t104.5 -33z" />
    <glyph glyph-name="ampersand" unicode="&#x26;" 
d="M0 682q0 141 37 272t103.5 245t159.5 207t207 159.5t245 103.5t272 37q211 0 398.5 -81t325.5 -219t219 -325.5t81 -398.5q0 -141 -37 -272t-103.5 -245t-159.5 -207t-207 -159.5t-245 -103.5t-272 -37t-272 37t-245 103.5t-207 159.5t-159.5 207t-103.5 245t-37 272z
M559 868q0 -12 8 -18l445 -447q12 -8 20 -8v2q10 0 21 6l651 652q18 20 0 39l-143 143q-8 8 -19 8q-10 0 -18 -8l-492 -492l-284 285q-18 18 -37 0l-144 -143q-8 -9 -8 -19z" />
    <glyph glyph-name="quotesingle" unicode="'" 
d="M0 682q0 141 37 272t103.5 245t159.5 207t207 159.5t245 103.5t272 37q211 0 398.5 -81t325.5 -219t219 -325.5t81 -398.5q0 -141 -37 -272t-103.5 -245t-159.5 -207t-207 -159.5t-245 -103.5t-272 -37t-272 37t-245 103.5t-207 159.5t-159.5 207t-103.5 245t-37 272z
M461 611.5q0 -25.5 16 -42.5q18 -18 44 -18t42 18l522 523q57 57 104.5 76.5t86.5 15.5t69.5 -24.5t53.5 -43.5q88 -88 61 -180q-14 -59 -86 -133l-52 -52l-101 -102q-59 -59 -128 -126.5t-129 -128.5l-104 -103l-53 -53q-51 -51 -92 -58q-8 0 -29.5 3t-54.5 34
q-49 49 -43 96q2 27 17.5 48.5t31.5 37.5l477 478q25 25 42.5 36t27.5 14t15 0t7 -5q2 -4 5 -9.5t0 -15.5t-14 -26.5t-36 -41.5l-438 -438l84 -86l440 438q47 47 67.5 87t21.5 73t-12 58.5t-32 44.5q-16 14 -39.5 28.5t-57.5 15.5t-76 -18.5t-91 -68.5l-477 -478
q-74 -74 -84 -159q-4 -35 9 -86.5t71 -108.5q41 -43 82 -57.5t76 -14.5q18 0 26 2q84 12 162 91l53 53l104 103l128 128l127 127q59 59 102 101.5t53 52.5q92 96 117 188q8 27 10 60.5t-6 71.5t-30.5 79t-65.5 84q-111 111 -237 104.5t-249 -126.5l-522 -525
q-16 -16 -16 -41.5z" />
    <glyph glyph-name="parenleft" unicode="(" 
d="M0 682q0 141 37 272t103.5 245t159.5 207t207 159.5t245 103.5t272 37q211 0 398.5 -81t325.5 -219t219 -325.5t81 -398.5q0 -141 -37 -272t-103.5 -245t-159.5 -207t-207 -159.5t-245 -103.5t-272 -37t-272 37t-245 103.5t-207 159.5t-159.5 207t-103.5 245t-37 272z
M403 225q0 -33 21.5 -55.5t54.5 -22.5h1080q31 0 53 23t22 55v439q0 31 -22.5 53t-52.5 22h-275q-25 0 -45 -14t-29 -39q-20 -63 -73.5 -101t-118.5 -38q-66 0 -118 38t-75 101q-8 25 -27.5 39t-43.5 14h-275q-33 0 -54.5 -22.5t-21.5 -52.5v-439zM786 1067q-4 -10 2 -23
l216 -299q4 -8 16 -8q10 0 16 11l213 296q6 12 0 23q-4 10 -16 10h-100v271q0 20 -21 20h-186q-20 0 -21 -20v-271h-100q-13 0 -19 -10z" />
    <glyph glyph-name="parenright" unicode=")" 
d="M0 682q0 141 37 272t103.5 245t159.5 207t207 159.5t245 103.5t272 37q211 0 398.5 -81t325.5 -219t219 -325.5t81 -398.5q0 -141 -37 -272t-103.5 -245t-159.5 -207t-207 -159.5t-245 -103.5t-272 -37t-272 37t-245 103.5t-207 159.5t-159.5 207t-103.5 245t-37 272z
M481 225q0 -29 19.5 -48t48.5 -19h952q29 0 48.5 19.5t19.5 47.5v883q0 29 -19.5 48.5t-48.5 19.5h-952q-29 0 -48.5 -19.5t-19.5 -48.5v-883zM616 291v751h820v-751h-820zM705 375h182v180h-182v-180zM705 612h638v334h-638v-334zM934 375h180v180h-180v-180zM1163 375h180
v180h-180v-180z" />
    <glyph glyph-name="asterisk" unicode="*" 
d="M1708 1446q160 -141 250 -339t90 -427q0 -211 -80 -397.5t-219 -325.5t-325.5 -220t-397.5 -81q-65 0 -128.5 8t-123.5 25v1206q0 61 -26.5 112.5t-71.5 86.5zM1255 102h234l-549 578v-817l182 182l103 -238l129 64zM1759 721l-53 98l94 60l-94 55l53 98l-110 4l-4 109
l-99 -51l-57 94l-57 -94l-99 51l-4 -109l-110 -4l53 -98l-94 -55l94 -60l-53 -98l110 -4l4 -109l99 51l57 -94l57 94l99 -51l4 109zM659 -279q-145 56 -266 152t-208 220t-136 273.5t-49 313.5q0 213 80 399.5t219 325.5t326.5 220t400.5 81q160 0 305.5 -46t267.5 -130
l-1132 -387l-12 -6q-78 -23 -128.5 -89.5t-50.5 -152.5q0 -51 19.5 -97t52.5 -80t78 -53.5t98 -19.5q23 0 40.5 17.5t17.5 39.5q0 25 -17.5 41.5t-40.5 16.5q-57 0 -97 40t-40 95q0 57 40 97t97 40q56 0 95.5 -40t39.5 -97v-1174z" />
    <glyph glyph-name="plus" unicode="+" 
d="M0 682q0 141 37 272t103.5 245t159.5 207t207 159.5t245 103.5t272 37q211 0 398.5 -81t325.5 -219t219 -325.5t81 -398.5q0 -141 -37 -272t-103.5 -245t-159.5 -207t-207 -159.5t-245 -103.5t-272 -37t-272 37t-245 103.5t-207 159.5t-159.5 207t-103.5 245t-37 272z
M475 231.5q0 -51.5 37 -86.5q35 -37 87 -36.5t87 36.5l213 213q68 -35 140.5 -47t145 -2t141.5 44t124 89q70 70 103.5 157t33.5 177t-33.5 177t-103.5 157t-157 103.5t-177 33.5t-177 -33.5t-157 -103.5q-59 -59 -93 -132t-42 -151.5t9.5 -156.5t60.5 -146l-205 -205
q-37 -36 -37 -87.5zM852 777q0 50 19.5 98.5t58.5 87.5t87 57t99 18t99.5 -18.5t87.5 -56.5q39 -39 57 -87.5t18 -98.5t-18.5 -98t-56.5 -87q-39 -39 -87.5 -58.5t-99.5 -19.5t-99 19.5t-87 58.5t-58.5 87t-19.5 98z" />
    <glyph glyph-name="comma" unicode="," 
d="M1616 -154q-125 -92 -275.5 -141t-316.5 -49q-213 0 -399.5 81t-324.5 220t-219 325.5t-81 397.5q0 141 37 272t103.5 246t159.5 208t207 159.5t245 103.5t272 37q211 0 398.5 -81t325.5 -220t219 -325.5t81 -399.5q0 -174 -52 -328.5t-151 -283.5l-358 358l106 106
l-131 130l-157 -158l-54 55l158 158l-78 80l-160 -160l-55 53l160 158l-78 80l-158 -158l-53 55l156 158l-78 80l-158 -162l-51 55l156 158l-64 66q-45 45 -88 53t-84 -9.5t-84 -56.5t-88 -84q-47 -45 -85 -88t-55.5 -84t-10 -84t54.5 -88l63 -65l164 162l56 -52l-166 -166
l80 -77l161 164l56 -56l-164 -162l80 -77l163 163l52 -55l-162 -162l80 -77l159 159l56 -51l-164 -164l131 -129l109 107zM1405 346l367 -366q-31 -33 -64 -64l-367 367z" />
    <glyph glyph-name="hyphen" unicode="-" 
d="M0 682q0 141 37 272t103.5 245t159.5 207t207 159.5t245 103.5t272 37q211 0 398.5 -81t325.5 -219t219 -325.5t81 -398.5q0 -141 -37 -272t-103.5 -245t-159.5 -207t-207 -159.5t-245 -103.5t-272 -37t-272 37t-245 103.5t-207 159.5t-159.5 207t-103.5 245t-37 272z
M494 211q0 -25 18 -43t43 -18h942q27 0 44.5 18t17.5 43v942q0 27 -17.5 44t-44.5 17h-942q-25 0 -43 -17t-18 -44v-942zM657 649h740q0 -76 -30 -142.5t-80 -116.5t-117.5 -78.5t-143.5 -28.5t-143.5 28.5t-117.5 78.5t-79 116.5t-29 142.5zM727 897q0 47 34 81t81 34
t80.5 -34t33.5 -81t-33.5 -81t-80.5 -34t-81 34t-34 81zM1085 897q0 47 34 81t81 34t81 -34t34 -81t-34 -81t-81 -34t-81 34t-34 81z" />
    <glyph glyph-name="period" unicode="." 
d="M1083 1206q0 17 10.5 29t26.5 16l482 -172v-852q0 -16 -10.5 -28.5t-26.5 -16.5l-482 172v852zM1542 362q4 9 0 15t-10 8l-369 121q-16 6 -24 -12q-4 -17 12 -25l369 -119q2 -2 6 -2q12 0 16 14zM1542 465q4 8 0 15t-10 9l-369 121q-18 4 -24 -12q-2 -14 12 -23l369 -122
h6q12 0 16 12zM1542 571q6 15 -10 23l-369 123q-18 4 -24 -15q-2 -6 2 -13t10 -9l369 -121q2 0 3 -1t3 -1q12 0 16 14zM1139 803q0 -10 12 -19l369 -120q2 -2 6 -2t12 4l4 8t2 8v315q0 11 -12 19l-369 119q-10 4 -16 -2q-8 -7 -8 -17v-313zM1507 709l-329 108v273l329 -107
v-274zM969 354l-482 -172q-36 6 -36 45v852l481 172q16 -4 26.5 -16t10.5 -29v-852zM903 469q19 8 12 25q-8 18 -24 12l-371 -121q-16 -4 -12 -23q4 -14 18 -14q4 0 6 2zM903 575q19 9 12 23q-6 16 -24 12l-371 -121q-16 -4 -12 -24q2 -12 18 -12h6zM903 680q8 2 12.5 9
t-0.5 13q-6 19 -24 15l-371 -123q-16 -6 -12 -23q4 -14 18 -14q2 0 3 1t3 1zM903 784q19 9 12 25q-6 16 -24 12l-371 -121q-16 -6 -12 -24q4 -14 18 -14q4 0 6 2zM903 889q19 8 12 24q-6 17 -24 13l-371 -121q-16 -4 -12 -25q2 -12 18 -12h6zM903 995q21 4 12 25
q-6 16 -24 12l-371 -123q-16 -6 -12 -24q2 -13 18 -13h6zM903 1098q19 8 12 24q-8 19 -24 13l-371 -119q-16 -6 -12 -25q4 -14 18 -14q4 0 6 2zM1026 1706q211 0 397.5 -81t325.5 -220t219 -326.5t80 -400.5t-80 -398.5t-219 -323.5t-325.5 -218t-397.5 -80
q-213 0 -399.5 80t-325.5 218t-220 323.5t-81 398.5t81 400.5t220 326.5t325.5 220t399.5 81zM1714 1120q0 41 -35 56l-530 186q-12 4 -21 4q-28 0 -54.5 -11.5t-47.5 -27.5q-22 16 -47 27.5t-55 11.5q-6 0 -19 -4l-532 -186q-39 -15 -39 -56v-893q0 -65 47 -112t115 -47
q4 0 16 4l514 182l512 -182q8 -4 18 -4q66 0 112 47t46 112v893z" />
    <glyph glyph-name="slash" unicode="/" 
d="M0 682q0 141 37 272t103.5 245t159.5 207t207 159.5t245 103.5t272 37q211 0 398.5 -81t325.5 -219t219 -325.5t81 -398.5q0 -141 -37 -272t-103.5 -245t-159.5 -207t-207 -159.5t-245 -103.5t-272 -37t-272 37t-245 103.5t-207 159.5t-159.5 207t-103.5 245t-37 272z
M453 324q0 -29 20.5 -49.5t48.5 -20.5h994q29 0 49 20.5t20 49.5v716q0 29 -20.5 49.5t-48.5 20.5h-994q-29 0 -49 -20.5t-20 -49.5v-716zM592 393v578h854v-578h-854zM629 514.5q-2 -20.5 12 -37.5q12 -16 32.5 -18t37.5 12l84 70l69 -70q18 -14 35 -14h6q25 4 37 22
l111 174l77 -164q12 -27 44 -26q31 -4 45 24l192 338q10 16 4 37t-22 31q-18 10 -38 4t-30 -23l-145 -256l-76 160q-10 25 -41 29q-31 0 -45 -25l-127 -196l-57 57q-14 14 -33 14t-35 -10l-119 -100q-16 -12 -18 -32.5z" />
    <glyph glyph-name="zero" unicode="0" 
d="M0 682q0 141 37 272t103.5 245t159.5 207t207 159.5t245 103.5t272 37q211 0 398.5 -81t325.5 -219t219 -325.5t81 -398.5q0 -141 -37 -272t-103.5 -245t-159.5 -207t-207 -159.5t-245 -103.5t-272 -37t-272 37t-245 103.5t-207 159.5t-159.5 207t-103.5 245t-37 272z
M481 225q0 -29 19.5 -48t48.5 -19h952q29 0 48.5 19.5t19.5 47.5v883q0 29 -19.5 48.5t-48.5 19.5h-952q-29 0 -48.5 -19.5t-19.5 -48.5v-883zM616 291v751h820v-751h-820zM705 375h182v180h-182v-180zM705 612h638v334h-638v-334zM934 375h180v180h-180v-180zM1163 375h180
v180h-180v-180z" />
    <glyph glyph-name="one" unicode="1" 
d="M0 682q0 141 37 272t103.5 245t159.5 207t207 159.5t245 103.5t272 37q211 0 398.5 -81t325.5 -219t219 -325.5t81 -398.5q0 -141 -37 -272t-103.5 -245t-159.5 -207t-207 -159.5t-245 -103.5t-272 -37t-272 37t-245 103.5t-207 159.5t-159.5 207t-103.5 245t-37 272z
M483 150q6 -18 29 -19h1024q23 0 29 19q6 18 -13 32q-2 2 -24.5 13.5t-74.5 26t-136 27.5t-207 17v64h283q20 0 34.5 14t14.5 35v455q0 20 -14.5 33.5t-34.5 13.5h-47v-58h-64v385q0 6 -13.5 19.5t-41.5 29.5v-182q0 -4 -6.5 -15t-20.5 -11q-16 0 -21 11t-5 15v201
q-27 8 -66 12v-213q0 -4 -6 -15t-21 -11q-16 0 -21 11t-5 15v217q-10 2 -31 2h-18q-8 0 -19 -2v-217q0 -4 -5 -15t-21 -11q-14 0 -19.5 11t-5.5 15v213q-20 -4 -35.5 -6t-32.5 -6v-201q0 -4 -6 -15t-20 -11t-20.5 11t-6.5 15v180q-29 -14 -43 -27.5t-14 -19.5v-385h-64v58
h-47q-20 0 -33.5 -13.5t-13.5 -33.5v-455q0 -20 13.5 -34.5t33.5 -14.5h283v-64q-121 -4 -203 -17t-133 -27.5t-73.5 -26t-24.5 -13.5q-19 -12 -13 -32zM694 426v309h64v-180q0 -6 14 -19.5t47 -26.5t84 -23.5t123 -10.5t121 10.5t78.5 23.5t43 26.5t13.5 19.5v180h64v-309
h-652z" />
    <glyph glyph-name="two" unicode="2" 
d="M0 682q0 141 37 272t103.5 245t159.5 207t207 159.5t245 103.5t272 37q211 0 398.5 -81t325.5 -219t219 -325.5t81 -398.5q0 -141 -37 -272t-103.5 -245t-159.5 -207t-207 -159.5t-245 -103.5t-272 -37t-272 37t-245 103.5t-207 159.5t-159.5 207t-103.5 245t-37 272z
M395 1124q0 -23 17.5 -40t40.5 -17h131l157 -451l-198 -245q-23 -29 -6 -62q14 -35 51 -35h897q25 0 42 17.5t17 42.5t-17.5 41t-41.5 16h-774l104 129h2h647q23 0 39.5 13.5t20.5 35.5l92 545q2 27 -12 49q-20 20 -45 21h-273h-661h-172q-23 0 -40.5 -17.5t-17.5 -42.5z
M522 162q0 -37 26.5 -62.5t61.5 -25.5q37 0 62.5 25.5t25.5 62.5t-25.5 62.5t-62.5 25.5q-35 0 -61.5 -25.5t-26.5 -62.5zM707 1067h215l12 -96h-193zM768 893h174l10 -90h-153zM827 725h134l10 -88h-113zM999 1067h242l-12 -96h-217zM1020 893h201l-11 -90h-180zM1040 725
h160l-10 -88h-139zM1270 637l10 88h152l-17 -88h-145zM1288 803l10 90h162l-16 -90h-156zM1309 971l10 96h170l-16 -96h-164zM1329 162q0 -37 26.5 -62.5t63.5 -25.5q35 0 61.5 25.5t26.5 62.5t-26.5 62.5t-61.5 25.5q-37 0 -63.5 -25.5t-26.5 -62.5z" />
    <glyph glyph-name="three" unicode="3" 
d="M0 682q0 141 37 272t103.5 245t159.5 207t207 159.5t245 103.5t272 37q211 0 398.5 -81t325.5 -219t219 -325.5t81 -398.5q0 -141 -37 -272t-103.5 -245t-159.5 -207t-207 -159.5t-245 -103.5t-272 -37t-272 37t-245 103.5t-207 159.5t-159.5 207t-103.5 245t-37 272z
M543 248q0 -20 13 -33.5t32 -13.5h776q18 0 31.5 13t13.5 34v22h68q12 0 20 9.5t8 21.5v84q0 12 -8 21.5t-20 9.5h-68v82h68q29 0 28 28v86q0 29 -28 29h-68v82h68q12 0 20 9t8 22v84q0 12 -8 21t-20 9h-68v82h68q29 0 28 29v86q0 29 -28 29h-68v22q0 20 -13.5 33.5
t-31.5 13.5h-776q-18 0 -31.5 -13t-13.5 -34v-868zM748 483v125q0 23 16 29l158 74q-29 16 -46.5 48t-17.5 72q0 55 35 95.5t82 40.5q49 0 83 -40t34 -96q0 -41 -16.5 -72.5t-45.5 -47.5l158 -74q16 -6 16 -29v-125q0 -12 -8 -21t-18 -9h-404q-10 0 -18 9t-8 21z" />
    <glyph glyph-name="four" unicode="4" 
d="M0 682q0 141 37 272t103.5 245t159.5 207t207 159.5t245 103.5t272 37q211 0 398.5 -81t325.5 -219t219 -325.5t81 -398.5q0 -141 -37 -272t-103.5 -245t-159.5 -207t-207 -159.5t-245 -103.5t-272 -37t-272 37t-245 103.5t-207 159.5t-159.5 207t-103.5 245t-37 272z
M481 223q-20 -41 11 -71l2 -2q14 -18 41 -19q10 0 30 8l617 371q8 4 20 20l365 611q10 16 6 37.5t-19 35.5q-31 31 -71 11l-611 -365q-16 -12 -20 -20z" />
    <glyph glyph-name="five" unicode="5" 
d="M0 682q0 141 37 272t103.5 245t159.5 207t207 159.5t245 103.5t272 37q211 0 398.5 -81t325.5 -219t219 -325.5t81 -398.5q0 -141 -37 -272t-103.5 -245t-159.5 -207t-207 -159.5t-245 -103.5t-272 -37t-272 37t-245 103.5t-207 159.5t-159.5 207t-103.5 245t-37 272z
M492 178q0 -31 22.5 -53.5t52.5 -22.5q33 0 54.5 22.5t21.5 53.5v424q35 16 80 28.5t94 11.5t101.5 -20.5t101.5 -68.5q61 -61 136 -74.5t146.5 1t133 45t98.5 55.5q20 14 26.5 31.5t6.5 60.5v438q0 29 -14.5 52.5t-51.5 13.5q-12 -4 -39.5 -17.5t-65.5 -29t-84 -26.5
t-96.5 -10t-100.5 19t-95 64q-45 45 -102.5 60t-116 11t-114.5 -22.5t-99 -41t-69.5 -44t-26.5 -29.5v-252v-240v-440z" />
    <glyph glyph-name="six" unicode="6" 
d="M0 682q0 141 37 272t103.5 245t159.5 207t207 159.5t245 103.5t272 37q211 0 398.5 -81t325.5 -219t219 -325.5t81 -398.5q0 -141 -37 -272t-103.5 -245t-159.5 -207t-207 -159.5t-245 -103.5t-272 -37t-272 37t-245 103.5t-207 159.5t-159.5 207t-103.5 245t-37 272z
M526 799q0 -4 2 -6q2 -23 4.5 -44.5t6.5 -43.5q4 -29 28.5 -82.5t59.5 -117t75.5 -132t77.5 -127t64.5 -100.5t40.5 -54q16 -16 37.5 -34.5t42 -33t37 -22.5t22.5 -8t21.5 8t36 21.5t42 32t39.5 36.5q12 12 41 54t67 101.5t78 127t73.5 132t58 117t28.5 81.5q4 23 6.5 44
t4.5 44v6q0 4 1 6t1 6v2q0 102 -39 192.5t-106.5 158t-158 107.5t-192.5 40h-2h-2q-102 0 -192.5 -40t-158 -107.5t-106.5 -158t-39 -192.5v-2v-12zM821 817q0 84 58.5 142.5t142.5 58.5t142.5 -58.5t58.5 -142.5t-58.5 -142.5t-142.5 -58.5t-142.5 58.5t-58.5 142.5z" />
    <glyph glyph-name="seven" unicode="7" 
d="M0 682q0 141 37 272t103.5 245t159.5 207t207 159.5t245 103.5t272 37q211 0 398.5 -81t325.5 -219t219 -325.5t81 -398.5q0 -141 -37 -272t-103.5 -245t-159.5 -207t-207 -159.5t-245 -103.5t-272 -37t-272 37t-245 103.5t-207 159.5t-159.5 207t-103.5 245t-37 272z
M559 868q0 -12 8 -18l445 -447q12 -8 20 -8v2q10 0 21 6l651 652q18 20 0 39l-143 143q-8 8 -19 8q-10 0 -18 -8l-492 -492l-284 285q-18 18 -37 0l-144 -143q-8 -9 -8 -19z" />
    <glyph glyph-name="eight" unicode="8" 
d="M0 682q0 141 37 272t103.5 245t159.5 207t207 159.5t245 103.5t272 37q211 0 398.5 -81t325.5 -219t219 -325.5t81 -398.5q0 -141 -37 -272t-103.5 -245t-159.5 -207t-207 -159.5t-245 -103.5t-272 -37t-272 37t-245 103.5t-207 159.5t-159.5 207t-103.5 245t-37 272z
M449 293q0 -31 22.5 -53.5t52.5 -22.5h1006q33 0 55.5 22.5t22.5 53.5v674q0 33 -22.5 55t-55.5 22h-512q-20 25 -38.5 47.5t-25.5 30.5q-10 25 -39 25h-204q-20 0 -33 -17l-72 -86h-82q-31 0 -53 -22.5t-22 -54.5v-674z" />
    <glyph glyph-name="nine" unicode="9" 
d="M0 682q0 141 37 272t103.5 245t159.5 207t207 159.5t245 103.5t272 37q211 0 398.5 -81t325.5 -219t219 -325.5t81 -398.5q0 -141 -37 -272t-103.5 -245t-159.5 -207t-207 -159.5t-245 -103.5t-272 -37t-272 37t-245 103.5t-207 159.5t-159.5 207t-103.5 245t-37 272z
M403 225q0 -33 21.5 -55.5t54.5 -22.5h1080q31 0 53 23t22 55v439q0 31 -22.5 53t-52.5 22h-275q-25 0 -45 -14t-29 -39q-20 -63 -73.5 -101t-118.5 -38q-66 0 -118 38t-75 101q-8 25 -27.5 39t-43.5 14h-275q-33 0 -54.5 -22.5t-21.5 -52.5v-439zM786 1067q-4 -10 2 -23
l216 -299q4 -8 16 -8q10 0 16 11l213 296q6 12 0 23q-4 10 -16 10h-100v271q0 20 -21 20h-186q-20 0 -21 -20v-271h-100q-13 0 -19 -10z" />
    <glyph glyph-name="colon" unicode=":" 
d="M0 682q0 141 37 272t103.5 245t159.5 207t207 159.5t245 103.5t272 37q211 0 398.5 -81t325.5 -219t219 -325.5t81 -398.5q0 -141 -37 -272t-103.5 -245t-159.5 -207t-207 -159.5t-245 -103.5t-272 -37t-272 37t-245 103.5t-207 159.5t-159.5 207t-103.5 245t-37 272z
M422 682q0 -123 47 -232.5t128 -190.5t190.5 -128t232.5 -47q150 0 280 70.5t216 193.5q6 10 4 23q-4 12 -13 18l-149 105q-10 8 -23.5 5t-21.5 -14q-49 -74 -127 -114.5t-166 -40.5q-74 0 -138.5 27.5t-112.5 75.5t-75.5 111.5t-27.5 137.5t27.5 138.5t75.5 112.5
t112.5 75.5t138.5 27.5q61 0 116.5 -20.5t100.5 -54.5l-16 -13l-101 -71q-12 -10 -10 -25q2 -14 16 -21l430 -145q10 -6 23 2q10 10 10 21v452q0 14 -14 23q-10 8 -27 0l-100 -74l-8 -4q-82 80 -189.5 127t-230.5 47t-232.5 -47t-190.5 -128t-128 -190.5t-47 -232.5z" />
    <glyph glyph-name="semicolon" unicode=";" 
d="M0 682q0 141 37 272t103.5 245t159.5 207t207 159.5t245 103.5t272 37q211 0 398.5 -81t325.5 -219t219 -325.5t81 -398.5q0 -141 -37 -272t-103.5 -245t-159.5 -207t-207 -159.5t-245 -103.5t-272 -37t-272 37t-245 103.5t-207 159.5t-159.5 207t-103.5 245t-37 272z
M422 682q0 -123 47 -232.5t128 -190.5t190.5 -128t232.5 -47q150 0 280 70.5t216 193.5q6 10 4 23q-4 12 -13 18l-149 105q-10 8 -23.5 5t-21.5 -14q-49 -74 -127 -114.5t-166 -40.5q-74 0 -138.5 27.5t-112.5 75.5t-75.5 111.5t-27.5 137.5t27.5 138.5t75.5 112.5
t112.5 75.5t138.5 27.5q61 0 116.5 -20.5t100.5 -54.5l-16 -13l-101 -71q-12 -10 -10 -25q2 -14 16 -21l430 -145q10 -6 23 2q10 10 10 21v452q0 14 -14 23q-10 8 -27 0l-100 -74l-8 -4q-82 80 -189.5 127t-230.5 47t-232.5 -47t-190.5 -128t-128 -190.5t-47 -232.5z" />
    <glyph glyph-name="less" unicode="&#x3c;" 
d="M0 682q0 141 37 272t103.5 245t159.5 207t207 159.5t245 103.5t272 37q211 0 398.5 -81t325.5 -219t219 -325.5t81 -398.5q0 -141 -37 -272t-103.5 -245t-159.5 -207t-207 -159.5t-245 -103.5t-272 -37t-272 37t-245 103.5t-207 159.5t-159.5 207t-103.5 245t-37 272z
M410 291q0 -31 22.5 -52.5t52.5 -21.5h1069q33 0 54.5 21.5t21.5 52.5v774q0 31 -21.5 53.5t-54.5 22.5h-1069q-31 0 -53 -22.5t-22 -53.5v-774zM559 367v622h922v-622h-922zM883 465l180 104l180 105l-180 104l-180 105v-209v-209z" />
    <glyph glyph-name="equal" unicode="=" 
d="M1024 1706q211 0 398.5 -81t325.5 -219t219 -325.5t81 -398.5q0 -141 -37 -272t-103.5 -245t-159.5 -207t-207 -159.5t-245 -103.5t-272 -37t-272 37t-245 103.5t-207 159.5t-159.5 207t-103.5 245t-37 272t37 272t103.5 245t159.5 207t207 159.5t245 103.5t272 37z
M1477 264l-9 160h-886l-11 -160h906zM1466 623v143h-884v-143h884zM1477 1102h-906l11 -164h886z" />
    <glyph glyph-name="greater" unicode="&#x3e;" 
d="M1024 1706q211 0 398.5 -81t325.5 -219t219 -325.5t81 -398.5q0 -141 -37 -272t-103.5 -245t-159.5 -207t-207 -159.5t-245 -103.5t-272 -37q-213 0 -399.5 81t-325.5 219t-219 324.5t-80 399.5q0 211 80 398.5t219 325.5t325.5 219t399.5 81zM1423 690l-383 385
l-92 -114l260 -224l-577 21v-152l577 21l-260 -226l92 -112l383 385v16z" />
    <glyph glyph-name="question" unicode="?" 
d="M1024 1706q213 0 399.5 -81t325.5 -219t219 -325.5t80 -398.5q0 -213 -80 -399.5t-219 -324.5t-325.5 -219t-399.5 -81q-141 0 -272 37t-245 103.5t-207 159.5t-159.5 207t-103.5 245t-37 272t37 272t103.5 245t159.5 207t207 159.5t245 103.5t272 37zM999 156
q80 0 110 27.5t30 99.5q0 71 -30 99t-110 28q-77 0 -108 -28t-31 -99q0 -72 31 -99.5t108 -27.5zM1157 696q33 15 65.5 32t58.5 45t42 68t16 99q0 129 -86 198.5t-276 69.5q-62 0 -100.5 -5t-61 -17t-31 -31.5t-8.5 -48.5q0 -19 1 -40.5t4 -39.5t7.5 -30.5t8.5 -12.5
q32 8 73 16.5t82 8.5q80 0 125 -19.5t45 -58.5q0 -33 -34.5 -51.5t-106.5 -51.5q-31 -12 -60.5 -28.5t-52 -38t-37 -49t-14.5 -64.5q0 -49 35 -92t94 -74l197 45q-47 33 -79 57.5t-32 41.5q0 22 37 36.5t88 34.5z" />
    <glyph glyph-name="at" unicode="@" 
d="M0 682q0 141 37 272t103.5 245t159.5 207t207 159.5t245 103.5t272 37q211 0 398.5 -81t325.5 -219t219 -325.5t81 -398.5q0 -141 -37 -272t-103.5 -245t-159.5 -207t-207 -159.5t-245 -103.5t-272 -37t-272 37t-245 103.5t-207 159.5t-159.5 207t-103.5 245t-37 272z
M395 1124q0 -23 17.5 -40t40.5 -17h131l157 -451l-198 -245q-23 -29 -6 -62q14 -35 51 -35h897q25 0 42 17.5t17 42.5t-17.5 41t-41.5 16h-774l104 129h2h647q23 0 39.5 13.5t20.5 35.5l92 545q2 27 -12 49q-20 20 -45 21h-273h-661h-172q-23 0 -40.5 -17.5t-17.5 -42.5z
M522 162q0 -37 26.5 -62.5t61.5 -25.5q37 0 62.5 25.5t25.5 62.5t-25.5 62.5t-62.5 25.5q-35 0 -61.5 -25.5t-26.5 -62.5zM707 1067h215l12 -96h-193zM768 893h174l10 -90h-153zM827 725h134l10 -88h-113zM999 1067h242l-12 -96h-217zM1020 893h201l-11 -90h-180zM1040 725
h160l-10 -88h-139zM1270 637l10 88h152l-17 -88h-145zM1288 803l10 90h162l-16 -90h-156zM1309 971l10 96h170l-16 -96h-164zM1329 162q0 -37 26.5 -62.5t63.5 -25.5q35 0 61.5 25.5t26.5 62.5t-26.5 62.5t-61.5 25.5q-37 0 -63.5 -25.5t-26.5 -62.5z" />
    <glyph glyph-name="A" unicode="A" 
d="M0 682q0 141 37 272t103.5 245t159.5 207t207 159.5t245 103.5t272 37q211 0 398.5 -81t325.5 -219t219 -325.5t81 -398.5q0 -141 -37 -272t-103.5 -245t-159.5 -207t-207 -159.5t-245 -103.5t-272 -37t-272 37t-245 103.5t-207 159.5t-159.5 207t-103.5 245t-37 272z
M412 614q0 -12 9 -21t21 -9l156 -17q6 -29 17.5 -54.5t25.5 -51.5l-98 -121q-18 -23 2 -43l94 -94q10 -10 23 -10q12 0 20 8l121 98q27 -14 52.5 -25.5t53.5 -17.5l17 -156q0 -12 9 -21t21 -9h136q12 0 21 9t9 21l17 156q29 6 54.5 17.5t51.5 25.5l121 -98q8 -8 20 -8t23 10
l94 94q20 20 2 43l-98 121q14 27 25.5 52.5t17.5 53.5l156 17q12 0 21 9t9 21v136q0 12 -9 21t-21 9l-156 17q-6 29 -17.5 54.5t-25.5 51.5l98 121q18 23 -2 43l-94 94q-10 10 -23 10q-12 0 -20 -8l-121 -98q-27 14 -52.5 25.5t-53.5 17.5l-17 156q0 12 -9 21t-21 9h-136
q-12 0 -21 -9t-9 -21l-17 -156q-29 -6 -54.5 -17.5t-51.5 -25.5l-121 98q-8 8 -20 8t-23 -10l-94 -94q-20 -20 -2 -43l98 -121q-14 -27 -25.5 -52.5t-17.5 -53.5l-156 -17q-12 0 -21 -9t-9 -21v-136zM844 682q0 76 52 128t128 52t128 -52t52 -128t-52 -128t-128 -52t-128 52
t-52 128z" />
    <glyph glyph-name="B" unicode="B" 
d="M0 682q0 141 37 272t103.5 245t159.5 207t207 159.5t245 103.5t272 37q211 0 398.5 -81t325.5 -219t219 -325.5t81 -398.5q0 -141 -37 -272t-103.5 -245t-159.5 -207t-207 -159.5t-245 -103.5t-272 -37t-272 37t-245 103.5t-207 159.5t-159.5 207t-103.5 245t-37 272z
M489 825q0 -66 14.5 -119t37 -97t50 -80.5t52.5 -67.5l16 -19q31 -37 87.5 -86t111.5 -93t98 -75.5t48 -33.5q8 -6 20 -7q10 0 20 7q4 2 47.5 33.5t98.5 75.5t111.5 93.5t87.5 85.5l16 19q25 31 52.5 67.5t50 80.5t37 97.5t14.5 118.5q0 61 -25 115.5t-64.5 95.5t-94 64.5
t-115.5 23.5q-72 0 -133.5 -30.5t-102.5 -85.5q-41 55 -102.5 85.5t-133.5 30.5q-61 0 -115.5 -23.5t-94 -64.5t-64.5 -95.5t-25 -115.5z" />
    <glyph glyph-name="C" unicode="C" 
d="M0 682q0 141 37 272t103.5 245t159.5 207t207 159.5t245 103.5t272 37q211 0 398.5 -81t325.5 -219t219 -325.5t81 -398.5q0 -141 -37 -272t-103.5 -245t-159.5 -207t-207 -159.5t-245 -103.5t-272 -37t-272 37t-245 103.5t-207 159.5t-159.5 207t-103.5 245t-37 272z
M467 831q-2 -5 -2 -9q0 -11 10 -21l295 -234l-133 -374q-4 -20 10 -29q7 -7 15 -7q7 0 16 5l346 207l346 -209q4 -2 14 -2t17 6q14 12 8 29l-131 374l295 234q10 9 10 19q0 5 -2 9q-8 18 -25 19h-378l-127 364q-8 18 -27 19q-16 0 -25 -19l-129 -364h-378q-19 -1 -25 -17z
" />
    <glyph glyph-name="D" unicode="D" 
d="M0 682q0 141 37 272t103.5 245t159.5 207t207 159.5t245 103.5t272 37q211 0 398.5 -81t325.5 -219t219 -325.5t81 -398.5q0 -141 -37 -272t-103.5 -245t-159.5 -207t-207 -159.5t-245 -103.5t-272 -37t-272 37t-245 103.5t-207 159.5t-159.5 207t-103.5 245t-37 272z
M469 553q0 -29 27 -29h370v-370q0 -27 29 -27h258q29 0 29 27v370h370q27 0 27 29v258q0 29 -27 29h-370v370q0 27 -29 27h-258q-29 0 -29 -27v-370h-370q-27 0 -27 -29v-258z" />
    <glyph glyph-name="E" unicode="E" 
d="M0 682q0 141 37 272t103.5 245t159.5 207t207 159.5t245 103.5t272 37q211 0 398.5 -81t325.5 -219t219 -325.5t81 -398.5q0 -141 -37 -272t-103.5 -245t-159.5 -207t-207 -159.5t-245 -103.5t-272 -37t-272 37t-245 103.5t-207 159.5t-159.5 207t-103.5 245t-37 272z
M440 545q0 -10 8.5 -19.5t20.5 -9.5h1110q12 0 20.5 9.5t8.5 19.5v274q0 10 -8.5 19.5t-20.5 9.5h-1110q-12 0 -20.5 -9.5t-8.5 -19.5v-274z" />
    <glyph glyph-name="F" unicode="F" 
d="M0 682q0 141 37 272t103.5 245t159.5 207t207 159.5t245 103.5t272 37q211 0 398.5 -81t325.5 -219t219 -325.5t81 -398.5q0 -141 -37 -272t-103.5 -245t-159.5 -207t-207 -159.5t-245 -103.5t-272 -37t-272 37t-245 103.5t-207 159.5t-159.5 207t-103.5 245t-37 272z
M387 504q0 -12 8 -21l383 -383q10 -10 23 -10h2q14 0 20 10l830 828q10 10 10 22.5t-10 20.5l-164 166q-8 8 -23 8q-14 0 -22 -8l-643 -643l-197 198q-23 18 -45 0l-164 -166q-8 -8 -8 -22z" />
    <glyph glyph-name="G" unicode="G" 
d="M0 682q0 141 37 272t103.5 245t159.5 207t207 159.5t245 103.5t272 37q211 0 398.5 -81t325.5 -219t219 -325.5t81 -398.5q0 -141 -37 -272t-103.5 -245t-159.5 -207t-207 -159.5t-245 -103.5t-272 -37t-272 37t-245 103.5t-207 159.5t-159.5 207t-103.5 245t-37 272z
M494 373q0 -14 10 -21l201 -202q12 -8 20 -9q10 0 23 9l286 288l289 -288q6 -8 20 -9q14 0 23 9l201 202q10 8 10 20.5t-10 22.5l-287 287l287 287q10 10 10 22.5t-10 20.5l-201 202q-10 8 -22.5 8.5t-20.5 -8.5l-289 -288l-286 288q-10 8 -22.5 8.5t-20.5 -8.5l-201 -202
q-10 -6 -10 -21q0 -12 10 -22l287 -287l-287 -287q-10 -10 -10 -22z" />
    <glyph glyph-name="H" unicode="H" 
d="M0 682q0 141 37 272t103.5 245t159.5 207t207 159.5t245 103.5t272 37q211 0 398.5 -81t325.5 -219t219 -325.5t81 -398.5q0 -141 -37 -272t-103.5 -245t-159.5 -207t-207 -159.5t-245 -103.5t-272 -37t-272 37t-245 103.5t-207 159.5t-159.5 207t-103.5 245t-37 272z
M512 401q0 -6 6 -8h4q4 0 4 2l295 273q2 2 2 6q0 6 -4 6l-293 168q-6 2 -10 0q-4 0 -4 -6v-441zM512 961q0 -8 6 -9l510 -290l4 -3q4 0 6 3l494 290q4 2 6 2t6 2q8 0 8 9v104q0 16 -10 25.5t-24 9.5h-971q-14 0 -24.5 -9.5t-10.5 -25.5v-108zM526 270q0 -2 4 -6q12 -4 17 -4
h960q4 0 9 4q0 8 -3 10l-335 361q-2 6 -11 2l-112 -66q-20 -12 -43 0l-99 56q-6 4 -10 0l-375 -348q-2 -3 -2 -9zM1255 684q-2 -2 2 -6l279 -301q4 -4 6 -4h4q6 6 6 8v467q0 4 -6 8h-8l-278 -166q-5 0 -5 -6z" />
    <glyph glyph-name="I" unicode="I" 
d="M0 682q0 141 37 272t103.5 245t159.5 207t207 159.5t245 103.5t272 37q211 0 398.5 -81t325.5 -219t219 -325.5t81 -398.5q0 -141 -37 -272t-103.5 -245t-159.5 -207t-207 -159.5t-245 -103.5t-272 -37t-272 37t-245 103.5t-207 159.5t-159.5 207t-103.5 245t-37 272z
M590 172q0 -16 16 -16h836q16 0 16 16v600q0 16 -16 16h-836q-16 0 -16 -16v-600zM590 883q0 -18 16 -19h836q16 0 16 19v176q0 16 -16 16h-82v35q0 47 -27.5 72.5t-75.5 25.5q-49 0 -76.5 -25.5t-27.5 -72.5v-35h-25v35q0 47 -27.5 72.5t-76.5 25.5q-47 0 -74.5 -25.5
t-27.5 -72.5v-35h-25v35q0 47 -28.5 72.5t-75.5 25.5t-76 -25.5t-29 -72.5v-35h-82q-16 0 -16 -16v-176zM752 971v139q0 35 41 35t41 -35v-139q0 -35 -41 -35t-41 35zM770 305l8 60q0 2 4 6q2 2 6 0q37 -14 80 -15q23 0 37.5 9.5t14.5 25.5q0 18 -14.5 28.5t-65.5 14.5
q-8 0 -9 8v60q0 8 9 8q43 4 53 14.5t10 20.5q0 6 -5 14t-34 8t-65 -16h-6q-6 2 -7 6l-8 59q0 8 6 9q39 18 99 18q53 0 84.5 -22.5t31.5 -57.5q0 -55 -57 -82q27 -10 47.5 -29.5t20.5 -56.5q0 -53 -41 -83.5t-109 -30.5q-47 0 -86 16q-6 6 -4 8zM985 971v139q0 35 39 35
q41 0 41 -35v-139q0 -35 -41 -35q-39 0 -39 35zM1069 578q0 6 6 10l103 49q0 2 2 2h37q8 0 8 -10v-334q0 -8 -8 -8h-72q-8 0 -8 8v235l-47 -18h-9q-4 4 -4 8zM1217 971v139q0 35 40 35q39 0 39 -35v-139q0 -35 -39 -35q-40 0 -40 35z" />
    <glyph glyph-name="J" unicode="J" 
d="M0 682q0 141 37 272t103.5 245t159.5 207t207 159.5t245 103.5t272 37q211 0 398.5 -81t325.5 -219t219 -325.5t81 -398.5q0 -141 -37 -272t-103.5 -245t-159.5 -207t-207 -159.5t-245 -103.5t-272 -37t-272 37t-245 103.5t-207 159.5t-159.5 207t-103.5 245t-37 272z
M614 944q0 -10 11 -10h237q10 0 10 10v236q0 10 -10 10h-47q-4 0 -5 -1t-3 -1l-189 -187q-4 -4 -4 -8v-49zM621 186q0 -29 28 -28h670q29 0 29 28v973q0 10 -8.5 19.5t-20.5 9.5h-334q-10 0 -19.5 -9.5t-9.5 -19.5v-268q0 -16 -10 -27.5t-26 -11.5h-271q-12 0 -20 -9t-8 -20
v-637z" />
    <glyph glyph-name="K" unicode="K" 
d="M0 682q0 141 37 272t103.5 245t159.5 207t207 159.5t245 103.5t272 37q211 0 398.5 -81t325.5 -219t219 -325.5t81 -398.5q0 -141 -37 -272t-103.5 -245t-159.5 -207t-207 -159.5t-245 -103.5t-272 -37t-272 37t-245 103.5t-207 159.5t-159.5 207t-103.5 245t-37 272z
M475 319q-1 -8 -1 -16q0 -61 54 -123q2 0 2 -2q2 0 2 -2q61 -54 123 -54l17 1q31 4 55.5 18.5t42.5 30.5t29.5 31.5t15.5 19.5l344 391q47 -20 84 -20q61 0 121.5 27.5t110.5 76.5q47 47 72.5 107.5t25.5 120.5q0 6 -3 10t-16 14l-16 17q-12 14 -27 0q-10 -10 -19 -20.5
t-19 -18.5q-27 -29 -42.5 -43.5t-26.5 -21.5t-21 -7h-25h-19q-16 0 -38.5 11.5t-45.5 33.5q-23 23 -35 46.5t-12 39.5v19v25q0 9 7.5 20.5t21.5 27t43 41.5q8 10 18.5 19.5t20.5 19.5q14 14 0 27l-16 16q-10 12 -14.5 15.5t-10.5 3.5q-59 0 -119.5 -26t-107.5 -73
q-49 -49 -77 -109.5t-28 -121.5q0 -37 21 -84l-392 -344q-4 -4 -19 -15.5t-31.5 -30t-31 -43t-18.5 -55.5zM602 309.5q0 24.5 16 40.5q18 18 43 18.5t41 -18.5q18 -16 18.5 -40.5t-18.5 -43.5q-16 -16 -40.5 -16t-43.5 16q-16 19 -16 43.5z" />
    <glyph glyph-name="L" unicode="L" 
d="M0 682q0 141 37 272t103.5 245t159.5 207t207 159.5t245 103.5t272 37q211 0 398.5 -81t325.5 -219t219 -325.5t81 -398.5q0 -141 -37 -272t-103.5 -245t-159.5 -207t-207 -159.5t-245 -103.5t-272 -37t-272 37t-245 103.5t-207 159.5t-159.5 207t-103.5 245t-37 272z
M258 799q20 -29 46 -51.5t51.5 -39t49 -28.5t37.5 -18q35 -16 78 -26.5t82 -29.5l10 -10q6 -6 15 -12q4 -4 10 -9.5t12 -11.5q4 -4 7 -5t8 -5q0 -10 -4.5 -30.5t-2.5 -61.5q2 -47 20.5 -81t37.5 -63l12 -18q10 -16 16.5 -28.5t1.5 -26.5q-2 -12 -6 -46t-9 -76t-11 -87
t-8 -80q18 -8 31.5 -16.5t28.5 -15.5t36.5 -13t58.5 -8q8 14 17 37q8 16 19 41.5t28 56.5q0 31 9 53.5t19 36.5q12 16 29 29q41 29 73 61.5t38 50.5t11 60.5t5 83.5q0 20 -16.5 36.5t-42 33t-56 38t-61.5 53.5q-31 33 -63.5 46.5t-66.5 15.5t-63.5 -2t-54.5 -4q-4 0 -6 1
t-6 1q-8 12 -16 14q-6 2 -11 6l-2 2v2q0 4 6 11q6 8 2 18q-8 8 -16 8q-10 0 -20 -2q-2 10 -7 21q-4 10 -7 23.5t-5 31.5q29 -25 50.5 -36t35.5 -15q16 -6 27 -4q23 6 25 38q1 11 1 24q0 27 -4 65q6 8 8 16q8 35 21.5 46t13.5 13q6 0 6 5q8 6 35 10q10 2 19.5 4t19.5 6
q16 8 8 23q-2 0 -2 1t-2 1q8 4 15.5 9t11.5 9q10 10 18 20t15.5 21.5t13.5 21.5q-10 16 -24.5 29.5t-24.5 22.5q-14 8 -27 14q-14 20 -39 12q-12 0 -20 6q-4 2 -8 7q-18 12 -25 14q-10 4 -27 8q-29 18 -54 43t-40 53q-10 23 -38.5 30t-61.5 3q-115 -88 -191.5 -212.5
t-99.5 -274.5zM778 1407q55 -29 126 -52.5t140 -23.5q10 0 20.5 1t20.5 3q16 2 32 10.5t32 18.5q10 6 20.5 11t20.5 9q27 10 55.5 7.5t59.5 -9.5q16 -4 26 -6q-72 33 -150.5 50.5t-164.5 17.5q-125 0 -238 -37zM1114 623q10 -53 42 -82t75 -29h4q4 0 8 1t10 1q45 0 62.5 -5
t19.5 -7q-10 -27 -8 -42.5t10 -31.5l6 -12q10 -23 9.5 -45.5t-4.5 -46.5q0 -14 -2 -23q-2 -29 8 -55l20 -53q4 -10 8 -18.5t9 -18.5q0 -2 1 -3t1 -6q6 -16 15 -35.5t28 -23.5q4 -1 8 -1q38 0 88 52q41 47 49 103q2 20 16 45q12 25 19 51q4 12 0 27q27 47 26 79q0 20 3 31
l7 7l7 7q16 12 29 29q4 12 6 23q2 10 3 20t-3 21q-2 4 -11 8l-34 12q8 18 20 26.5t23 12.5q12 4 26 0l66 21v14q0 180 -74 331.5t-201 258.5q-35 -4 -73.5 -9.5t-75.5 -16.5t-66.5 -26.5t-44.5 -39.5q-25 -39 -34 -66t-12 -46.5t-3 -31.5t-6 -24t-15.5 -19.5t-15.5 -15.5
t-6 -22.5t12 -39.5q10 -18 11 -37q14 0 28 2q12 2 25.5 5.5t23.5 13.5l144 -12q16 20 39 28q10 4 22 6q10 -2 25 -10q12 -8 27.5 -24.5t35.5 -51.5l-59 -41q-20 6 -49 25q-14 8 -31 21q-16 8 -46 9t-61.5 -2t-64.5 -8.5t-55 -7.5q-2 -8 -8 -16q-4 -6 -11.5 -12t-17.5 -9
q-2 -6 -2 -20q0 -6 -2 -12q-32 -46 -32 -100q0 -16 3 -33z" />
    <glyph glyph-name="M" unicode="M" 
d="M0 682q0 141 37 272t103.5 245t159.5 207t207 159.5t245 103.5t272 37q211 0 398.5 -81t325.5 -219t219 -325.5t81 -398.5q0 -141 -37 -272t-103.5 -245t-159.5 -207t-207 -159.5t-245 -103.5t-272 -37t-272 37t-245 103.5t-207 159.5t-159.5 207t-103.5 245t-37 272z
M537 276q0 -16 10 -26t24 -10h271q16 0 26.5 10t10.5 26v404h311v-404q0 -16 10 -26t27 -10h270q16 0 26.5 10t10.5 26v658q0 18 -14 29l-471 364q-10 8 -21.5 8t-23.5 -8l-455 -364q-12 -10 -12 -29v-658z" />
    <glyph glyph-name="N" unicode="N" 
d="M0 682q0 141 37 272t103.5 245t159.5 207t207 159.5t245 103.5t272 37q211 0 398.5 -81t325.5 -219t219 -325.5t81 -398.5q0 -141 -37 -272t-103.5 -245t-159.5 -207t-207 -159.5t-245 -103.5t-272 -37t-272 37t-245 103.5t-207 159.5t-159.5 207t-103.5 245t-37 272z
M459 283q0 -33 33 -33h393q33 0 33 33v471q0 33 -33 32h-125q0 164 211 195q12 0 22 14q8 10 4 25l-32 149q-4 12 -14 21q-7 7 -16 6h-5q-471 -25 -471 -506v-407zM1065 283q0 -14 10 -23.5t25 -9.5h391q14 0 24.5 9t10.5 24v471q0 14 -10.5 23t-24.5 9h-125q4 164 211 195
q14 0 22 14q7 7 8 17q0 4 -1 8l-33 149q-4 12 -13 21q-7 7 -17 6h-5q-473 -25 -473 -506v-407z" />
    <glyph glyph-name="O" unicode="O" 
d="M0 682q0 141 37 272t103.5 245t159.5 207t207 159.5t245 103.5t272 37q211 0 398.5 -81t325.5 -219t219 -325.5t81 -398.5q0 -141 -37 -272t-103.5 -245t-159.5 -207t-207 -159.5t-245 -103.5t-272 -37t-272 37t-245 103.5t-207 159.5t-159.5 207t-103.5 245t-37 272z
M336 416q0 -16 10 -28.5t25 -12.5h221v164q0 70 57 96l88 41q25 25 40.5 61.5t15.5 77.5q0 74 -45.5 127t-108.5 53q-66 0 -111 -53t-45 -127q0 -53 23.5 -95t60.5 -65l-209 -98q-23 -10 -22 -37v-104zM653 324q0 -16 8.5 -26.5t20.5 -10.5h696q12 0 20.5 10t8.5 27v215
q0 25 -18 34l-297 140l24 16q47 29 72.5 81t25.5 112q0 45 -14 83.5t-38.5 68.5t-58.5 47.5t-73 17.5t-72.5 -17.5t-58.5 -47.5t-39 -68.5t-14 -83.5q0 -61 26.5 -113.5t73.5 -81.5l25 -14l-299 -140q-18 -10 -19 -34v-215zM1268 815q0 -41 15 -77t40 -60l88 -43
q57 -27 57 -96v-164h222q16 0 25 12t9 29v104q0 27 -20 37l-209 98q37 23 59.5 65t22.5 95q0 74 -45 127t-109 53q-66 0 -110.5 -53t-44.5 -127z" />
    <glyph glyph-name="P" unicode="P" 
d="M0 682q0 141 37 272t103.5 245t159.5 207t207 159.5t245 103.5t272 37q211 0 398.5 -81t325.5 -219t219 -325.5t81 -398.5q0 -141 -37 -272t-103.5 -245t-159.5 -207t-207 -159.5t-245 -103.5t-272 -37t-272 37t-245 103.5t-207 159.5t-159.5 207t-103.5 245t-37 272z
M446 434q0 -29 21.5 -50.5t50.5 -21.5h350v-108h-82q-20 0 -20 -21v-45q0 -20 20 -20h482q20 0 20 20v45q0 20 -20 21h-82v108h360q29 0 50.5 22t21.5 50v627q0 31 -21.5 51.5t-50.5 20.5h-1028q-29 0 -50.5 -20.5t-21.5 -51.5v-627zM590 506v483h885v-483h-885z" />
    <glyph glyph-name="Q" unicode="Q" 
d="M0 682q0 141 37 272t103.5 245t159.5 207t207 159.5t245 103.5t272 37q211 0 398.5 -81t325.5 -219t219 -325.5t81 -398.5q0 -141 -37 -272t-103.5 -245t-159.5 -207t-207 -159.5t-245 -103.5t-272 -37t-272 37t-245 103.5t-207 159.5t-159.5 207t-103.5 245t-37 272z
M397 315q0 -14 9 -20l43 -47q10 -10 22 -10h1102q12 0 22 10l45 45q10 10 11 22v72q0 12 -9.5 21.5t-21.5 9.5h-1192q-12 0 -21.5 -9.5t-9.5 -21.5v-72zM526 535q0 -25 18.5 -43.5t43.5 -18.5h872q25 0 42.5 18.5t17.5 43.5v534q0 25 -17.5 42t-42.5 17h-872
q-25 0 -43.5 -17t-18.5 -42v-534zM647 594v414h752v-414h-752zM909 293v69q0 16 6 17h218q4 0 4 -17v-69q0 -16 -4 -17h-218q-6 1 -6 17z" />
    <glyph glyph-name="R" unicode="R" 
d="M0 682q0 141 37 272t103.5 245t159.5 207t207 159.5t245 103.5t272 37q211 0 398.5 -81t325.5 -219t219 -325.5t81 -398.5q0 -141 -37 -272t-103.5 -245t-159.5 -207t-207 -159.5t-245 -103.5t-272 -37t-272 37t-245 103.5t-207 159.5t-159.5 207t-103.5 245t-37 272z
M446 1004q0 -47 27 -127t93.5 -191t195.5 -240q111 -111 207 -174t173 -95t130 -40t76 -8q10 0 16 1t8 1q16 2 34.5 11.5t31.5 21.5l164 164q18 18 17 38q0 6 -1 11q-2 12 -10.5 22.5t-18.5 18.5l-241 141l-2 2q-12 6 -33 6q-33 0 -51 -20l-72 -72q-6 -6 -16 -6
q-25 4 -60 23q-29 16 -73 45.5t-101 87.5q-41 43 -76 86q-29 35 -53.5 75.5t-26.5 71.5q0 10 7 16l61 62q16 16 20.5 39.5t-6.5 44.5l-133 250q-16 33 -49 33q-20 0 -41 -17l-164 -166q-12 -10 -21 -29.5t-12 -35.5v-51z" />
    <glyph glyph-name="S" unicode="S" 
d="M0 682q0 141 37 272t103.5 245t159.5 207t207 159.5t245 103.5t272 37q211 0 398.5 -81t325.5 -219t219 -325.5t81 -398.5q0 -141 -37 -272t-103.5 -245t-159.5 -207t-207 -159.5t-245 -103.5t-272 -37t-272 37t-245 103.5t-207 159.5t-159.5 207t-103.5 245t-37 272z
M356 614q0 -106 52 -188q12 -20 36 -20h1170q23 0 35 18q43 61 43 141q0 51 -19.5 97.5t-53.5 79t-77 49.5q-31 12 -66 11q-13 0 -26 -1q-18 70 -56 129t-90.5 101t-115 65.5t-131.5 23.5q-96 0 -180 -45t-144 -129q-31 8 -65 8q-66 0 -122.5 -26.5t-98 -72.5t-66.5 -108.5
t-25 -132.5z" />
    <glyph glyph-name="T" unicode="T" 
d="M0 682q0 141 37 272t103.5 245t159.5 207t207 159.5t245 103.5t272 37q211 0 398.5 -81t325.5 -219t219 -325.5t81 -398.5q0 -141 -37 -272t-103.5 -245t-159.5 -207t-207 -159.5t-245 -103.5t-272 -37t-272 37t-245 103.5t-207 159.5t-159.5 207t-103.5 245t-37 272z
M360 489q0 -27 18.5 -45t45.5 -18h1216q27 0 45.5 18.5t18.5 44.5v385q0 27 -18.5 45.5t-45.5 18.5h-1216q-27 0 -45.5 -18.5t-18.5 -45.5v-385z" />
    <glyph glyph-name="U" unicode="U" 
d="M0 682q0 141 37 272t103.5 245t159.5 207t207 159.5t245 103.5t272 37q211 0 398.5 -81t325.5 -219t219 -325.5t81 -398.5q0 -141 -37 -272t-103.5 -245t-159.5 -207t-207 -159.5t-245 -103.5t-272 -37t-272 37t-245 103.5t-207 159.5t-159.5 207t-103.5 245t-37 272z
M473 524q0 -16 10.5 -26.5t26.5 -10.5h500v-186q0 -25 20 -35q8 -3 17 -3l24 7l555 398q16 10 16 30t-16 31l-555 395q-12 7 -24 8l-17 -4q-20 -14 -20 -34v-187h-500q-16 0 -26.5 -11t-10.5 -28v-344z" />
    <glyph glyph-name="V" unicode="V" 
d="M0 682q0 141 37 272t103.5 245t159.5 207t207 159.5t245 103.5t272 37q211 0 398.5 -81t325.5 -219t219 -325.5t81 -398.5q0 -141 -37 -272t-103.5 -245t-159.5 -207t-207 -159.5t-245 -103.5t-272 -37t-272 37t-245 103.5t-207 159.5t-159.5 207t-103.5 245t-37 272z
M403 696q0 -23 15 -30l557 -396q12 -8 23 -8q8 0 16 4q20 10 20 35v186h500q16 0 27.5 10.5t11.5 26.5v344q0 39 -39 39h-500v187q0 20 -20 34q-9 4 -17 5q-11 0 -22 -9l-557 -397q-15 -8 -15 -31z" />
    <glyph glyph-name="W" unicode="W" 
d="M0 682q0 141 37 272t103.5 245t159.5 207t207 159.5t245 103.5t272 37q211 0 398.5 -81t325.5 -219t219 -325.5t81 -398.5q0 -141 -37 -272t-103.5 -245t-159.5 -207t-207 -159.5t-245 -103.5t-272 -37t-272 37t-245 103.5t-207 159.5t-159.5 207t-103.5 245t-37 272z
M594 709q10 -23 35 -23h184v-498q0 -16 11.5 -27t27.5 -11h344q16 0 27.5 11t11.5 27v498h186q23 0 33 23q5 9 5 18q0 11 -7 21l-397 555q-12 16 -33 16q-18 0 -31 -16l-395 -555q-7 -10 -7 -21q0 -9 5 -18z" />
    <glyph glyph-name="X" unicode="X" 
d="M0 682q0 141 37 272t103.5 245t159.5 207t207 159.5t245 103.5t272 37q211 0 398.5 -81t325.5 -219t219 -325.5t81 -398.5q0 -141 -37 -272t-103.5 -245t-159.5 -207t-207 -159.5t-245 -103.5t-272 -37t-272 37t-245 103.5t-207 159.5t-159.5 207t-103.5 245t-37 272z
M602 686q-5 -10 -5 -19q0 -11 7 -20l397 -557q12 -16 33 -16q18 0 31 16l395 557q7 9 7 20q0 9 -5 19q-10 20 -35 21h-184v499q0 16 -11 27.5t-28 11.5h-344q-16 0 -27.5 -11t-11.5 -28v-499h-186q-23 -1 -33 -21z" />
    <glyph glyph-name="Y" unicode="Y" 
d="M0 682q0 141 37 272t103.5 245t159.5 207t207 159.5t245 103.5t272 37q211 0 398.5 -81t325.5 -219t219 -325.5t81 -398.5q0 -141 -37 -272t-103.5 -245t-159.5 -207t-207 -159.5t-245 -103.5t-272 -37t-272 37t-245 103.5t-207 159.5t-159.5 207t-103.5 245t-37 272z
M516 1077q0 -16 11.5 -27.5t27.5 -11.5h938q39 0 39 39v111q0 39 -39 39h-315v49q0 16 -11.5 27.5t-27.5 11.5h-228q-16 0 -27.5 -11.5t-11.5 -27.5v-49h-317q-16 0 -27.5 -11.5t-11.5 -27.5v-111zM567 123q0 -16 11.5 -27.5t27.5 -11.5h836q39 0 39 39v807q0 16 -11.5 26.5
t-27.5 10.5h-836q-16 0 -27.5 -10.5t-11.5 -26.5v-807z" />
    <glyph glyph-name="Z" unicode="Z" 
d="M0 682q0 141 37 272t103.5 245t159.5 207t207 159.5t245 103.5t272 37q211 0 398.5 -81t325.5 -219t219 -325.5t81 -398.5q0 -141 -37 -272t-103.5 -245t-159.5 -207t-207 -159.5t-245 -103.5t-272 -37t-272 37t-245 103.5t-207 159.5t-159.5 207t-103.5 245t-37 272z
M537 152q0 -12 9 -22.5t23 -10.5h543v106h-469v750h215q12 0 12 12v213h398v-289h106v363q0 12 -9 22.5t-24 10.5h-481h-2h-61h-4h-9v-7l-243 -239q-4 -4 -4 -6v-4v-64v-835zM987 379q0 -16 17 -17h227v-225q0 -18 16 -18h158q16 0 16 18v225h226q18 0 18 17v158
q0 16 -18 16h-226v225q0 18 -16 19h-158q-16 0 -16 -19v-225h-227q-16 0 -17 -16v-158z" />
    <glyph glyph-name="bracketleft" unicode="[" 
d="M0 682q0 141 37 272t103.5 245t159.5 207t207 159.5t245 103.5t272 37q211 0 398.5 -81t325.5 -219t219 -325.5t81 -398.5q0 -141 -37 -272t-103.5 -245t-159.5 -207t-207 -159.5t-245 -103.5t-272 -37t-272 37t-245 103.5t-207 159.5t-159.5 207t-103.5 245t-37 272z
M580 141q0 -33 32 -32h234h319h236q33 0 33 34v320q0 10 -4.5 15t-14.5 -5l-16 -16q-10 -10 -27.5 -25.5t-46.5 -44.5v-170h-160h-319h-160v762h221q12 0 13 12v217h405v-290l-319 -320q-2 -2 -7 -10l-79 -244q-4 -12 6 -22q6 -8 16 -9q2 0 3 1t3 1l246 80q4 0 10 6l443 443
q8 8 8 16t-8 17l-164 165q-18 14 -33 0l-16 -16v258q0 33 -33 33h-492l-2 2h-63q-2 0 -2 -2h-8v-4l-252 -246q0 -2 -2 -4v-4v-68v-850zM1012 408l45 135l92 -92z" />
    <glyph glyph-name="backslash" unicode="\" 
d="M0 682q0 141 37 272t103.5 245t159.5 207t207 159.5t245 103.5t272 37q211 0 398.5 -81t325.5 -219t219 -325.5t81 -398.5q0 -141 -37 -272t-103.5 -245t-159.5 -207t-207 -159.5t-245 -103.5t-272 -37t-272 37t-245 103.5t-207 159.5t-159.5 207t-103.5 245t-37 272z
M537 268q0 -16 10 -27.5t26 -11.5h920q16 0 27.5 11.5t11.5 27.5v553q0 16 -11.5 26.5t-27.5 10.5h-53h-74v121v2q0 70 -26.5 131.5t-72.5 107.5t-108.5 72.5t-132.5 26.5t-131 -26.5t-107.5 -72.5t-73 -107.5t-26.5 -131.5v-123h-61h-54q-16 0 -26 -10t-10 -27v-553z
M887 858v123q0 57 41 98t98 41q59 0 99 -41t42 -98v-123h-280z" />
    <glyph glyph-name="bracketright" unicode="]" 
d="M0 682q0 141 37 272t103.5 245t159.5 207t207 159.5t245 103.5t272 37q211 0 398.5 -81t325.5 -219t219 -325.5t81 -398.5q0 -141 -37 -272t-103.5 -245t-159.5 -207t-207 -159.5t-245 -103.5t-272 -37t-272 37t-245 103.5t-207 159.5t-159.5 207t-103.5 245t-37 272z
M524 256q0 -16 11.5 -27.5t27.5 -11.5h920q16 0 26.5 11.5t10.5 27.5v553q0 16 -10.5 26.5t-26.5 10.5h-53h-189h-344v158q0 57 40 98t99 41t99.5 -41t40.5 -98q0 -29 28 -29h144h2q27 0 26 29v6q-2 70 -29.5 130t-73.5 105t-106.5 71.5t-130.5 26.5t-132 -26.5t-108 -72.5
t-73 -108.5t-27 -131.5v-158h-80h-53q-16 0 -27.5 -10.5t-11.5 -26.5v-553z" />
    <glyph glyph-name="asciicircum" unicode="^" 
d="M0 682q0 141 37 272t103.5 245t159.5 207t207 159.5t245 103.5t272 37q211 0 398.5 -81t325.5 -219t219 -325.5t81 -398.5q0 -141 -37 -272t-103.5 -245t-159.5 -207t-207 -159.5t-245 -103.5t-272 -37t-272 37t-245 103.5t-207 159.5t-159.5 207t-103.5 245t-37 272z
M526 799q0 -4 2 -6q2 -23 4.5 -44.5t6.5 -43.5q4 -29 28.5 -82.5t59.5 -117t75.5 -132t77.5 -127t64.5 -100.5t40.5 -54q16 -16 37.5 -34.5t42 -33t37 -22.5t22.5 -8t21.5 8t36 21.5t42 32t39.5 36.5q12 12 41 54t67 101.5t78 127t73.5 132t58 117t28.5 81.5q4 23 6.5 44
t4.5 44v6q0 4 1 6t1 6v2q0 102 -39 192.5t-106.5 158t-158 107.5t-192.5 40h-2h-2q-102 0 -192.5 -40t-158 -107.5t-106.5 -158t-39 -192.5v-2v-12zM821 817q0 84 58.5 142.5t142.5 58.5t142.5 -58.5t58.5 -142.5t-58.5 -142.5t-142.5 -58.5t-142.5 58.5t-58.5 142.5z" />
    <glyph glyph-name="underscore" unicode="_" 
d="M1022 1706q213 0 400.5 -81t327.5 -219t221 -325.5t81 -398.5q0 -213 -81 -399.5t-221 -324.5t-327.5 -219t-400.5 -81q-211 0 -397.5 81t-326.5 219t-221 324.5t-81 399.5q0 211 81 398.5t221 325.5t326.5 219t397.5 81zM1538 365l-305 282q16 35 26.5 73t10.5 81
q0 69 -26.5 129.5t-73 105.5t-108 72t-130.5 27q-70 0 -131.5 -27t-107.5 -72t-72.5 -105.5t-26.5 -129.5q0 -70 26.5 -132.5t72.5 -108.5t107.5 -72.5t131.5 -26.5q43 0 83 11t75 30l282 -307zM1102 801q0 -72 -49 -120t-121 -48q-70 0 -119 48t-49 120q0 69 49 117.5
t119 48.5q72 0 121 -48.5t49 -117.5z" />
    <glyph glyph-name="grave" unicode="`" 
d="M0 682q0 141 37 272t103.5 245t159.5 207t207 159.5t245 103.5t272 37q211 0 398.5 -81t325.5 -219t219 -325.5t81 -398.5q0 -141 -37 -272t-103.5 -245t-159.5 -207t-207 -159.5t-245 -103.5t-272 -37t-272 37t-245 103.5t-207 159.5t-159.5 207t-103.5 245t-37 272z
M453 502q4 -23 20 -35t39 -10q4 2 6 2t6 2l154 65q10 4 15 15.5t1 21.5q-10 23 -30 19l-166 -21q-23 -4 -36 -20t-9 -39zM498 1077.5q-4 -24.5 12 -45.5q4 -6 10 -10l154 -117q10 -10 24.5 -7t22.5 13q18 23 0 41l-117 154q-14 20 -38.5 23.5t-45.5 -13.5q-18 -14 -22 -38.5
zM711 705q0 -2 2 -5q0 -31 6 -57q10 -55 44 -108.5t64 -116.5q43 -88 64.5 -135t54.5 -54q2 0 15.5 -1t29 -1t28.5 1t17 1t17.5 -1t29 -1t28.5 1t17 1q31 6 52.5 53.5t64.5 135.5q33 63 65.5 116.5t43.5 108.5q4 14 5 27.5t3 29.5v13q0 68 -25.5 127t-69.5 103t-103.5 69.5
t-127.5 25.5t-127 -25.5t-103 -69.5t-69.5 -103.5t-25.5 -126.5v-8zM903 37q0 -39 45 -39h88h90q18 0 31.5 11t13.5 28q0 16 -13 27.5t-32 11.5h-90h-88q-20 0 -32.5 -11.5t-12.5 -27.5zM903 158q0 -16 12.5 -28.5t32.5 -12.5h88h90q18 0 31.5 12t13.5 29q0 16 -13 27.5
t-32 11.5h-90h-88q-20 0 -32.5 -11.5t-12.5 -27.5zM979 1296l25 -190q4 -25 32 -29q29 4 33 29l27 190v17q-4 23 -20.5 36t-39.5 15q-23 -2 -39 -15.5t-18 -35.5q-4 -11 0 -17zM1352 911q10 -10 23.5 -13t23.5 7l153 117q6 4 11 10q16 20 13 45t-24 39q-20 16 -43.5 13
t-40.5 -23l-116 -154q-18 -18 0 -41zM1382 544.5q4 -12.5 17 -16.5l157 -65q8 -4 15 -4q23 -4 39 9t20 36t-9 40t-36 21l-170 23q-25 0 -33 -19q-4 -12 0 -24.5z" />
    <glyph glyph-name="a" unicode="a" 
d="M0 682q0 141 37 272t103.5 245t159.5 207t207 159.5t245 103.5t272 37q211 0 398.5 -81t325.5 -219t219 -325.5t81 -398.5q0 -141 -37 -272t-103.5 -245t-159.5 -207t-207 -159.5t-245 -103.5t-272 -37t-272 37t-245 103.5t-207 159.5t-159.5 207t-103.5 245t-37 272z
M412 614q0 -12 9 -21t21 -9l156 -17q6 -29 17.5 -54.5t25.5 -51.5l-98 -121q-18 -23 2 -43l94 -94q10 -10 23 -10q12 0 20 8l121 98q27 -14 52.5 -25.5t53.5 -17.5l17 -156q0 -12 9 -21t21 -9h136q12 0 21 9t9 21l17 156q29 6 54.5 17.5t51.5 25.5l121 -98q8 -8 20 -8t23 10
l94 94q20 20 2 43l-98 121q14 27 25.5 52.5t17.5 53.5l156 17q12 0 21 9t9 21v136q0 12 -9 21t-21 9l-156 17q-6 29 -17.5 54.5t-25.5 51.5l98 121q18 23 -2 43l-94 94q-10 10 -23 10q-12 0 -20 -8l-121 -98q-27 14 -52.5 25.5t-53.5 17.5l-17 156q0 12 -9 21t-21 9h-136
q-12 0 -21 -9t-9 -21l-17 -156q-29 -6 -54.5 -17.5t-51.5 -25.5l-121 98q-8 8 -20 8t-23 -10l-94 -94q-20 -20 -2 -43l98 -121q-14 -27 -25.5 -52.5t-17.5 -53.5l-156 -17q-12 0 -21 -9t-9 -21v-136zM844 682q0 76 52 128t128 52t128 -52t52 -128t-52 -128t-128 -52t-128 52
t-52 128z" />
    <glyph glyph-name="b" unicode="b" 
d="M0 682q0 141 37 272t103.5 245t159.5 207t207 159.5t245 103.5t272 37q211 0 398.5 -81t325.5 -219t219 -325.5t81 -398.5q0 -141 -37 -272t-103.5 -245t-159.5 -207t-207 -159.5t-245 -103.5t-272 -37t-272 37t-245 103.5t-207 159.5t-159.5 207t-103.5 245t-37 272z
M489 825q0 -66 14.5 -119t37 -97t50 -80.5t52.5 -67.5l16 -19q31 -37 87.5 -86t111.5 -93t98 -75.5t48 -33.5q8 -6 20 -7q10 0 20 7q4 2 47.5 33.5t98.5 75.5t111.5 93.5t87.5 85.5l16 19q25 31 52.5 67.5t50 80.5t37 97.5t14.5 118.5q0 61 -25 115.5t-64.5 95.5t-94 64.5
t-115.5 23.5q-72 0 -133.5 -30.5t-102.5 -85.5q-41 55 -102.5 85.5t-133.5 30.5q-61 0 -115.5 -23.5t-94 -64.5t-64.5 -95.5t-25 -115.5z" />
    <glyph glyph-name="c" unicode="c" 
d="M0 682q0 141 37 272t103.5 245t159.5 207t207 159.5t245 103.5t272 37q211 0 398.5 -81t325.5 -219t219 -325.5t81 -398.5q0 -141 -37 -272t-103.5 -245t-159.5 -207t-207 -159.5t-245 -103.5t-272 -37t-272 37t-245 103.5t-207 159.5t-159.5 207t-103.5 245t-37 272z
M467 831q-2 -5 -2 -9q0 -11 10 -21l295 -234l-133 -374q-4 -20 10 -29q7 -7 15 -7q7 0 16 5l346 207l346 -209q4 -2 14 -2t17 6q14 12 8 29l-131 374l295 234q10 9 10 19q0 5 -2 9q-8 18 -25 19h-378l-127 364q-8 18 -27 19q-16 0 -25 -19l-129 -364h-378q-19 -1 -25 -17z
" />
    <glyph glyph-name="d" unicode="d" 
d="M0 682q0 141 37 272t103.5 245t159.5 207t207 159.5t245 103.5t272 37q211 0 398.5 -81t325.5 -219t219 -325.5t81 -398.5q0 -141 -37 -272t-103.5 -245t-159.5 -207t-207 -159.5t-245 -103.5t-272 -37t-272 37t-245 103.5t-207 159.5t-159.5 207t-103.5 245t-37 272z
M469 553q0 -29 27 -29h370v-370q0 -27 29 -27h258q29 0 29 27v370h370q27 0 27 29v258q0 29 -27 29h-370v370q0 27 -29 27h-258q-29 0 -29 -27v-370h-370q-27 0 -27 -29v-258z" />
    <glyph glyph-name="e" unicode="e" 
d="M0 682q0 141 37 272t103.5 245t159.5 207t207 159.5t245 103.5t272 37q211 0 398.5 -81t325.5 -219t219 -325.5t81 -398.5q0 -141 -37 -272t-103.5 -245t-159.5 -207t-207 -159.5t-245 -103.5t-272 -37t-272 37t-245 103.5t-207 159.5t-159.5 207t-103.5 245t-37 272z
M440 545q0 -10 8.5 -19.5t20.5 -9.5h1110q12 0 20.5 9.5t8.5 19.5v274q0 10 -8.5 19.5t-20.5 9.5h-1110q-12 0 -20.5 -9.5t-8.5 -19.5v-274z" />
    <glyph glyph-name="f" unicode="f" 
d="M0 682q0 141 37 272t103.5 245t159.5 207t207 159.5t245 103.5t272 37q211 0 398.5 -81t325.5 -219t219 -325.5t81 -398.5q0 -141 -37 -272t-103.5 -245t-159.5 -207t-207 -159.5t-245 -103.5t-272 -37t-272 37t-245 103.5t-207 159.5t-159.5 207t-103.5 245t-37 272z
M387 504q0 -12 8 -21l383 -383q10 -10 23 -10h2q14 0 20 10l830 828q10 10 10 22.5t-10 20.5l-164 166q-8 8 -23 8q-14 0 -22 -8l-643 -643l-197 198q-23 18 -45 0l-164 -166q-8 -8 -8 -22z" />
    <glyph glyph-name="g" unicode="g" 
d="M0 682q0 141 37 272t103.5 245t159.5 207t207 159.5t245 103.5t272 37q211 0 398.5 -81t325.5 -219t219 -325.5t81 -398.5q0 -141 -37 -272t-103.5 -245t-159.5 -207t-207 -159.5t-245 -103.5t-272 -37t-272 37t-245 103.5t-207 159.5t-159.5 207t-103.5 245t-37 272z
M494 373q0 -14 10 -21l201 -202q12 -8 20 -9q10 0 23 9l286 288l289 -288q6 -8 20 -9q14 0 23 9l201 202q10 8 10 20.5t-10 22.5l-287 287l287 287q10 10 10 22.5t-10 20.5l-201 202q-10 8 -22.5 8.5t-20.5 -8.5l-289 -288l-286 288q-10 8 -22.5 8.5t-20.5 -8.5l-201 -202
q-10 -6 -10 -21q0 -12 10 -22l287 -287l-287 -287q-10 -10 -10 -22z" />
    <glyph glyph-name="h" unicode="h" 
d="M0 682q0 141 37 272t103.5 245t159.5 207t207 159.5t245 103.5t272 37q211 0 398.5 -81t325.5 -219t219 -325.5t81 -398.5q0 -141 -37 -272t-103.5 -245t-159.5 -207t-207 -159.5t-245 -103.5t-272 -37t-272 37t-245 103.5t-207 159.5t-159.5 207t-103.5 245t-37 272z
M512 401q0 -6 6 -8h4q4 0 4 2l295 273q2 2 2 6q0 6 -4 6l-293 168q-6 2 -10 0q-4 0 -4 -6v-441zM512 961q0 -8 6 -9l510 -290l4 -3q4 0 6 3l494 290q4 2 6 2t6 2q8 0 8 9v104q0 16 -10 25.5t-24 9.5h-971q-14 0 -24.5 -9.5t-10.5 -25.5v-108zM526 270q0 -2 4 -6q12 -4 17 -4
h960q4 0 9 4q0 8 -3 10l-335 361q-2 6 -11 2l-112 -66q-20 -12 -43 0l-99 56q-6 4 -10 0l-375 -348q-2 -3 -2 -9zM1255 684q-2 -2 2 -6l279 -301q4 -4 6 -4h4q6 6 6 8v467q0 4 -6 8h-8l-278 -166q-5 0 -5 -6z" />
    <glyph glyph-name="i" unicode="i" 
d="M0 682q0 141 37 272t103.5 245t159.5 207t207 159.5t245 103.5t272 37q211 0 398.5 -81t325.5 -219t219 -325.5t81 -398.5q0 -141 -37 -272t-103.5 -245t-159.5 -207t-207 -159.5t-245 -103.5t-272 -37t-272 37t-245 103.5t-207 159.5t-159.5 207t-103.5 245t-37 272z
M590 172q0 -16 16 -16h836q16 0 16 16v600q0 16 -16 16h-836q-16 0 -16 -16v-600zM590 883q0 -18 16 -19h836q16 0 16 19v176q0 16 -16 16h-82v35q0 47 -27.5 72.5t-75.5 25.5q-49 0 -76.5 -25.5t-27.5 -72.5v-35h-25v35q0 47 -27.5 72.5t-76.5 25.5q-47 0 -74.5 -25.5
t-27.5 -72.5v-35h-25v35q0 47 -28.5 72.5t-75.5 25.5t-76 -25.5t-29 -72.5v-35h-82q-16 0 -16 -16v-176zM752 971v139q0 35 41 35t41 -35v-139q0 -35 -41 -35t-41 35zM770 305l8 60q0 2 4 6q2 2 6 0q37 -14 80 -15q23 0 37.5 9.5t14.5 25.5q0 18 -14.5 28.5t-65.5 14.5
q-8 0 -9 8v60q0 8 9 8q43 4 53 14.5t10 20.5q0 6 -5 14t-34 8t-65 -16h-6q-6 2 -7 6l-8 59q0 8 6 9q39 18 99 18q53 0 84.5 -22.5t31.5 -57.5q0 -55 -57 -82q27 -10 47.5 -29.5t20.5 -56.5q0 -53 -41 -83.5t-109 -30.5q-47 0 -86 16q-6 6 -4 8zM985 971v139q0 35 39 35
q41 0 41 -35v-139q0 -35 -41 -35q-39 0 -39 35zM1069 578q0 6 6 10l103 49q0 2 2 2h37q8 0 8 -10v-334q0 -8 -8 -8h-72q-8 0 -8 8v235l-47 -18h-9q-4 4 -4 8zM1217 971v139q0 35 40 35q39 0 39 -35v-139q0 -35 -39 -35q-40 0 -40 35z" />
    <glyph glyph-name="j" unicode="j" 
d="M0 682q0 141 37 272t103.5 245t159.5 207t207 159.5t245 103.5t272 37q211 0 398.5 -81t325.5 -219t219 -325.5t81 -398.5q0 -141 -37 -272t-103.5 -245t-159.5 -207t-207 -159.5t-245 -103.5t-272 -37t-272 37t-245 103.5t-207 159.5t-159.5 207t-103.5 245t-37 272z
M614 944q0 -10 11 -10h237q10 0 10 10v236q0 10 -10 10h-47q-4 0 -5 -1t-3 -1l-189 -187q-4 -4 -4 -8v-49zM621 186q0 -29 28 -28h670q29 0 29 28v973q0 10 -8.5 19.5t-20.5 9.5h-334q-10 0 -19.5 -9.5t-9.5 -19.5v-268q0 -16 -10 -27.5t-26 -11.5h-271q-12 0 -20 -9t-8 -20
v-637z" />
    <glyph glyph-name="k" unicode="k" 
d="M0 682q0 141 37 272t103.5 245t159.5 207t207 159.5t245 103.5t272 37q211 0 398.5 -81t325.5 -219t219 -325.5t81 -398.5q0 -141 -37 -272t-103.5 -245t-159.5 -207t-207 -159.5t-245 -103.5t-272 -37t-272 37t-245 103.5t-207 159.5t-159.5 207t-103.5 245t-37 272z
M475 319q-1 -8 -1 -16q0 -61 54 -123q2 0 2 -2q2 0 2 -2q61 -54 123 -54l17 1q31 4 55.5 18.5t42.5 30.5t29.5 31.5t15.5 19.5l344 391q47 -20 84 -20q61 0 121.5 27.5t110.5 76.5q47 47 72.5 107.5t25.5 120.5q0 6 -3 10t-16 14l-16 17q-12 14 -27 0q-10 -10 -19 -20.5
t-19 -18.5q-27 -29 -42.5 -43.5t-26.5 -21.5t-21 -7h-25h-19q-16 0 -38.5 11.5t-45.5 33.5q-23 23 -35 46.5t-12 39.5v19v25q0 9 7.5 20.5t21.5 27t43 41.5q8 10 18.5 19.5t20.5 19.5q14 14 0 27l-16 16q-10 12 -14.5 15.5t-10.5 3.5q-59 0 -119.5 -26t-107.5 -73
q-49 -49 -77 -109.5t-28 -121.5q0 -37 21 -84l-392 -344q-4 -4 -19 -15.5t-31.5 -30t-31 -43t-18.5 -55.5zM602 309.5q0 24.5 16 40.5q18 18 43 18.5t41 -18.5q18 -16 18.5 -40.5t-18.5 -43.5q-16 -16 -40.5 -16t-43.5 16q-16 19 -16 43.5z" />
    <glyph glyph-name="l" unicode="l" 
d="M0 682q0 141 37 272t103.5 245t159.5 207t207 159.5t245 103.5t272 37q211 0 398.5 -81t325.5 -219t219 -325.5t81 -398.5q0 -141 -37 -272t-103.5 -245t-159.5 -207t-207 -159.5t-245 -103.5t-272 -37t-272 37t-245 103.5t-207 159.5t-159.5 207t-103.5 245t-37 272z
M258 799q20 -29 46 -51.5t51.5 -39t49 -28.5t37.5 -18q35 -16 78 -26.5t82 -29.5l10 -10q6 -6 15 -12q4 -4 10 -9.5t12 -11.5q4 -4 7 -5t8 -5q0 -10 -4.5 -30.5t-2.5 -61.5q2 -47 20.5 -81t37.5 -63l12 -18q10 -16 16.5 -28.5t1.5 -26.5q-2 -12 -6 -46t-9 -76t-11 -87
t-8 -80q18 -8 31.5 -16.5t28.5 -15.5t36.5 -13t58.5 -8q8 14 17 37q8 16 19 41.5t28 56.5q0 31 9 53.5t19 36.5q12 16 29 29q41 29 73 61.5t38 50.5t11 60.5t5 83.5q0 20 -16.5 36.5t-42 33t-56 38t-61.5 53.5q-31 33 -63.5 46.5t-66.5 15.5t-63.5 -2t-54.5 -4q-4 0 -6 1
t-6 1q-8 12 -16 14q-6 2 -11 6l-2 2v2q0 4 6 11q6 8 2 18q-8 8 -16 8q-10 0 -20 -2q-2 10 -7 21q-4 10 -7 23.5t-5 31.5q29 -25 50.5 -36t35.5 -15q16 -6 27 -4q23 6 25 38q1 11 1 24q0 27 -4 65q6 8 8 16q8 35 21.5 46t13.5 13q6 0 6 5q8 6 35 10q10 2 19.5 4t19.5 6
q16 8 8 23q-2 0 -2 1t-2 1q8 4 15.5 9t11.5 9q10 10 18 20t15.5 21.5t13.5 21.5q-10 16 -24.5 29.5t-24.5 22.5q-14 8 -27 14q-14 20 -39 12q-12 0 -20 6q-4 2 -8 7q-18 12 -25 14q-10 4 -27 8q-29 18 -54 43t-40 53q-10 23 -38.5 30t-61.5 3q-115 -88 -191.5 -212.5
t-99.5 -274.5zM778 1407q55 -29 126 -52.5t140 -23.5q10 0 20.5 1t20.5 3q16 2 32 10.5t32 18.5q10 6 20.5 11t20.5 9q27 10 55.5 7.5t59.5 -9.5q16 -4 26 -6q-72 33 -150.5 50.5t-164.5 17.5q-125 0 -238 -37zM1114 623q10 -53 42 -82t75 -29h4q4 0 8 1t10 1q45 0 62.5 -5
t19.5 -7q-10 -27 -8 -42.5t10 -31.5l6 -12q10 -23 9.5 -45.5t-4.5 -46.5q0 -14 -2 -23q-2 -29 8 -55l20 -53q4 -10 8 -18.5t9 -18.5q0 -2 1 -3t1 -6q6 -16 15 -35.5t28 -23.5q4 -1 8 -1q38 0 88 52q41 47 49 103q2 20 16 45q12 25 19 51q4 12 0 27q27 47 26 79q0 20 3 31
l7 7l7 7q16 12 29 29q4 12 6 23q2 10 3 20t-3 21q-2 4 -11 8l-34 12q8 18 20 26.5t23 12.5q12 4 26 0l66 21v14q0 180 -74 331.5t-201 258.5q-35 -4 -73.5 -9.5t-75.5 -16.5t-66.5 -26.5t-44.5 -39.5q-25 -39 -34 -66t-12 -46.5t-3 -31.5t-6 -24t-15.5 -19.5t-15.5 -15.5
t-6 -22.5t12 -39.5q10 -18 11 -37q14 0 28 2q12 2 25.5 5.5t23.5 13.5l144 -12q16 20 39 28q10 4 22 6q10 -2 25 -10q12 -8 27.5 -24.5t35.5 -51.5l-59 -41q-20 6 -49 25q-14 8 -31 21q-16 8 -46 9t-61.5 -2t-64.5 -8.5t-55 -7.5q-2 -8 -8 -16q-4 -6 -11.5 -12t-17.5 -9
q-2 -6 -2 -20q0 -6 -2 -12q-32 -46 -32 -100q0 -16 3 -33z" />
    <glyph glyph-name="m" unicode="m" 
d="M0 682q0 141 37 272t103.5 245t159.5 207t207 159.5t245 103.5t272 37q211 0 398.5 -81t325.5 -219t219 -325.5t81 -398.5q0 -141 -37 -272t-103.5 -245t-159.5 -207t-207 -159.5t-245 -103.5t-272 -37t-272 37t-245 103.5t-207 159.5t-159.5 207t-103.5 245t-37 272z
M537 276q0 -16 10 -26t24 -10h271q16 0 26.5 10t10.5 26v404h311v-404q0 -16 10 -26t27 -10h270q16 0 26.5 10t10.5 26v658q0 18 -14 29l-471 364q-10 8 -21.5 8t-23.5 -8l-455 -364q-12 -10 -12 -29v-658z" />
    <glyph glyph-name="n" unicode="n" 
d="M0 682q0 141 37 272t103.5 245t159.5 207t207 159.5t245 103.5t272 37q211 0 398.5 -81t325.5 -219t219 -325.5t81 -398.5q0 -141 -37 -272t-103.5 -245t-159.5 -207t-207 -159.5t-245 -103.5t-272 -37t-272 37t-245 103.5t-207 159.5t-159.5 207t-103.5 245t-37 272z
M459 283q0 -33 33 -33h393q33 0 33 33v471q0 33 -33 32h-125q0 164 211 195q12 0 22 14q8 10 4 25l-32 149q-4 12 -14 21q-7 7 -16 6h-5q-471 -25 -471 -506v-407zM1065 283q0 -14 10 -23.5t25 -9.5h391q14 0 24.5 9t10.5 24v471q0 14 -10.5 23t-24.5 9h-125q4 164 211 195
q14 0 22 14q7 7 8 17q0 4 -1 8l-33 149q-4 12 -13 21q-7 7 -17 6h-5q-473 -25 -473 -506v-407z" />
    <glyph glyph-name="o" unicode="o" 
d="M0 682q0 141 37 272t103.5 245t159.5 207t207 159.5t245 103.5t272 37q211 0 398.5 -81t325.5 -219t219 -325.5t81 -398.5q0 -141 -37 -272t-103.5 -245t-159.5 -207t-207 -159.5t-245 -103.5t-272 -37t-272 37t-245 103.5t-207 159.5t-159.5 207t-103.5 245t-37 272z
M336 416q0 -16 10 -28.5t25 -12.5h221v164q0 70 57 96l88 41q25 25 40.5 61.5t15.5 77.5q0 74 -45.5 127t-108.5 53q-66 0 -111 -53t-45 -127q0 -53 23.5 -95t60.5 -65l-209 -98q-23 -10 -22 -37v-104zM653 324q0 -16 8.5 -26.5t20.5 -10.5h696q12 0 20.5 10t8.5 27v215
q0 25 -18 34l-297 140l24 16q47 29 72.5 81t25.5 112q0 45 -14 83.5t-38.5 68.5t-58.5 47.5t-73 17.5t-72.5 -17.5t-58.5 -47.5t-39 -68.5t-14 -83.5q0 -61 26.5 -113.5t73.5 -81.5l25 -14l-299 -140q-18 -10 -19 -34v-215zM1268 815q0 -41 15 -77t40 -60l88 -43
q57 -27 57 -96v-164h222q16 0 25 12t9 29v104q0 27 -20 37l-209 98q37 23 59.5 65t22.5 95q0 74 -45 127t-109 53q-66 0 -110.5 -53t-44.5 -127z" />
    <glyph glyph-name="p" unicode="p" 
d="M0 682q0 141 37 272t103.5 245t159.5 207t207 159.5t245 103.5t272 37q211 0 398.5 -81t325.5 -219t219 -325.5t81 -398.5q0 -141 -37 -272t-103.5 -245t-159.5 -207t-207 -159.5t-245 -103.5t-272 -37t-272 37t-245 103.5t-207 159.5t-159.5 207t-103.5 245t-37 272z
M446 434q0 -29 21.5 -50.5t50.5 -21.5h350v-108h-82q-20 0 -20 -21v-45q0 -20 20 -20h482q20 0 20 20v45q0 20 -20 21h-82v108h360q29 0 50.5 22t21.5 50v627q0 31 -21.5 51.5t-50.5 20.5h-1028q-29 0 -50.5 -20.5t-21.5 -51.5v-627zM590 506v483h885v-483h-885z" />
    <glyph glyph-name="q" unicode="q" 
d="M0 682q0 141 37 272t103.5 245t159.5 207t207 159.5t245 103.5t272 37q211 0 398.5 -81t325.5 -219t219 -325.5t81 -398.5q0 -141 -37 -272t-103.5 -245t-159.5 -207t-207 -159.5t-245 -103.5t-272 -37t-272 37t-245 103.5t-207 159.5t-159.5 207t-103.5 245t-37 272z
M397 315q0 -14 9 -20l43 -47q10 -10 22 -10h1102q12 0 22 10l45 45q10 10 11 22v72q0 12 -9.5 21.5t-21.5 9.5h-1192q-12 0 -21.5 -9.5t-9.5 -21.5v-72zM526 535q0 -25 18.5 -43.5t43.5 -18.5h872q25 0 42.5 18.5t17.5 43.5v534q0 25 -17.5 42t-42.5 17h-872
q-25 0 -43.5 -17t-18.5 -42v-534zM647 594v414h752v-414h-752zM909 293v69q0 16 6 17h218q4 0 4 -17v-69q0 -16 -4 -17h-218q-6 1 -6 17z" />
    <glyph glyph-name="r" unicode="r" 
d="M0 682q0 141 37 272t103.5 245t159.5 207t207 159.5t245 103.5t272 37q211 0 398.5 -81t325.5 -219t219 -325.5t81 -398.5q0 -141 -37 -272t-103.5 -245t-159.5 -207t-207 -159.5t-245 -103.5t-272 -37t-272 37t-245 103.5t-207 159.5t-159.5 207t-103.5 245t-37 272z
M446 1004q0 -47 27 -127t93.5 -191t195.5 -240q111 -111 207 -174t173 -95t130 -40t76 -8q10 0 16 1t8 1q16 2 34.5 11.5t31.5 21.5l164 164q18 18 17 38q0 6 -1 11q-2 12 -10.5 22.5t-18.5 18.5l-241 141l-2 2q-12 6 -33 6q-33 0 -51 -20l-72 -72q-6 -6 -16 -6
q-25 4 -60 23q-29 16 -73 45.5t-101 87.5q-41 43 -76 86q-29 35 -53.5 75.5t-26.5 71.5q0 10 7 16l61 62q16 16 20.5 39.5t-6.5 44.5l-133 250q-16 33 -49 33q-20 0 -41 -17l-164 -166q-12 -10 -21 -29.5t-12 -35.5v-51z" />
    <glyph glyph-name="s" unicode="s" 
d="M0 682q0 141 37 272t103.5 245t159.5 207t207 159.5t245 103.5t272 37q211 0 398.5 -81t325.5 -219t219 -325.5t81 -398.5q0 -141 -37 -272t-103.5 -245t-159.5 -207t-207 -159.5t-245 -103.5t-272 -37t-272 37t-245 103.5t-207 159.5t-159.5 207t-103.5 245t-37 272z
M356 614q0 -106 52 -188q12 -20 36 -20h1170q23 0 35 18q43 61 43 141q0 51 -19.5 97.5t-53.5 79t-77 49.5q-31 12 -66 11q-13 0 -26 -1q-18 70 -56 129t-90.5 101t-115 65.5t-131.5 23.5q-96 0 -180 -45t-144 -129q-31 8 -65 8q-66 0 -122.5 -26.5t-98 -72.5t-66.5 -108.5
t-25 -132.5z" />
    <glyph glyph-name="t" unicode="t" 
d="M0 682q0 141 37 272t103.5 245t159.5 207t207 159.5t245 103.5t272 37q211 0 398.5 -81t325.5 -219t219 -325.5t81 -398.5q0 -141 -37 -272t-103.5 -245t-159.5 -207t-207 -159.5t-245 -103.5t-272 -37t-272 37t-245 103.5t-207 159.5t-159.5 207t-103.5 245t-37 272z
M360 489q0 -27 18.5 -45t45.5 -18h1216q27 0 45.5 18.5t18.5 44.5v385q0 27 -18.5 45.5t-45.5 18.5h-1216q-27 0 -45.5 -18.5t-18.5 -45.5v-385z" />
    <glyph glyph-name="u" unicode="u" 
d="M0 682q0 141 37 272t103.5 245t159.5 207t207 159.5t245 103.5t272 37q211 0 398.5 -81t325.5 -219t219 -325.5t81 -398.5q0 -141 -37 -272t-103.5 -245t-159.5 -207t-207 -159.5t-245 -103.5t-272 -37t-272 37t-245 103.5t-207 159.5t-159.5 207t-103.5 245t-37 272z
M473 524q0 -16 10.5 -26.5t26.5 -10.5h500v-186q0 -25 20 -35q8 -3 17 -3l24 7l555 398q16 10 16 30t-16 31l-555 395q-12 7 -24 8l-17 -4q-20 -14 -20 -34v-187h-500q-16 0 -26.5 -11t-10.5 -28v-344z" />
    <glyph glyph-name="v" unicode="v" 
d="M0 682q0 141 37 272t103.5 245t159.5 207t207 159.5t245 103.5t272 37q211 0 398.5 -81t325.5 -219t219 -325.5t81 -398.5q0 -141 -37 -272t-103.5 -245t-159.5 -207t-207 -159.5t-245 -103.5t-272 -37t-272 37t-245 103.5t-207 159.5t-159.5 207t-103.5 245t-37 272z
M403 696q0 -23 15 -30l557 -396q12 -8 23 -8q8 0 16 4q20 10 20 35v186h500q16 0 27.5 10.5t11.5 26.5v344q0 39 -39 39h-500v187q0 20 -20 34q-9 4 -17 5q-11 0 -22 -9l-557 -397q-15 -8 -15 -31z" />
    <glyph glyph-name="w" unicode="w" 
d="M0 682q0 141 37 272t103.5 245t159.5 207t207 159.5t245 103.5t272 37q211 0 398.5 -81t325.5 -219t219 -325.5t81 -398.5q0 -141 -37 -272t-103.5 -245t-159.5 -207t-207 -159.5t-245 -103.5t-272 -37t-272 37t-245 103.5t-207 159.5t-159.5 207t-103.5 245t-37 272z
M594 709q10 -23 35 -23h184v-498q0 -16 11.5 -27t27.5 -11h344q16 0 27.5 11t11.5 27v498h186q23 0 33 23q5 9 5 18q0 11 -7 21l-397 555q-12 16 -33 16q-18 0 -31 -16l-395 -555q-7 -10 -7 -21q0 -9 5 -18z" />
    <glyph glyph-name="x" unicode="x" 
d="M0 682q0 141 37 272t103.5 245t159.5 207t207 159.5t245 103.5t272 37q211 0 398.5 -81t325.5 -219t219 -325.5t81 -398.5q0 -141 -37 -272t-103.5 -245t-159.5 -207t-207 -159.5t-245 -103.5t-272 -37t-272 37t-245 103.5t-207 159.5t-159.5 207t-103.5 245t-37 272z
M602 686q-5 -10 -5 -19q0 -11 7 -20l397 -557q12 -16 33 -16q18 0 31 16l395 557q7 9 7 20q0 9 -5 19q-10 20 -35 21h-184v499q0 16 -11 27.5t-28 11.5h-344q-16 0 -27.5 -11t-11.5 -28v-499h-186q-23 -1 -33 -21z" />
    <glyph glyph-name="y" unicode="y" 
d="M0 682q0 141 37 272t103.5 245t159.5 207t207 159.5t245 103.5t272 37q211 0 398.5 -81t325.5 -219t219 -325.5t81 -398.5q0 -141 -37 -272t-103.5 -245t-159.5 -207t-207 -159.5t-245 -103.5t-272 -37t-272 37t-245 103.5t-207 159.5t-159.5 207t-103.5 245t-37 272z
M516 1077q0 -16 11.5 -27.5t27.5 -11.5h938q39 0 39 39v111q0 39 -39 39h-315v49q0 16 -11.5 27.5t-27.5 11.5h-228q-16 0 -27.5 -11.5t-11.5 -27.5v-49h-317q-16 0 -27.5 -11.5t-11.5 -27.5v-111zM567 123q0 -16 11.5 -27.5t27.5 -11.5h836q39 0 39 39v807q0 16 -11.5 26.5
t-27.5 10.5h-836q-16 0 -27.5 -10.5t-11.5 -26.5v-807z" />
    <glyph glyph-name="z" unicode="z" 
d="M0 682q0 141 37 272t103.5 245t159.5 207t207 159.5t245 103.5t272 37q211 0 398.5 -81t325.5 -219t219 -325.5t81 -398.5q0 -141 -37 -272t-103.5 -245t-159.5 -207t-207 -159.5t-245 -103.5t-272 -37t-272 37t-245 103.5t-207 159.5t-159.5 207t-103.5 245t-37 272z
M537 152q0 -12 9 -22.5t23 -10.5h543v106h-469v750h215q12 0 12 12v213h398v-289h106v363q0 12 -9 22.5t-24 10.5h-481h-2h-61h-4h-9v-7l-243 -239q-4 -4 -4 -6v-4v-64v-835zM987 379q0 -16 17 -17h227v-225q0 -18 16 -18h158q16 0 16 18v225h226q18 0 18 17v158
q0 16 -18 16h-226v225q0 18 -16 19h-158q-16 0 -16 -19v-225h-227q-16 0 -17 -16v-158z" />
    <glyph glyph-name="braceleft" unicode="{" 
d="M0 682q0 141 37 272t103.5 245t159.5 207t207 159.5t245 103.5t272 37q211 0 398.5 -81t325.5 -219t219 -325.5t81 -398.5q0 -141 -37 -272t-103.5 -245t-159.5 -207t-207 -159.5t-245 -103.5t-272 -37t-272 37t-245 103.5t-207 159.5t-159.5 207t-103.5 245t-37 272z
M580 141q0 -33 32 -32h234h319h236q33 0 33 34v320q0 10 -4.5 15t-14.5 -5l-16 -16q-10 -10 -27.5 -25.5t-46.5 -44.5v-170h-160h-319h-160v762h221q12 0 13 12v217h405v-290l-319 -320q-2 -2 -7 -10l-79 -244q-4 -12 6 -22q6 -8 16 -9q2 0 3 1t3 1l246 80q4 0 10 6l443 443
q8 8 8 16t-8 17l-164 165q-18 14 -33 0l-16 -16v258q0 33 -33 33h-492l-2 2h-63q-2 0 -2 -2h-8v-4l-252 -246q0 -2 -2 -4v-4v-68v-850zM1012 408l45 135l92 -92z" />
    <glyph glyph-name="bar" unicode="|" 
d="M0 682q0 141 37 272t103.5 245t159.5 207t207 159.5t245 103.5t272 37q211 0 398.5 -81t325.5 -219t219 -325.5t81 -398.5q0 -141 -37 -272t-103.5 -245t-159.5 -207t-207 -159.5t-245 -103.5t-272 -37t-272 37t-245 103.5t-207 159.5t-159.5 207t-103.5 245t-37 272z
M537 268q0 -16 10 -27.5t26 -11.5h920q16 0 27.5 11.5t11.5 27.5v553q0 16 -11.5 26.5t-27.5 10.5h-53h-74v121v2q0 70 -26.5 131.5t-72.5 107.5t-108.5 72.5t-132.5 26.5t-131 -26.5t-107.5 -72.5t-73 -107.5t-26.5 -131.5v-123h-61h-54q-16 0 -26 -10t-10 -27v-553z
M887 858v123q0 57 41 98t98 41q59 0 99 -41t42 -98v-123h-280z" />
    <glyph glyph-name="braceright" unicode="}" 
d="M0 682q0 141 37 272t103.5 245t159.5 207t207 159.5t245 103.5t272 37q211 0 398.5 -81t325.5 -219t219 -325.5t81 -398.5q0 -141 -37 -272t-103.5 -245t-159.5 -207t-207 -159.5t-245 -103.5t-272 -37t-272 37t-245 103.5t-207 159.5t-159.5 207t-103.5 245t-37 272z
M524 256q0 -16 11.5 -27.5t27.5 -11.5h920q16 0 26.5 11.5t10.5 27.5v553q0 16 -10.5 26.5t-26.5 10.5h-53h-189h-344v158q0 57 40 98t99 41t99.5 -41t40.5 -98q0 -29 28 -29h144h2q27 0 26 29v6q-2 70 -28.5 130t-72.5 105t-107.5 71.5t-131.5 26.5t-132 -26.5t-108 -72.5
t-73 -108.5t-27 -131.5v-158h-80h-53q-16 0 -27.5 -10.5t-11.5 -26.5v-553z" />
    <glyph glyph-name="asciitilde" unicode="~" 
d="M0 682q0 141 37 272t103.5 245t159.5 207t207 159.5t245 103.5t272 37q211 0 398.5 -81t325.5 -219t219 -325.5t81 -398.5q0 -141 -37 -272t-103.5 -245t-159.5 -207t-207 -159.5t-245 -103.5t-272 -37t-272 37t-245 103.5t-207 159.5t-159.5 207t-103.5 245t-37 272z
M453 502q4 -23 20 -35t39 -10q4 2 6 2t6 2l154 65q10 4 15 15.5t1 21.5q-10 23 -30 19l-166 -21q-23 -4 -36 -20t-9 -39zM498 1077.5q-4 -24.5 12 -45.5q4 -6 10 -10l154 -117q10 -10 24.5 -7t22.5 13q18 23 0 41l-117 154q-14 20 -38.5 23.5t-45.5 -13.5q-18 -14 -22 -38.5
zM711 705q0 -2 2 -5q0 -31 6 -57q10 -55 44 -108.5t64 -116.5q43 -88 64.5 -135t54.5 -54q2 0 15.5 -1t29 -1t28.5 1t17 1t17.5 -1t29 -1t28.5 1t17 1q31 6 52.5 53.5t64.5 135.5q33 63 65.5 116.5t43.5 108.5q4 14 5 27.5t3 29.5v13q0 68 -25.5 127t-69.5 103t-103.5 69.5
t-127.5 25.5t-127 -25.5t-103 -69.5t-69.5 -103.5t-25.5 -126.5v-8zM903 37q0 -39 45 -39h88h90q18 0 31.5 11t13.5 28q0 16 -13 27.5t-32 11.5h-90h-88q-20 0 -32.5 -11.5t-12.5 -27.5zM903 158q0 -16 12.5 -28.5t32.5 -12.5h88h90q18 0 31.5 12t13.5 29q0 16 -13 27.5
t-32 11.5h-90h-88q-20 0 -32.5 -11.5t-12.5 -27.5zM979 1296l25 -190q4 -25 32 -29q29 4 33 29l27 190v17q-4 23 -20.5 36t-39.5 15q-23 -2 -39 -15.5t-18 -35.5q-4 -11 0 -17zM1352 911q10 -10 23.5 -13t23.5 7l153 117q6 4 11 10q16 20 13 45t-24 39q-20 16 -43.5 13
t-40.5 -23l-116 -154q-18 -18 0 -41zM1382 544.5q4 -12.5 17 -16.5l157 -65q8 -4 15 -4q23 -4 39 9t20 36t-9 40t-36 21l-170 23q-25 0 -33 -19q-4 -12 0 -24.5z" />
    <glyph glyph-name="ordfeminine" unicode="&#xaa;" 
d="M0 682q0 141 37 272t103.5 245t159.5 207t207 159.5t245 103.5t272 37q211 0 398.5 -81t325.5 -219t219 -325.5t81 -398.5q0 -141 -37 -272t-103.5 -245t-159.5 -207t-207 -159.5t-245 -103.5t-272 -37t-272 37t-245 103.5t-207 159.5t-159.5 207t-103.5 245t-37 272z
M412 614q0 -12 9 -21t21 -9l156 -17q6 -29 17.5 -54.5t25.5 -51.5l-98 -121q-18 -23 2 -43l94 -94q10 -10 23 -10q12 0 20 8l121 98q27 -14 52.5 -25.5t53.5 -17.5l17 -156q0 -12 9 -21t21 -9h136q12 0 21 9t9 21l17 156q29 6 54.5 17.5t51.5 25.5l121 -98q8 -8 20 -8t23 10
l94 94q20 20 2 43l-98 121q14 27 25.5 52.5t17.5 53.5l156 17q12 0 21 9t9 21v136q0 12 -9 21t-21 9l-156 17q-6 29 -17.5 54.5t-25.5 51.5l98 121q18 23 -2 43l-94 94q-10 10 -23 10q-12 0 -20 -8l-121 -98q-27 14 -52.5 25.5t-53.5 17.5l-17 156q0 12 -9 21t-21 9h-136
q-12 0 -21 -9t-9 -21l-17 -156q-29 -6 -54.5 -17.5t-51.5 -25.5l-121 98q-8 8 -20 8t-23 -10l-94 -94q-20 -20 -2 -43l98 -121q-14 -27 -25.5 -52.5t-17.5 -53.5l-156 -17q-12 0 -21 -9t-9 -21v-136zM844 682q0 76 52 128t128 52t128 -52t52 -128t-52 -128t-128 -52t-128 52
t-52 128z" />
    <glyph glyph-name="uni00B2" unicode="&#xb2;" 
d="M0 682q0 141 37 272t103.5 245t159.5 207t207 159.5t245 103.5t272 37q211 0 398.5 -81t325.5 -219t219 -325.5t81 -398.5q0 -141 -37 -272t-103.5 -245t-159.5 -207t-207 -159.5t-245 -103.5t-272 -37t-272 37t-245 103.5t-207 159.5t-159.5 207t-103.5 245t-37 272z
M395 1124q0 -23 17.5 -40t40.5 -17h131l157 -451l-198 -245q-23 -29 -6 -62q14 -35 51 -35h897q25 0 42 17.5t17 42.5t-17.5 41t-41.5 16h-774l104 129h2h647q23 0 39.5 13.5t20.5 35.5l92 545q2 27 -12 49q-20 20 -45 21h-273h-661h-172q-23 0 -40.5 -17.5t-17.5 -42.5z
M522 162q0 -37 26.5 -62.5t61.5 -25.5q37 0 62.5 25.5t25.5 62.5t-25.5 62.5t-62.5 25.5q-35 0 -61.5 -25.5t-26.5 -62.5zM707 1067h215l12 -96h-193zM768 893h174l10 -90h-153zM827 725h134l10 -88h-113zM999 1067h242l-12 -96h-217zM1020 893h201l-11 -90h-180zM1040 725
h160l-10 -88h-139zM1270 637l10 88h152l-17 -88h-145zM1288 803l10 90h162l-16 -90h-156zM1309 971l10 96h170l-16 -96h-164zM1329 162q0 -37 26.5 -62.5t63.5 -25.5q35 0 61.5 25.5t26.5 62.5t-26.5 62.5t-61.5 25.5q-37 0 -63.5 -25.5t-26.5 -62.5z" />
    <glyph glyph-name="uni00B3" unicode="&#xb3;" 
d="M0 682q0 141 37 272t103.5 245t159.5 207t207 159.5t245 103.5t272 37q211 0 398.5 -81t325.5 -219t219 -325.5t81 -398.5q0 -141 -37 -272t-103.5 -245t-159.5 -207t-207 -159.5t-245 -103.5t-272 -37t-272 37t-245 103.5t-207 159.5t-159.5 207t-103.5 245t-37 272z
M543 248q0 -20 13 -33.5t32 -13.5h776q18 0 31.5 13t13.5 34v22h68q12 0 20 9.5t8 21.5v84q0 12 -8 21.5t-20 9.5h-68v82h68q29 0 28 28v86q0 29 -28 29h-68v82h68q12 0 20 9t8 22v84q0 12 -8 21t-20 9h-68v82h68q29 0 28 29v86q0 29 -28 29h-68v22q0 20 -13.5 33.5
t-31.5 13.5h-776q-18 0 -31.5 -13t-13.5 -34v-868zM748 483v125q0 23 16 29l158 74q-29 16 -46.5 48t-17.5 72q0 55 35 95.5t82 40.5q49 0 83 -40t34 -96q0 -41 -16.5 -72.5t-45.5 -47.5l158 -74q16 -6 16 -29v-125q0 -12 -8 -21t-18 -9h-404q-10 0 -18 9t-8 21z" />
    <glyph glyph-name="uni00B9" unicode="&#xb9;" 
d="M0 682q0 141 37 272t103.5 245t159.5 207t207 159.5t245 103.5t272 37q211 0 398.5 -81t325.5 -219t219 -325.5t81 -398.5q0 -141 -37 -272t-103.5 -245t-159.5 -207t-207 -159.5t-245 -103.5t-272 -37t-272 37t-245 103.5t-207 159.5t-159.5 207t-103.5 245t-37 272z
M483 150q6 -18 29 -19h1024q23 0 29 19q6 18 -13 32q-2 2 -24.5 13.5t-74.5 26t-136 27.5t-207 17v64h283q20 0 34.5 14t14.5 35v455q0 20 -14.5 33.5t-34.5 13.5h-47v-58h-64v385q0 6 -13.5 19.5t-41.5 29.5v-182q0 -4 -6.5 -15t-20.5 -11q-16 0 -21 11t-5 15v201
q-27 8 -66 12v-213q0 -4 -6 -15t-21 -11q-16 0 -21 11t-5 15v217q-10 2 -31 2h-18q-8 0 -19 -2v-217q0 -4 -5 -15t-21 -11q-14 0 -19.5 11t-5.5 15v213q-20 -4 -35.5 -6t-32.5 -6v-201q0 -4 -6 -15t-20 -11t-20.5 11t-6.5 15v180q-29 -14 -43 -27.5t-14 -19.5v-385h-64v58
h-47q-20 0 -33.5 -13.5t-13.5 -33.5v-455q0 -20 13.5 -34.5t33.5 -14.5h283v-64q-121 -4 -203 -17t-133 -27.5t-73.5 -26t-24.5 -13.5q-19 -12 -13 -32zM694 426v309h64v-180q0 -6 14 -19.5t47 -26.5t84 -23.5t123 -10.5t121 10.5t78.5 23.5t43 26.5t13.5 19.5v180h64v-309
h-652z" />
    <glyph glyph-name="ordmasculine" unicode="&#xba;" 
d="M0 682q0 141 37 272t103.5 245t159.5 207t207 159.5t245 103.5t272 37q211 0 398.5 -81t325.5 -219t219 -325.5t81 -398.5q0 -141 -37 -272t-103.5 -245t-159.5 -207t-207 -159.5t-245 -103.5t-272 -37t-272 37t-245 103.5t-207 159.5t-159.5 207t-103.5 245t-37 272z
M336 416q0 -16 10 -28.5t25 -12.5h221v164q0 70 57 96l88 41q25 25 40.5 61.5t15.5 77.5q0 74 -45.5 127t-108.5 53q-66 0 -111 -53t-45 -127q0 -53 23.5 -95t60.5 -65l-209 -98q-23 -10 -22 -37v-104zM653 324q0 -16 8.5 -26.5t20.5 -10.5h696q12 0 20.5 10t8.5 27v215
q0 25 -18 34l-297 140l24 16q47 29 72.5 81t25.5 112q0 45 -14 83.5t-38.5 68.5t-58.5 47.5t-73 17.5t-72.5 -17.5t-58.5 -47.5t-39 -68.5t-14 -83.5q0 -61 26.5 -113.5t73.5 -81.5l25 -14l-299 -140q-18 -10 -19 -34v-215zM1268 815q0 -41 15 -77t40 -60l88 -43
q57 -27 57 -96v-164h222q16 0 25 12t9 29v104q0 27 -20 37l-209 98q37 23 59.5 65t22.5 95q0 74 -45 127t-109 53q-66 0 -110.5 -53t-44.5 -127z" />
    <glyph glyph-name="Agrave" unicode="&#xc0;" 
d="M0 2853q0 141 37 272t103.5 245t159.5 207t207 159.5t245 103.5t272 37q211 0 398.5 -81t325.5 -219t219 -325.5t81 -398.5q0 -141 -37 -272t-103.5 -245t-159.5 -207t-207 -159.5t-245 -103.5t-272 -37t-272 37t-245 103.5t-207 159.5t-159.5 207t-103.5 245t-37 272z
M453 2673q4 -23 20 -35t39 -10q4 2 6 2t6 2l154 65q10 4 15 15.5t1 21.5q-10 23 -30 19l-166 -21q-23 -4 -36 -20t-9 -39zM498 3248.5q-4 -24.5 12 -45.5q4 -6 10 -10l154 -117q10 -10 24.5 -7t22.5 13q18 23 0 41l-117 154q-14 20 -38.5 23.5t-45.5 -13.5
q-18 -14 -22 -38.5zM711 2876q0 -2 2 -5q0 -31 6 -57q10 -55 44 -108.5t64 -116.5q43 -88 64.5 -135t54.5 -54q2 0 15.5 -1t29 -1t28.5 1t17 1t17.5 -1t29 -1t28.5 1t17 1q31 6 52.5 53.5t64.5 135.5q33 63 65.5 116.5t43.5 108.5q4 14 5 27.5t3 29.5v13q0 68 -25.5 127
t-69.5 103t-103.5 69.5t-127.5 25.5t-127 -25.5t-103 -69.5t-69.5 -103.5t-25.5 -126.5v-8zM903 2208q0 -39 45 -39h88h90q18 0 31.5 11t13.5 28q0 16 -13 27.5t-32 11.5h-90h-88q-20 0 -32.5 -11.5t-12.5 -27.5zM903 2329q0 -16 12.5 -28.5t32.5 -12.5h88h90q18 0 31.5 12
t13.5 29q0 16 -13 27.5t-32 11.5h-90h-88q-20 0 -32.5 -11.5t-12.5 -27.5zM979 3467l25 -190q4 -25 32 -29q29 4 33 29l27 190v17q-4 23 -20.5 36t-39.5 15q-23 -2 -39 -15.5t-18 -35.5q-4 -11 0 -17zM1352 3082q10 -10 23.5 -13t23.5 7l153 117q6 4 11 10q16 20 13 45
t-24 39q-20 16 -43.5 13t-40.5 -23l-116 -154q-18 -18 0 -41zM1382 2715.5q4 -12.5 17 -16.5l157 -65q8 -4 15 -4q23 -4 39 9t20 36t-9 40t-36 21l-170 23q-25 0 -33 -19q-4 -12 0 -24.5zM0 682q0 141 37 272t103.5 245t159.5 207t207 159.5t245 103.5t272 37
q211 0 398.5 -81t325.5 -219t219 -325.5t81 -398.5q0 -141 -37 -272t-103.5 -245t-159.5 -207t-207 -159.5t-245 -103.5t-272 -37t-272 37t-245 103.5t-207 159.5t-159.5 207t-103.5 245t-37 272zM412 614q0 -12 9 -21t21 -9l156 -17q6 -29 17.5 -54.5t25.5 -51.5l-98 -121
q-18 -23 2 -43l94 -94q10 -10 23 -10q12 0 20 8l121 98q27 -14 52.5 -25.5t53.5 -17.5l17 -156q0 -12 9 -21t21 -9h136q12 0 21 9t9 21l17 156q29 6 54.5 17.5t51.5 25.5l121 -98q8 -8 20 -8t23 10l94 94q20 20 2 43l-98 121q14 27 25.5 52.5t17.5 53.5l156 17q12 0 21 9
t9 21v136q0 12 -9 21t-21 9l-156 17q-6 29 -17.5 54.5t-25.5 51.5l98 121q18 23 -2 43l-94 94q-10 10 -23 10q-12 0 -20 -8l-121 -98q-27 14 -52.5 25.5t-53.5 17.5l-17 156q0 12 -9 21t-21 9h-136q-12 0 -21 -9t-9 -21l-17 -156q-29 -6 -54.5 -17.5t-51.5 -25.5l-121 98
q-8 8 -20 8t-23 -10l-94 -94q-20 -20 -2 -43l98 -121q-14 -27 -25.5 -52.5t-17.5 -53.5l-156 -17q-12 0 -21 -9t-9 -21v-136zM844 682q0 76 52 128t128 52t128 -52t52 -128t-52 -128t-128 -52t-128 52t-52 128z" />
    <glyph glyph-name="Acircumflex" unicode="&#xc2;" 
d="M0 2853q0 141 37 272t103.5 245t159.5 207t207 159.5t245 103.5t272 37q211 0 398.5 -81t325.5 -219t219 -325.5t81 -398.5q0 -141 -37 -272t-103.5 -245t-159.5 -207t-207 -159.5t-245 -103.5t-272 -37t-272 37t-245 103.5t-207 159.5t-159.5 207t-103.5 245t-37 272z
M526 2970q0 -4 2 -6q2 -23 4.5 -44.5t6.5 -43.5q4 -29 28.5 -82.5t59.5 -117t75.5 -132t77.5 -127t64.5 -100.5t40.5 -54q16 -16 37.5 -34.5t42 -33t37 -22.5t22.5 -8t21.5 8t36 21.5t42 32t39.5 36.5q12 12 41 54t67 101.5t78 127t73.5 132t58 117t28.5 81.5q4 23 6.5 44
t4.5 44v6q0 4 1 6t1 6v2q0 102 -39 192.5t-106.5 158t-158 107.5t-192.5 40h-2h-2q-102 0 -192.5 -40t-158 -107.5t-106.5 -158t-39 -192.5v-2v-12zM821 2988q0 84 58.5 142.5t142.5 58.5t142.5 -58.5t58.5 -142.5t-58.5 -142.5t-142.5 -58.5t-142.5 58.5t-58.5 142.5z
M0 682q0 141 37 272t103.5 245t159.5 207t207 159.5t245 103.5t272 37q211 0 398.5 -81t325.5 -219t219 -325.5t81 -398.5q0 -141 -37 -272t-103.5 -245t-159.5 -207t-207 -159.5t-245 -103.5t-272 -37t-272 37t-245 103.5t-207 159.5t-159.5 207t-103.5 245t-37 272z
M412 614q0 -12 9 -21t21 -9l156 -17q6 -29 17.5 -54.5t25.5 -51.5l-98 -121q-18 -23 2 -43l94 -94q10 -10 23 -10q12 0 20 8l121 98q27 -14 52.5 -25.5t53.5 -17.5l17 -156q0 -12 9 -21t21 -9h136q12 0 21 9t9 21l17 156q29 6 54.5 17.5t51.5 25.5l121 -98q8 -8 20 -8t23 10
l94 94q20 20 2 43l-98 121q14 27 25.5 52.5t17.5 53.5l156 17q12 0 21 9t9 21v136q0 12 -9 21t-21 9l-156 17q-6 29 -17.5 54.5t-25.5 51.5l98 121q18 23 -2 43l-94 94q-10 10 -23 10q-12 0 -20 -8l-121 -98q-27 14 -52.5 25.5t-53.5 17.5l-17 156q0 12 -9 21t-21 9h-136
q-12 0 -21 -9t-9 -21l-17 -156q-29 -6 -54.5 -17.5t-51.5 -25.5l-121 98q-8 8 -20 8t-23 -10l-94 -94q-20 -20 -2 -43l98 -121q-14 -27 -25.5 -52.5t-17.5 -53.5l-156 -17q-12 0 -21 -9t-9 -21v-136zM844 682q0 76 52 128t128 52t128 -52t52 -128t-52 -128t-128 -52t-128 52
t-52 128z" />
    <glyph glyph-name="Atilde" unicode="&#xc3;" 
d="M0 2853q0 141 37 272t103.5 245t159.5 207t207 159.5t245 103.5t272 37q211 0 398.5 -81t325.5 -219t219 -325.5t81 -398.5q0 -141 -37 -272t-103.5 -245t-159.5 -207t-207 -159.5t-245 -103.5t-272 -37t-272 37t-245 103.5t-207 159.5t-159.5 207t-103.5 245t-37 272z
M453 2673q4 -23 20 -35t39 -10q4 2 6 2t6 2l154 65q10 4 15 15.5t1 21.5q-10 23 -30 19l-166 -21q-23 -4 -36 -20t-9 -39zM498 3248.5q-4 -24.5 12 -45.5q4 -6 10 -10l154 -117q10 -10 24.5 -7t22.5 13q18 23 0 41l-117 154q-14 20 -38.5 23.5t-45.5 -13.5
q-18 -14 -22 -38.5zM711 2876q0 -2 2 -5q0 -31 6 -57q10 -55 44 -108.5t64 -116.5q43 -88 64.5 -135t54.5 -54q2 0 15.5 -1t29 -1t28.5 1t17 1t17.5 -1t29 -1t28.5 1t17 1q31 6 52.5 53.5t64.5 135.5q33 63 65.5 116.5t43.5 108.5q4 14 5 27.5t3 29.5v13q0 68 -25.5 127
t-69.5 103t-103.5 69.5t-127.5 25.5t-127 -25.5t-103 -69.5t-69.5 -103.5t-25.5 -126.5v-8zM903 2208q0 -39 45 -39h88h90q18 0 31.5 11t13.5 28q0 16 -13 27.5t-32 11.5h-90h-88q-20 0 -32.5 -11.5t-12.5 -27.5zM903 2329q0 -16 12.5 -28.5t32.5 -12.5h88h90q18 0 31.5 12
t13.5 29q0 16 -13 27.5t-32 11.5h-90h-88q-20 0 -32.5 -11.5t-12.5 -27.5zM979 3467l25 -190q4 -25 32 -29q29 4 33 29l27 190v17q-4 23 -20.5 36t-39.5 15q-23 -2 -39 -15.5t-18 -35.5q-4 -11 0 -17zM1352 3082q10 -10 23.5 -13t23.5 7l153 117q6 4 11 10q16 20 13 45
t-24 39q-20 16 -43.5 13t-40.5 -23l-116 -154q-18 -18 0 -41zM1382 2715.5q4 -12.5 17 -16.5l157 -65q8 -4 15 -4q23 -4 39 9t20 36t-9 40t-36 21l-170 23q-25 0 -33 -19q-4 -12 0 -24.5zM0 682q0 141 37 272t103.5 245t159.5 207t207 159.5t245 103.5t272 37
q211 0 398.5 -81t325.5 -219t219 -325.5t81 -398.5q0 -141 -37 -272t-103.5 -245t-159.5 -207t-207 -159.5t-245 -103.5t-272 -37t-272 37t-245 103.5t-207 159.5t-159.5 207t-103.5 245t-37 272zM412 614q0 -12 9 -21t21 -9l156 -17q6 -29 17.5 -54.5t25.5 -51.5l-98 -121
q-18 -23 2 -43l94 -94q10 -10 23 -10q12 0 20 8l121 98q27 -14 52.5 -25.5t53.5 -17.5l17 -156q0 -12 9 -21t21 -9h136q12 0 21 9t9 21l17 156q29 6 54.5 17.5t51.5 25.5l121 -98q8 -8 20 -8t23 10l94 94q20 20 2 43l-98 121q14 27 25.5 52.5t17.5 53.5l156 17q12 0 21 9
t9 21v136q0 12 -9 21t-21 9l-156 17q-6 29 -17.5 54.5t-25.5 51.5l98 121q18 23 -2 43l-94 94q-10 10 -23 10q-12 0 -20 -8l-121 -98q-27 14 -52.5 25.5t-53.5 17.5l-17 156q0 12 -9 21t-21 9h-136q-12 0 -21 -9t-9 -21l-17 -156q-29 -6 -54.5 -17.5t-51.5 -25.5l-121 98
q-8 8 -20 8t-23 -10l-94 -94q-20 -20 -2 -43l98 -121q-14 -27 -25.5 -52.5t-17.5 -53.5l-156 -17q-12 0 -21 -9t-9 -21v-136zM844 682q0 76 52 128t128 52t128 -52t52 -128t-52 -128t-128 -52t-128 52t-52 128z" />
    <glyph glyph-name="Egrave" unicode="&#xc8;" 
d="M0 2853q0 141 37 272t103.5 245t159.5 207t207 159.5t245 103.5t272 37q211 0 398.5 -81t325.5 -219t219 -325.5t81 -398.5q0 -141 -37 -272t-103.5 -245t-159.5 -207t-207 -159.5t-245 -103.5t-272 -37t-272 37t-245 103.5t-207 159.5t-159.5 207t-103.5 245t-37 272z
M453 2673q4 -23 20 -35t39 -10q4 2 6 2t6 2l154 65q10 4 15 15.5t1 21.5q-10 23 -30 19l-166 -21q-23 -4 -36 -20t-9 -39zM498 3248.5q-4 -24.5 12 -45.5q4 -6 10 -10l154 -117q10 -10 24.5 -7t22.5 13q18 23 0 41l-117 154q-14 20 -38.5 23.5t-45.5 -13.5
q-18 -14 -22 -38.5zM711 2876q0 -2 2 -5q0 -31 6 -57q10 -55 44 -108.5t64 -116.5q43 -88 64.5 -135t54.5 -54q2 0 15.5 -1t29 -1t28.5 1t17 1t17.5 -1t29 -1t28.5 1t17 1q31 6 52.5 53.5t64.5 135.5q33 63 65.5 116.5t43.5 108.5q4 14 5 27.5t3 29.5v13q0 68 -25.5 127
t-69.5 103t-103.5 69.5t-127.5 25.5t-127 -25.5t-103 -69.5t-69.5 -103.5t-25.5 -126.5v-8zM903 2208q0 -39 45 -39h88h90q18 0 31.5 11t13.5 28q0 16 -13 27.5t-32 11.5h-90h-88q-20 0 -32.5 -11.5t-12.5 -27.5zM903 2329q0 -16 12.5 -28.5t32.5 -12.5h88h90q18 0 31.5 12
t13.5 29q0 16 -13 27.5t-32 11.5h-90h-88q-20 0 -32.5 -11.5t-12.5 -27.5zM979 3467l25 -190q4 -25 32 -29q29 4 33 29l27 190v17q-4 23 -20.5 36t-39.5 15q-23 -2 -39 -15.5t-18 -35.5q-4 -11 0 -17zM1352 3082q10 -10 23.5 -13t23.5 7l153 117q6 4 11 10q16 20 13 45
t-24 39q-20 16 -43.5 13t-40.5 -23l-116 -154q-18 -18 0 -41zM1382 2715.5q4 -12.5 17 -16.5l157 -65q8 -4 15 -4q23 -4 39 9t20 36t-9 40t-36 21l-170 23q-25 0 -33 -19q-4 -12 0 -24.5zM0 682q0 141 37 272t103.5 245t159.5 207t207 159.5t245 103.5t272 37
q211 0 398.5 -81t325.5 -219t219 -325.5t81 -398.5q0 -141 -37 -272t-103.5 -245t-159.5 -207t-207 -159.5t-245 -103.5t-272 -37t-272 37t-245 103.5t-207 159.5t-159.5 207t-103.5 245t-37 272zM440 545q0 -10 8.5 -19.5t20.5 -9.5h1110q12 0 20.5 9.5t8.5 19.5v274
q0 10 -8.5 19.5t-20.5 9.5h-1110q-12 0 -20.5 -9.5t-8.5 -19.5v-274z" />
    <glyph glyph-name="Ecircumflex" unicode="&#xca;" 
d="M0 2853q0 141 37 272t103.5 245t159.5 207t207 159.5t245 103.5t272 37q211 0 398.5 -81t325.5 -219t219 -325.5t81 -398.5q0 -141 -37 -272t-103.5 -245t-159.5 -207t-207 -159.5t-245 -103.5t-272 -37t-272 37t-245 103.5t-207 159.5t-159.5 207t-103.5 245t-37 272z
M526 2970q0 -4 2 -6q2 -23 4.5 -44.5t6.5 -43.5q4 -29 28.5 -82.5t59.5 -117t75.5 -132t77.5 -127t64.5 -100.5t40.5 -54q16 -16 37.5 -34.5t42 -33t37 -22.5t22.5 -8t21.5 8t36 21.5t42 32t39.5 36.5q12 12 41 54t67 101.5t78 127t73.5 132t58 117t28.5 81.5q4 23 6.5 44
t4.5 44v6q0 4 1 6t1 6v2q0 102 -39 192.5t-106.5 158t-158 107.5t-192.5 40h-2h-2q-102 0 -192.5 -40t-158 -107.5t-106.5 -158t-39 -192.5v-2v-12zM821 2988q0 84 58.5 142.5t142.5 58.5t142.5 -58.5t58.5 -142.5t-58.5 -142.5t-142.5 -58.5t-142.5 58.5t-58.5 142.5z
M0 682q0 141 37 272t103.5 245t159.5 207t207 159.5t245 103.5t272 37q211 0 398.5 -81t325.5 -219t219 -325.5t81 -398.5q0 -141 -37 -272t-103.5 -245t-159.5 -207t-207 -159.5t-245 -103.5t-272 -37t-272 37t-245 103.5t-207 159.5t-159.5 207t-103.5 245t-37 272z
M440 545q0 -10 8.5 -19.5t20.5 -9.5h1110q12 0 20.5 9.5t8.5 19.5v274q0 10 -8.5 19.5t-20.5 9.5h-1110q-12 0 -20.5 -9.5t-8.5 -19.5v-274z" />
    <glyph glyph-name="Igrave" unicode="&#xcc;" 
d="M0 2853q0 141 37 272t103.5 245t159.5 207t207 159.5t245 103.5t272 37q211 0 398.5 -81t325.5 -219t219 -325.5t81 -398.5q0 -141 -37 -272t-103.5 -245t-159.5 -207t-207 -159.5t-245 -103.5t-272 -37t-272 37t-245 103.5t-207 159.5t-159.5 207t-103.5 245t-37 272z
M453 2673q4 -23 20 -35t39 -10q4 2 6 2t6 2l154 65q10 4 15 15.5t1 21.5q-10 23 -30 19l-166 -21q-23 -4 -36 -20t-9 -39zM498 3248.5q-4 -24.5 12 -45.5q4 -6 10 -10l154 -117q10 -10 24.5 -7t22.5 13q18 23 0 41l-117 154q-14 20 -38.5 23.5t-45.5 -13.5
q-18 -14 -22 -38.5zM711 2876q0 -2 2 -5q0 -31 6 -57q10 -55 44 -108.5t64 -116.5q43 -88 64.5 -135t54.5 -54q2 0 15.5 -1t29 -1t28.5 1t17 1t17.5 -1t29 -1t28.5 1t17 1q31 6 52.5 53.5t64.5 135.5q33 63 65.5 116.5t43.5 108.5q4 14 5 27.5t3 29.5v13q0 68 -25.5 127
t-69.5 103t-103.5 69.5t-127.5 25.5t-127 -25.5t-103 -69.5t-69.5 -103.5t-25.5 -126.5v-8zM903 2208q0 -39 45 -39h88h90q18 0 31.5 11t13.5 28q0 16 -13 27.5t-32 11.5h-90h-88q-20 0 -32.5 -11.5t-12.5 -27.5zM903 2329q0 -16 12.5 -28.5t32.5 -12.5h88h90q18 0 31.5 12
t13.5 29q0 16 -13 27.5t-32 11.5h-90h-88q-20 0 -32.5 -11.5t-12.5 -27.5zM979 3467l25 -190q4 -25 32 -29q29 4 33 29l27 190v17q-4 23 -20.5 36t-39.5 15q-23 -2 -39 -15.5t-18 -35.5q-4 -11 0 -17zM1352 3082q10 -10 23.5 -13t23.5 7l153 117q6 4 11 10q16 20 13 45
t-24 39q-20 16 -43.5 13t-40.5 -23l-116 -154q-18 -18 0 -41zM1382 2715.5q4 -12.5 17 -16.5l157 -65q8 -4 15 -4q23 -4 39 9t20 36t-9 40t-36 21l-170 23q-25 0 -33 -19q-4 -12 0 -24.5zM0 682q0 141 37 272t103.5 245t159.5 207t207 159.5t245 103.5t272 37
q211 0 398.5 -81t325.5 -219t219 -325.5t81 -398.5q0 -141 -37 -272t-103.5 -245t-159.5 -207t-207 -159.5t-245 -103.5t-272 -37t-272 37t-245 103.5t-207 159.5t-159.5 207t-103.5 245t-37 272zM590 172q0 -16 16 -16h836q16 0 16 16v600q0 16 -16 16h-836q-16 0 -16 -16
v-600zM590 883q0 -18 16 -19h836q16 0 16 19v176q0 16 -16 16h-82v35q0 47 -27.5 72.5t-75.5 25.5q-49 0 -76.5 -25.5t-27.5 -72.5v-35h-25v35q0 47 -27.5 72.5t-76.5 25.5q-47 0 -74.5 -25.5t-27.5 -72.5v-35h-25v35q0 47 -28.5 72.5t-75.5 25.5t-76 -25.5t-29 -72.5v-35
h-82q-16 0 -16 -16v-176zM752 971v139q0 35 41 35t41 -35v-139q0 -35 -41 -35t-41 35zM770 305l8 60q0 2 4 6q2 2 6 0q37 -14 80 -15q23 0 37.5 9.5t14.5 25.5q0 18 -14.5 28.5t-65.5 14.5q-8 0 -9 8v60q0 8 9 8q43 4 53 14.5t10 20.5q0 6 -5 14t-34 8t-65 -16h-6q-6 2 -7 6
l-8 59q0 8 6 9q39 18 99 18q53 0 84.5 -22.5t31.5 -57.5q0 -55 -57 -82q27 -10 47.5 -29.5t20.5 -56.5q0 -53 -41 -83.5t-109 -30.5q-47 0 -86 16q-6 6 -4 8zM985 971v139q0 35 39 35q41 0 41 -35v-139q0 -35 -41 -35q-39 0 -39 35zM1069 578q0 6 6 10l103 49q0 2 2 2h37
q8 0 8 -10v-334q0 -8 -8 -8h-72q-8 0 -8 8v235l-47 -18h-9q-4 4 -4 8zM1217 971v139q0 35 40 35q39 0 39 -35v-139q0 -35 -39 -35q-40 0 -40 35z" />
    <glyph glyph-name="Icircumflex" unicode="&#xce;" 
d="M0 2853q0 141 37 272t103.5 245t159.5 207t207 159.5t245 103.5t272 37q211 0 398.5 -81t325.5 -219t219 -325.5t81 -398.5q0 -141 -37 -272t-103.5 -245t-159.5 -207t-207 -159.5t-245 -103.5t-272 -37t-272 37t-245 103.5t-207 159.5t-159.5 207t-103.5 245t-37 272z
M526 2970q0 -4 2 -6q2 -23 4.5 -44.5t6.5 -43.5q4 -29 28.5 -82.5t59.5 -117t75.5 -132t77.5 -127t64.5 -100.5t40.5 -54q16 -16 37.5 -34.5t42 -33t37 -22.5t22.5 -8t21.5 8t36 21.5t42 32t39.5 36.5q12 12 41 54t67 101.5t78 127t73.5 132t58 117t28.5 81.5q4 23 6.5 44
t4.5 44v6q0 4 1 6t1 6v2q0 102 -39 192.5t-106.5 158t-158 107.5t-192.5 40h-2h-2q-102 0 -192.5 -40t-158 -107.5t-106.5 -158t-39 -192.5v-2v-12zM821 2988q0 84 58.5 142.5t142.5 58.5t142.5 -58.5t58.5 -142.5t-58.5 -142.5t-142.5 -58.5t-142.5 58.5t-58.5 142.5z
M0 682q0 141 37 272t103.5 245t159.5 207t207 159.5t245 103.5t272 37q211 0 398.5 -81t325.5 -219t219 -325.5t81 -398.5q0 -141 -37 -272t-103.5 -245t-159.5 -207t-207 -159.5t-245 -103.5t-272 -37t-272 37t-245 103.5t-207 159.5t-159.5 207t-103.5 245t-37 272z
M590 172q0 -16 16 -16h836q16 0 16 16v600q0 16 -16 16h-836q-16 0 -16 -16v-600zM590 883q0 -18 16 -19h836q16 0 16 19v176q0 16 -16 16h-82v35q0 47 -27.5 72.5t-75.5 25.5q-49 0 -76.5 -25.5t-27.5 -72.5v-35h-25v35q0 47 -27.5 72.5t-76.5 25.5q-47 0 -74.5 -25.5
t-27.5 -72.5v-35h-25v35q0 47 -28.5 72.5t-75.5 25.5t-76 -25.5t-29 -72.5v-35h-82q-16 0 -16 -16v-176zM752 971v139q0 35 41 35t41 -35v-139q0 -35 -41 -35t-41 35zM770 305l8 60q0 2 4 6q2 2 6 0q37 -14 80 -15q23 0 37.5 9.5t14.5 25.5q0 18 -14.5 28.5t-65.5 14.5
q-8 0 -9 8v60q0 8 9 8q43 4 53 14.5t10 20.5q0 6 -5 14t-34 8t-65 -16h-6q-6 2 -7 6l-8 59q0 8 6 9q39 18 99 18q53 0 84.5 -22.5t31.5 -57.5q0 -55 -57 -82q27 -10 47.5 -29.5t20.5 -56.5q0 -53 -41 -83.5t-109 -30.5q-47 0 -86 16q-6 6 -4 8zM985 971v139q0 35 39 35
q41 0 41 -35v-139q0 -35 -41 -35q-39 0 -39 35zM1069 578q0 6 6 10l103 49q0 2 2 2h37q8 0 8 -10v-334q0 -8 -8 -8h-72q-8 0 -8 8v235l-47 -18h-9q-4 4 -4 8zM1217 971v139q0 35 40 35q39 0 39 -35v-139q0 -35 -39 -35q-40 0 -40 35z" />
    <glyph glyph-name="Ntilde" unicode="&#xd1;" 
d="M0 2853q0 141 37 272t103.5 245t159.5 207t207 159.5t245 103.5t272 37q211 0 398.5 -81t325.5 -219t219 -325.5t81 -398.5q0 -141 -37 -272t-103.5 -245t-159.5 -207t-207 -159.5t-245 -103.5t-272 -37t-272 37t-245 103.5t-207 159.5t-159.5 207t-103.5 245t-37 272z
M453 2673q4 -23 20 -35t39 -10q4 2 6 2t6 2l154 65q10 4 15 15.5t1 21.5q-10 23 -30 19l-166 -21q-23 -4 -36 -20t-9 -39zM498 3248.5q-4 -24.5 12 -45.5q4 -6 10 -10l154 -117q10 -10 24.5 -7t22.5 13q18 23 0 41l-117 154q-14 20 -38.5 23.5t-45.5 -13.5
q-18 -14 -22 -38.5zM711 2876q0 -2 2 -5q0 -31 6 -57q10 -55 44 -108.5t64 -116.5q43 -88 64.5 -135t54.5 -54q2 0 15.5 -1t29 -1t28.5 1t17 1t17.5 -1t29 -1t28.5 1t17 1q31 6 52.5 53.5t64.5 135.5q33 63 65.5 116.5t43.5 108.5q4 14 5 27.5t3 29.5v13q0 68 -25.5 127
t-69.5 103t-103.5 69.5t-127.5 25.5t-127 -25.5t-103 -69.5t-69.5 -103.5t-25.5 -126.5v-8zM903 2208q0 -39 45 -39h88h90q18 0 31.5 11t13.5 28q0 16 -13 27.5t-32 11.5h-90h-88q-20 0 -32.5 -11.5t-12.5 -27.5zM903 2329q0 -16 12.5 -28.5t32.5 -12.5h88h90q18 0 31.5 12
t13.5 29q0 16 -13 27.5t-32 11.5h-90h-88q-20 0 -32.5 -11.5t-12.5 -27.5zM979 3467l25 -190q4 -25 32 -29q29 4 33 29l27 190v17q-4 23 -20.5 36t-39.5 15q-23 -2 -39 -15.5t-18 -35.5q-4 -11 0 -17zM1352 3082q10 -10 23.5 -13t23.5 7l153 117q6 4 11 10q16 20 13 45
t-24 39q-20 16 -43.5 13t-40.5 -23l-116 -154q-18 -18 0 -41zM1382 2715.5q4 -12.5 17 -16.5l157 -65q8 -4 15 -4q23 -4 39 9t20 36t-9 40t-36 21l-170 23q-25 0 -33 -19q-4 -12 0 -24.5zM0 682q0 141 37 272t103.5 245t159.5 207t207 159.5t245 103.5t272 37
q211 0 398.5 -81t325.5 -219t219 -325.5t81 -398.5q0 -141 -37 -272t-103.5 -245t-159.5 -207t-207 -159.5t-245 -103.5t-272 -37t-272 37t-245 103.5t-207 159.5t-159.5 207t-103.5 245t-37 272zM459 283q0 -33 33 -33h393q33 0 33 33v471q0 33 -33 32h-125q0 164 211 195
q12 0 22 14q8 10 4 25l-32 149q-4 12 -14 21q-7 7 -16 6h-5q-471 -25 -471 -506v-407zM1065 283q0 -14 10 -23.5t25 -9.5h391q14 0 24.5 9t10.5 24v471q0 14 -10.5 23t-24.5 9h-125q4 164 211 195q14 0 22 14q7 7 8 17q0 4 -1 8l-33 149q-4 12 -13 21q-7 7 -17 6h-5
q-473 -25 -473 -506v-407z" />
    <glyph glyph-name="Ograve" unicode="&#xd2;" 
d="M0 2853q0 141 37 272t103.5 245t159.5 207t207 159.5t245 103.5t272 37q211 0 398.5 -81t325.5 -219t219 -325.5t81 -398.5q0 -141 -37 -272t-103.5 -245t-159.5 -207t-207 -159.5t-245 -103.5t-272 -37t-272 37t-245 103.5t-207 159.5t-159.5 207t-103.5 245t-37 272z
M453 2673q4 -23 20 -35t39 -10q4 2 6 2t6 2l154 65q10 4 15 15.5t1 21.5q-10 23 -30 19l-166 -21q-23 -4 -36 -20t-9 -39zM498 3248.5q-4 -24.5 12 -45.5q4 -6 10 -10l154 -117q10 -10 24.5 -7t22.5 13q18 23 0 41l-117 154q-14 20 -38.5 23.5t-45.5 -13.5
q-18 -14 -22 -38.5zM711 2876q0 -2 2 -5q0 -31 6 -57q10 -55 44 -108.5t64 -116.5q43 -88 64.5 -135t54.5 -54q2 0 15.5 -1t29 -1t28.5 1t17 1t17.5 -1t29 -1t28.5 1t17 1q31 6 52.5 53.5t64.5 135.5q33 63 65.5 116.5t43.5 108.5q4 14 5 27.5t3 29.5v13q0 68 -25.5 127
t-69.5 103t-103.5 69.5t-127.5 25.5t-127 -25.5t-103 -69.5t-69.5 -103.5t-25.5 -126.5v-8zM903 2208q0 -39 45 -39h88h90q18 0 31.5 11t13.5 28q0 16 -13 27.5t-32 11.5h-90h-88q-20 0 -32.5 -11.5t-12.5 -27.5zM903 2329q0 -16 12.5 -28.5t32.5 -12.5h88h90q18 0 31.5 12
t13.5 29q0 16 -13 27.5t-32 11.5h-90h-88q-20 0 -32.5 -11.5t-12.5 -27.5zM979 3467l25 -190q4 -25 32 -29q29 4 33 29l27 190v17q-4 23 -20.5 36t-39.5 15q-23 -2 -39 -15.5t-18 -35.5q-4 -11 0 -17zM1352 3082q10 -10 23.5 -13t23.5 7l153 117q6 4 11 10q16 20 13 45
t-24 39q-20 16 -43.5 13t-40.5 -23l-116 -154q-18 -18 0 -41zM1382 2715.5q4 -12.5 17 -16.5l157 -65q8 -4 15 -4q23 -4 39 9t20 36t-9 40t-36 21l-170 23q-25 0 -33 -19q-4 -12 0 -24.5zM0 682q0 141 37 272t103.5 245t159.5 207t207 159.5t245 103.5t272 37
q211 0 398.5 -81t325.5 -219t219 -325.5t81 -398.5q0 -141 -37 -272t-103.5 -245t-159.5 -207t-207 -159.5t-245 -103.5t-272 -37t-272 37t-245 103.5t-207 159.5t-159.5 207t-103.5 245t-37 272zM336 416q0 -16 10 -28.5t25 -12.5h221v164q0 70 57 96l88 41
q25 25 40.5 61.5t15.5 77.5q0 74 -45.5 127t-108.5 53q-66 0 -111 -53t-45 -127q0 -53 23.5 -95t60.5 -65l-209 -98q-23 -10 -22 -37v-104zM653 324q0 -16 8.5 -26.5t20.5 -10.5h696q12 0 20.5 10t8.5 27v215q0 25 -18 34l-297 140l24 16q47 29 72.5 81t25.5 112
q0 45 -14 83.5t-38.5 68.5t-58.5 47.5t-73 17.5t-72.5 -17.5t-58.5 -47.5t-39 -68.5t-14 -83.5q0 -61 26.5 -113.5t73.5 -81.5l25 -14l-299 -140q-18 -10 -19 -34v-215zM1268 815q0 -41 15 -77t40 -60l88 -43q57 -27 57 -96v-164h222q16 0 25 12t9 29v104q0 27 -20 37
l-209 98q37 23 59.5 65t22.5 95q0 74 -45 127t-109 53q-66 0 -110.5 -53t-44.5 -127z" />
    <glyph glyph-name="Ocircumflex" unicode="&#xd4;" 
d="M0 2853q0 141 37 272t103.5 245t159.5 207t207 159.5t245 103.5t272 37q211 0 398.5 -81t325.5 -219t219 -325.5t81 -398.5q0 -141 -37 -272t-103.5 -245t-159.5 -207t-207 -159.5t-245 -103.5t-272 -37t-272 37t-245 103.5t-207 159.5t-159.5 207t-103.5 245t-37 272z
M526 2970q0 -4 2 -6q2 -23 4.5 -44.5t6.5 -43.5q4 -29 28.5 -82.5t59.5 -117t75.5 -132t77.5 -127t64.5 -100.5t40.5 -54q16 -16 37.5 -34.5t42 -33t37 -22.5t22.5 -8t21.5 8t36 21.5t42 32t39.5 36.5q12 12 41 54t67 101.5t78 127t73.5 132t58 117t28.5 81.5q4 23 6.5 44
t4.5 44v6q0 4 1 6t1 6v2q0 102 -39 192.5t-106.5 158t-158 107.5t-192.5 40h-2h-2q-102 0 -192.5 -40t-158 -107.5t-106.5 -158t-39 -192.5v-2v-12zM821 2988q0 84 58.5 142.5t142.5 58.5t142.5 -58.5t58.5 -142.5t-58.5 -142.5t-142.5 -58.5t-142.5 58.5t-58.5 142.5z
M0 682q0 141 37 272t103.5 245t159.5 207t207 159.5t245 103.5t272 37q211 0 398.5 -81t325.5 -219t219 -325.5t81 -398.5q0 -141 -37 -272t-103.5 -245t-159.5 -207t-207 -159.5t-245 -103.5t-272 -37t-272 37t-245 103.5t-207 159.5t-159.5 207t-103.5 245t-37 272z
M336 416q0 -16 10 -28.5t25 -12.5h221v164q0 70 57 96l88 41q25 25 40.5 61.5t15.5 77.5q0 74 -45.5 127t-108.5 53q-66 0 -111 -53t-45 -127q0 -53 23.5 -95t60.5 -65l-209 -98q-23 -10 -22 -37v-104zM653 324q0 -16 8.5 -26.5t20.5 -10.5h696q12 0 20.5 10t8.5 27v215
q0 25 -18 34l-297 140l24 16q47 29 72.5 81t25.5 112q0 45 -14 83.5t-38.5 68.5t-58.5 47.5t-73 17.5t-72.5 -17.5t-58.5 -47.5t-39 -68.5t-14 -83.5q0 -61 26.5 -113.5t73.5 -81.5l25 -14l-299 -140q-18 -10 -19 -34v-215zM1268 815q0 -41 15 -77t40 -60l88 -43
q57 -27 57 -96v-164h222q16 0 25 12t9 29v104q0 27 -20 37l-209 98q37 23 59.5 65t22.5 95q0 74 -45 127t-109 53q-66 0 -110.5 -53t-44.5 -127z" />
    <glyph glyph-name="Otilde" unicode="&#xd5;" 
d="M0 2853q0 141 37 272t103.5 245t159.5 207t207 159.5t245 103.5t272 37q211 0 398.5 -81t325.5 -219t219 -325.5t81 -398.5q0 -141 -37 -272t-103.5 -245t-159.5 -207t-207 -159.5t-245 -103.5t-272 -37t-272 37t-245 103.5t-207 159.5t-159.5 207t-103.5 245t-37 272z
M453 2673q4 -23 20 -35t39 -10q4 2 6 2t6 2l154 65q10 4 15 15.5t1 21.5q-10 23 -30 19l-166 -21q-23 -4 -36 -20t-9 -39zM498 3248.5q-4 -24.5 12 -45.5q4 -6 10 -10l154 -117q10 -10 24.5 -7t22.5 13q18 23 0 41l-117 154q-14 20 -38.5 23.5t-45.5 -13.5
q-18 -14 -22 -38.5zM711 2876q0 -2 2 -5q0 -31 6 -57q10 -55 44 -108.5t64 -116.5q43 -88 64.5 -135t54.5 -54q2 0 15.5 -1t29 -1t28.5 1t17 1t17.5 -1t29 -1t28.5 1t17 1q31 6 52.5 53.5t64.5 135.5q33 63 65.5 116.5t43.5 108.5q4 14 5 27.5t3 29.5v13q0 68 -25.5 127
t-69.5 103t-103.5 69.5t-127.5 25.5t-127 -25.5t-103 -69.5t-69.5 -103.5t-25.5 -126.5v-8zM903 2208q0 -39 45 -39h88h90q18 0 31.5 11t13.5 28q0 16 -13 27.5t-32 11.5h-90h-88q-20 0 -32.5 -11.5t-12.5 -27.5zM903 2329q0 -16 12.5 -28.5t32.5 -12.5h88h90q18 0 31.5 12
t13.5 29q0 16 -13 27.5t-32 11.5h-90h-88q-20 0 -32.5 -11.5t-12.5 -27.5zM979 3467l25 -190q4 -25 32 -29q29 4 33 29l27 190v17q-4 23 -20.5 36t-39.5 15q-23 -2 -39 -15.5t-18 -35.5q-4 -11 0 -17zM1352 3082q10 -10 23.5 -13t23.5 7l153 117q6 4 11 10q16 20 13 45
t-24 39q-20 16 -43.5 13t-40.5 -23l-116 -154q-18 -18 0 -41zM1382 2715.5q4 -12.5 17 -16.5l157 -65q8 -4 15 -4q23 -4 39 9t20 36t-9 40t-36 21l-170 23q-25 0 -33 -19q-4 -12 0 -24.5zM0 682q0 141 37 272t103.5 245t159.5 207t207 159.5t245 103.5t272 37
q211 0 398.5 -81t325.5 -219t219 -325.5t81 -398.5q0 -141 -37 -272t-103.5 -245t-159.5 -207t-207 -159.5t-245 -103.5t-272 -37t-272 37t-245 103.5t-207 159.5t-159.5 207t-103.5 245t-37 272zM336 416q0 -16 10 -28.5t25 -12.5h221v164q0 70 57 96l88 41
q25 25 40.5 61.5t15.5 77.5q0 74 -45.5 127t-108.5 53q-66 0 -111 -53t-45 -127q0 -53 23.5 -95t60.5 -65l-209 -98q-23 -10 -22 -37v-104zM653 324q0 -16 8.5 -26.5t20.5 -10.5h696q12 0 20.5 10t8.5 27v215q0 25 -18 34l-297 140l24 16q47 29 72.5 81t25.5 112
q0 45 -14 83.5t-38.5 68.5t-58.5 47.5t-73 17.5t-72.5 -17.5t-58.5 -47.5t-39 -68.5t-14 -83.5q0 -61 26.5 -113.5t73.5 -81.5l25 -14l-299 -140q-18 -10 -19 -34v-215zM1268 815q0 -41 15 -77t40 -60l88 -43q57 -27 57 -96v-164h222q16 0 25 12t9 29v104q0 27 -20 37
l-209 98q37 23 59.5 65t22.5 95q0 74 -45 127t-109 53q-66 0 -110.5 -53t-44.5 -127z" />
    <glyph glyph-name="Ugrave" unicode="&#xd9;" 
d="M0 2853q0 141 37 272t103.5 245t159.5 207t207 159.5t245 103.5t272 37q211 0 398.5 -81t325.5 -219t219 -325.5t81 -398.5q0 -141 -37 -272t-103.5 -245t-159.5 -207t-207 -159.5t-245 -103.5t-272 -37t-272 37t-245 103.5t-207 159.5t-159.5 207t-103.5 245t-37 272z
M453 2673q4 -23 20 -35t39 -10q4 2 6 2t6 2l154 65q10 4 15 15.5t1 21.5q-10 23 -30 19l-166 -21q-23 -4 -36 -20t-9 -39zM498 3248.5q-4 -24.5 12 -45.5q4 -6 10 -10l154 -117q10 -10 24.5 -7t22.5 13q18 23 0 41l-117 154q-14 20 -38.5 23.5t-45.5 -13.5
q-18 -14 -22 -38.5zM711 2876q0 -2 2 -5q0 -31 6 -57q10 -55 44 -108.5t64 -116.5q43 -88 64.5 -135t54.5 -54q2 0 15.5 -1t29 -1t28.5 1t17 1t17.5 -1t29 -1t28.5 1t17 1q31 6 52.5 53.5t64.5 135.5q33 63 65.5 116.5t43.5 108.5q4 14 5 27.5t3 29.5v13q0 68 -25.5 127
t-69.5 103t-103.5 69.5t-127.5 25.5t-127 -25.5t-103 -69.5t-69.5 -103.5t-25.5 -126.5v-8zM903 2208q0 -39 45 -39h88h90q18 0 31.5 11t13.5 28q0 16 -13 27.5t-32 11.5h-90h-88q-20 0 -32.5 -11.5t-12.5 -27.5zM903 2329q0 -16 12.5 -28.5t32.5 -12.5h88h90q18 0 31.5 12
t13.5 29q0 16 -13 27.5t-32 11.5h-90h-88q-20 0 -32.5 -11.5t-12.5 -27.5zM979 3467l25 -190q4 -25 32 -29q29 4 33 29l27 190v17q-4 23 -20.5 36t-39.5 15q-23 -2 -39 -15.5t-18 -35.5q-4 -11 0 -17zM1352 3082q10 -10 23.5 -13t23.5 7l153 117q6 4 11 10q16 20 13 45
t-24 39q-20 16 -43.5 13t-40.5 -23l-116 -154q-18 -18 0 -41zM1382 2715.5q4 -12.5 17 -16.5l157 -65q8 -4 15 -4q23 -4 39 9t20 36t-9 40t-36 21l-170 23q-25 0 -33 -19q-4 -12 0 -24.5zM0 682q0 141 37 272t103.5 245t159.5 207t207 159.5t245 103.5t272 37
q211 0 398.5 -81t325.5 -219t219 -325.5t81 -398.5q0 -141 -37 -272t-103.5 -245t-159.5 -207t-207 -159.5t-245 -103.5t-272 -37t-272 37t-245 103.5t-207 159.5t-159.5 207t-103.5 245t-37 272zM473 524q0 -16 10.5 -26.5t26.5 -10.5h500v-186q0 -25 20 -35q8 -3 17 -3
l24 7l555 398q16 10 16 30t-16 31l-555 395q-12 7 -24 8l-17 -4q-20 -14 -20 -34v-187h-500q-16 0 -26.5 -11t-10.5 -28v-344z" />
    <glyph glyph-name="Ucircumflex" unicode="&#xdb;" 
d="M0 2853q0 141 37 272t103.5 245t159.5 207t207 159.5t245 103.5t272 37q211 0 398.5 -81t325.5 -219t219 -325.5t81 -398.5q0 -141 -37 -272t-103.5 -245t-159.5 -207t-207 -159.5t-245 -103.5t-272 -37t-272 37t-245 103.5t-207 159.5t-159.5 207t-103.5 245t-37 272z
M526 2970q0 -4 2 -6q2 -23 4.5 -44.5t6.5 -43.5q4 -29 28.5 -82.5t59.5 -117t75.5 -132t77.5 -127t64.5 -100.5t40.5 -54q16 -16 37.5 -34.5t42 -33t37 -22.5t22.5 -8t21.5 8t36 21.5t42 32t39.5 36.5q12 12 41 54t67 101.5t78 127t73.5 132t58 117t28.5 81.5q4 23 6.5 44
t4.5 44v6q0 4 1 6t1 6v2q0 102 -39 192.5t-106.5 158t-158 107.5t-192.5 40h-2h-2q-102 0 -192.5 -40t-158 -107.5t-106.5 -158t-39 -192.5v-2v-12zM821 2988q0 84 58.5 142.5t142.5 58.5t142.5 -58.5t58.5 -142.5t-58.5 -142.5t-142.5 -58.5t-142.5 58.5t-58.5 142.5z
M0 682q0 141 37 272t103.5 245t159.5 207t207 159.5t245 103.5t272 37q211 0 398.5 -81t325.5 -219t219 -325.5t81 -398.5q0 -141 -37 -272t-103.5 -245t-159.5 -207t-207 -159.5t-245 -103.5t-272 -37t-272 37t-245 103.5t-207 159.5t-159.5 207t-103.5 245t-37 272z
M473 524q0 -16 10.5 -26.5t26.5 -10.5h500v-186q0 -25 20 -35q8 -3 17 -3l24 7l555 398q16 10 16 30t-16 31l-555 395q-12 7 -24 8l-17 -4q-20 -14 -20 -34v-187h-500q-16 0 -26.5 -11t-10.5 -28v-344z" />
    <glyph glyph-name="agrave" unicode="&#xe0;" 
d="M0 2853q0 141 37 272t103.5 245t159.5 207t207 159.5t245 103.5t272 37q211 0 398.5 -81t325.5 -219t219 -325.5t81 -398.5q0 -141 -37 -272t-103.5 -245t-159.5 -207t-207 -159.5t-245 -103.5t-272 -37t-272 37t-245 103.5t-207 159.5t-159.5 207t-103.5 245t-37 272z
M453 2673q4 -23 20 -35t39 -10q4 2 6 2t6 2l154 65q10 4 15 15.5t1 21.5q-10 23 -30 19l-166 -21q-23 -4 -36 -20t-9 -39zM498 3248.5q-4 -24.5 12 -45.5q4 -6 10 -10l154 -117q10 -10 24.5 -7t22.5 13q18 23 0 41l-117 154q-14 20 -38.5 23.5t-45.5 -13.5
q-18 -14 -22 -38.5zM711 2876q0 -2 2 -5q0 -31 6 -57q10 -55 44 -108.5t64 -116.5q43 -88 64.5 -135t54.5 -54q2 0 15.5 -1t29 -1t28.5 1t17 1t17.5 -1t29 -1t28.5 1t17 1q31 6 52.5 53.5t64.5 135.5q33 63 65.5 116.5t43.5 108.5q4 14 5 27.5t3 29.5v13q0 68 -25.5 127
t-69.5 103t-103.5 69.5t-127.5 25.5t-127 -25.5t-103 -69.5t-69.5 -103.5t-25.5 -126.5v-8zM903 2208q0 -39 45 -39h88h90q18 0 31.5 11t13.5 28q0 16 -13 27.5t-32 11.5h-90h-88q-20 0 -32.5 -11.5t-12.5 -27.5zM903 2329q0 -16 12.5 -28.5t32.5 -12.5h88h90q18 0 31.5 12
t13.5 29q0 16 -13 27.5t-32 11.5h-90h-88q-20 0 -32.5 -11.5t-12.5 -27.5zM979 3467l25 -190q4 -25 32 -29q29 4 33 29l27 190v17q-4 23 -20.5 36t-39.5 15q-23 -2 -39 -15.5t-18 -35.5q-4 -11 0 -17zM1352 3082q10 -10 23.5 -13t23.5 7l153 117q6 4 11 10q16 20 13 45
t-24 39q-20 16 -43.5 13t-40.5 -23l-116 -154q-18 -18 0 -41zM1382 2715.5q4 -12.5 17 -16.5l157 -65q8 -4 15 -4q23 -4 39 9t20 36t-9 40t-36 21l-170 23q-25 0 -33 -19q-4 -12 0 -24.5zM0 682q0 141 37 272t103.5 245t159.5 207t207 159.5t245 103.5t272 37
q211 0 398.5 -81t325.5 -219t219 -325.5t81 -398.5q0 -141 -37 -272t-103.5 -245t-159.5 -207t-207 -159.5t-245 -103.5t-272 -37t-272 37t-245 103.5t-207 159.5t-159.5 207t-103.5 245t-37 272zM412 614q0 -12 9 -21t21 -9l156 -17q6 -29 17.5 -54.5t25.5 -51.5l-98 -121
q-18 -23 2 -43l94 -94q10 -10 23 -10q12 0 20 8l121 98q27 -14 52.5 -25.5t53.5 -17.5l17 -156q0 -12 9 -21t21 -9h136q12 0 21 9t9 21l17 156q29 6 54.5 17.5t51.5 25.5l121 -98q8 -8 20 -8t23 10l94 94q20 20 2 43l-98 121q14 27 25.5 52.5t17.5 53.5l156 17q12 0 21 9
t9 21v136q0 12 -9 21t-21 9l-156 17q-6 29 -17.5 54.5t-25.5 51.5l98 121q18 23 -2 43l-94 94q-10 10 -23 10q-12 0 -20 -8l-121 -98q-27 14 -52.5 25.5t-53.5 17.5l-17 156q0 12 -9 21t-21 9h-136q-12 0 -21 -9t-9 -21l-17 -156q-29 -6 -54.5 -17.5t-51.5 -25.5l-121 98
q-8 8 -20 8t-23 -10l-94 -94q-20 -20 -2 -43l98 -121q-14 -27 -25.5 -52.5t-17.5 -53.5l-156 -17q-12 0 -21 -9t-9 -21v-136zM844 682q0 76 52 128t128 52t128 -52t52 -128t-52 -128t-128 -52t-128 52t-52 128z" />
    <glyph glyph-name="aacute" unicode="&#xe1;" 
 />
    <glyph glyph-name="acircumflex" unicode="&#xe2;" 
d="M0 2853q0 141 37 272t103.5 245t159.5 207t207 159.5t245 103.5t272 37q211 0 398.5 -81t325.5 -219t219 -325.5t81 -398.5q0 -141 -37 -272t-103.5 -245t-159.5 -207t-207 -159.5t-245 -103.5t-272 -37t-272 37t-245 103.5t-207 159.5t-159.5 207t-103.5 245t-37 272z
M526 2970q0 -4 2 -6q2 -23 4.5 -44.5t6.5 -43.5q4 -29 28.5 -82.5t59.5 -117t75.5 -132t77.5 -127t64.5 -100.5t40.5 -54q16 -16 37.5 -34.5t42 -33t37 -22.5t22.5 -8t21.5 8t36 21.5t42 32t39.5 36.5q12 12 41 54t67 101.5t78 127t73.5 132t58 117t28.5 81.5q4 23 6.5 44
t4.5 44v6q0 4 1 6t1 6v2q0 102 -39 192.5t-106.5 158t-158 107.5t-192.5 40h-2h-2q-102 0 -192.5 -40t-158 -107.5t-106.5 -158t-39 -192.5v-2v-12zM821 2988q0 84 58.5 142.5t142.5 58.5t142.5 -58.5t58.5 -142.5t-58.5 -142.5t-142.5 -58.5t-142.5 58.5t-58.5 142.5z
M0 682q0 141 37 272t103.5 245t159.5 207t207 159.5t245 103.5t272 37q211 0 398.5 -81t325.5 -219t219 -325.5t81 -398.5q0 -141 -37 -272t-103.5 -245t-159.5 -207t-207 -159.5t-245 -103.5t-272 -37t-272 37t-245 103.5t-207 159.5t-159.5 207t-103.5 245t-37 272z
M412 614q0 -12 9 -21t21 -9l156 -17q6 -29 17.5 -54.5t25.5 -51.5l-98 -121q-18 -23 2 -43l94 -94q10 -10 23 -10q12 0 20 8l121 98q27 -14 52.5 -25.5t53.5 -17.5l17 -156q0 -12 9 -21t21 -9h136q12 0 21 9t9 21l17 156q29 6 54.5 17.5t51.5 25.5l121 -98q8 -8 20 -8t23 10
l94 94q20 20 2 43l-98 121q14 27 25.5 52.5t17.5 53.5l156 17q12 0 21 9t9 21v136q0 12 -9 21t-21 9l-156 17q-6 29 -17.5 54.5t-25.5 51.5l98 121q18 23 -2 43l-94 94q-10 10 -23 10q-12 0 -20 -8l-121 -98q-27 14 -52.5 25.5t-53.5 17.5l-17 156q0 12 -9 21t-21 9h-136
q-12 0 -21 -9t-9 -21l-17 -156q-29 -6 -54.5 -17.5t-51.5 -25.5l-121 98q-8 8 -20 8t-23 -10l-94 -94q-20 -20 -2 -43l98 -121q-14 -27 -25.5 -52.5t-17.5 -53.5l-156 -17q-12 0 -21 -9t-9 -21v-136zM844 682q0 76 52 128t128 52t128 -52t52 -128t-52 -128t-128 -52t-128 52
t-52 128z" />
    <glyph glyph-name="atilde" unicode="&#xe3;" 
d="M0 2853q0 141 37 272t103.5 245t159.5 207t207 159.5t245 103.5t272 37q211 0 398.5 -81t325.5 -219t219 -325.5t81 -398.5q0 -141 -37 -272t-103.5 -245t-159.5 -207t-207 -159.5t-245 -103.5t-272 -37t-272 37t-245 103.5t-207 159.5t-159.5 207t-103.5 245t-37 272z
M453 2673q4 -23 20 -35t39 -10q4 2 6 2t6 2l154 65q10 4 15 15.5t1 21.5q-10 23 -30 19l-166 -21q-23 -4 -36 -20t-9 -39zM498 3248.5q-4 -24.5 12 -45.5q4 -6 10 -10l154 -117q10 -10 24.5 -7t22.5 13q18 23 0 41l-117 154q-14 20 -38.5 23.5t-45.5 -13.5
q-18 -14 -22 -38.5zM711 2876q0 -2 2 -5q0 -31 6 -57q10 -55 44 -108.5t64 -116.5q43 -88 64.5 -135t54.5 -54q2 0 15.5 -1t29 -1t28.5 1t17 1t17.5 -1t29 -1t28.5 1t17 1q31 6 52.5 53.5t64.5 135.5q33 63 65.5 116.5t43.5 108.5q4 14 5 27.5t3 29.5v13q0 68 -25.5 127
t-69.5 103t-103.5 69.5t-127.5 25.5t-127 -25.5t-103 -69.5t-69.5 -103.5t-25.5 -126.5v-8zM903 2208q0 -39 45 -39h88h90q18 0 31.5 11t13.5 28q0 16 -13 27.5t-32 11.5h-90h-88q-20 0 -32.5 -11.5t-12.5 -27.5zM903 2329q0 -16 12.5 -28.5t32.5 -12.5h88h90q18 0 31.5 12
t13.5 29q0 16 -13 27.5t-32 11.5h-90h-88q-20 0 -32.5 -11.5t-12.5 -27.5zM979 3467l25 -190q4 -25 32 -29q29 4 33 29l27 190v17q-4 23 -20.5 36t-39.5 15q-23 -2 -39 -15.5t-18 -35.5q-4 -11 0 -17zM1352 3082q10 -10 23.5 -13t23.5 7l153 117q6 4 11 10q16 20 13 45
t-24 39q-20 16 -43.5 13t-40.5 -23l-116 -154q-18 -18 0 -41zM1382 2715.5q4 -12.5 17 -16.5l157 -65q8 -4 15 -4q23 -4 39 9t20 36t-9 40t-36 21l-170 23q-25 0 -33 -19q-4 -12 0 -24.5zM0 682q0 141 37 272t103.5 245t159.5 207t207 159.5t245 103.5t272 37
q211 0 398.5 -81t325.5 -219t219 -325.5t81 -398.5q0 -141 -37 -272t-103.5 -245t-159.5 -207t-207 -159.5t-245 -103.5t-272 -37t-272 37t-245 103.5t-207 159.5t-159.5 207t-103.5 245t-37 272zM412 614q0 -12 9 -21t21 -9l156 -17q6 -29 17.5 -54.5t25.5 -51.5l-98 -121
q-18 -23 2 -43l94 -94q10 -10 23 -10q12 0 20 8l121 98q27 -14 52.5 -25.5t53.5 -17.5l17 -156q0 -12 9 -21t21 -9h136q12 0 21 9t9 21l17 156q29 6 54.5 17.5t51.5 25.5l121 -98q8 -8 20 -8t23 10l94 94q20 20 2 43l-98 121q14 27 25.5 52.5t17.5 53.5l156 17q12 0 21 9
t9 21v136q0 12 -9 21t-21 9l-156 17q-6 29 -17.5 54.5t-25.5 51.5l98 121q18 23 -2 43l-94 94q-10 10 -23 10q-12 0 -20 -8l-121 -98q-27 14 -52.5 25.5t-53.5 17.5l-17 156q0 12 -9 21t-21 9h-136q-12 0 -21 -9t-9 -21l-17 -156q-29 -6 -54.5 -17.5t-51.5 -25.5l-121 98
q-8 8 -20 8t-23 -10l-94 -94q-20 -20 -2 -43l98 -121q-14 -27 -25.5 -52.5t-17.5 -53.5l-156 -17q-12 0 -21 -9t-9 -21v-136zM844 682q0 76 52 128t128 52t128 -52t52 -128t-52 -128t-128 -52t-128 52t-52 128z" />
    <glyph glyph-name="egrave" unicode="&#xe8;" 
d="M0 2853q0 141 37 272t103.5 245t159.5 207t207 159.5t245 103.5t272 37q211 0 398.5 -81t325.5 -219t219 -325.5t81 -398.5q0 -141 -37 -272t-103.5 -245t-159.5 -207t-207 -159.5t-245 -103.5t-272 -37t-272 37t-245 103.5t-207 159.5t-159.5 207t-103.5 245t-37 272z
M453 2673q4 -23 20 -35t39 -10q4 2 6 2t6 2l154 65q10 4 15 15.5t1 21.5q-10 23 -30 19l-166 -21q-23 -4 -36 -20t-9 -39zM498 3248.5q-4 -24.5 12 -45.5q4 -6 10 -10l154 -117q10 -10 24.5 -7t22.5 13q18 23 0 41l-117 154q-14 20 -38.5 23.5t-45.5 -13.5
q-18 -14 -22 -38.5zM711 2876q0 -2 2 -5q0 -31 6 -57q10 -55 44 -108.5t64 -116.5q43 -88 64.5 -135t54.5 -54q2 0 15.5 -1t29 -1t28.5 1t17 1t17.5 -1t29 -1t28.5 1t17 1q31 6 52.5 53.5t64.5 135.5q33 63 65.5 116.5t43.5 108.5q4 14 5 27.5t3 29.5v13q0 68 -25.5 127
t-69.5 103t-103.5 69.5t-127.5 25.5t-127 -25.5t-103 -69.5t-69.5 -103.5t-25.5 -126.5v-8zM903 2208q0 -39 45 -39h88h90q18 0 31.5 11t13.5 28q0 16 -13 27.5t-32 11.5h-90h-88q-20 0 -32.5 -11.5t-12.5 -27.5zM903 2329q0 -16 12.5 -28.5t32.5 -12.5h88h90q18 0 31.5 12
t13.5 29q0 16 -13 27.5t-32 11.5h-90h-88q-20 0 -32.5 -11.5t-12.5 -27.5zM979 3467l25 -190q4 -25 32 -29q29 4 33 29l27 190v17q-4 23 -20.5 36t-39.5 15q-23 -2 -39 -15.5t-18 -35.5q-4 -11 0 -17zM1352 3082q10 -10 23.5 -13t23.5 7l153 117q6 4 11 10q16 20 13 45
t-24 39q-20 16 -43.5 13t-40.5 -23l-116 -154q-18 -18 0 -41zM1382 2715.5q4 -12.5 17 -16.5l157 -65q8 -4 15 -4q23 -4 39 9t20 36t-9 40t-36 21l-170 23q-25 0 -33 -19q-4 -12 0 -24.5zM0 682q0 141 37 272t103.5 245t159.5 207t207 159.5t245 103.5t272 37
q211 0 398.5 -81t325.5 -219t219 -325.5t81 -398.5q0 -141 -37 -272t-103.5 -245t-159.5 -207t-207 -159.5t-245 -103.5t-272 -37t-272 37t-245 103.5t-207 159.5t-159.5 207t-103.5 245t-37 272zM440 545q0 -10 8.5 -19.5t20.5 -9.5h1110q12 0 20.5 9.5t8.5 19.5v274
q0 10 -8.5 19.5t-20.5 9.5h-1110q-12 0 -20.5 -9.5t-8.5 -19.5v-274z" />
    <glyph glyph-name="ecircumflex" unicode="&#xea;" 
d="M0 2853q0 141 37 272t103.5 245t159.5 207t207 159.5t245 103.5t272 37q211 0 398.5 -81t325.5 -219t219 -325.5t81 -398.5q0 -141 -37 -272t-103.5 -245t-159.5 -207t-207 -159.5t-245 -103.5t-272 -37t-272 37t-245 103.5t-207 159.5t-159.5 207t-103.5 245t-37 272z
M526 2970q0 -4 2 -6q2 -23 4.5 -44.5t6.5 -43.5q4 -29 28.5 -82.5t59.5 -117t75.5 -132t77.5 -127t64.5 -100.5t40.5 -54q16 -16 37.5 -34.5t42 -33t37 -22.5t22.5 -8t21.5 8t36 21.5t42 32t39.5 36.5q12 12 41 54t67 101.5t78 127t73.5 132t58 117t28.5 81.5q4 23 6.5 44
t4.5 44v6q0 4 1 6t1 6v2q0 102 -39 192.5t-106.5 158t-158 107.5t-192.5 40h-2h-2q-102 0 -192.5 -40t-158 -107.5t-106.5 -158t-39 -192.5v-2v-12zM821 2988q0 84 58.5 142.5t142.5 58.5t142.5 -58.5t58.5 -142.5t-58.5 -142.5t-142.5 -58.5t-142.5 58.5t-58.5 142.5z
M0 682q0 141 37 272t103.5 245t159.5 207t207 159.5t245 103.5t272 37q211 0 398.5 -81t325.5 -219t219 -325.5t81 -398.5q0 -141 -37 -272t-103.5 -245t-159.5 -207t-207 -159.5t-245 -103.5t-272 -37t-272 37t-245 103.5t-207 159.5t-159.5 207t-103.5 245t-37 272z
M440 545q0 -10 8.5 -19.5t20.5 -9.5h1110q12 0 20.5 9.5t8.5 19.5v274q0 10 -8.5 19.5t-20.5 9.5h-1110q-12 0 -20.5 -9.5t-8.5 -19.5v-274z" />
    <glyph glyph-name="igrave" unicode="&#xec;" 
d="M0 2853q0 141 37 272t103.5 245t159.5 207t207 159.5t245 103.5t272 37q211 0 398.5 -81t325.5 -219t219 -325.5t81 -398.5q0 -141 -37 -272t-103.5 -245t-159.5 -207t-207 -159.5t-245 -103.5t-272 -37t-272 37t-245 103.5t-207 159.5t-159.5 207t-103.5 245t-37 272z
M453 2673q4 -23 20 -35t39 -10q4 2 6 2t6 2l154 65q10 4 15 15.5t1 21.5q-10 23 -30 19l-166 -21q-23 -4 -36 -20t-9 -39zM498 3248.5q-4 -24.5 12 -45.5q4 -6 10 -10l154 -117q10 -10 24.5 -7t22.5 13q18 23 0 41l-117 154q-14 20 -38.5 23.5t-45.5 -13.5
q-18 -14 -22 -38.5zM711 2876q0 -2 2 -5q0 -31 6 -57q10 -55 44 -108.5t64 -116.5q43 -88 64.5 -135t54.5 -54q2 0 15.5 -1t29 -1t28.5 1t17 1t17.5 -1t29 -1t28.5 1t17 1q31 6 52.5 53.5t64.5 135.5q33 63 65.5 116.5t43.5 108.5q4 14 5 27.5t3 29.5v13q0 68 -25.5 127
t-69.5 103t-103.5 69.5t-127.5 25.5t-127 -25.5t-103 -69.5t-69.5 -103.5t-25.5 -126.5v-8zM903 2208q0 -39 45 -39h88h90q18 0 31.5 11t13.5 28q0 16 -13 27.5t-32 11.5h-90h-88q-20 0 -32.5 -11.5t-12.5 -27.5zM903 2329q0 -16 12.5 -28.5t32.5 -12.5h88h90q18 0 31.5 12
t13.5 29q0 16 -13 27.5t-32 11.5h-90h-88q-20 0 -32.5 -11.5t-12.5 -27.5zM979 3467l25 -190q4 -25 32 -29q29 4 33 29l27 190v17q-4 23 -20.5 36t-39.5 15q-23 -2 -39 -15.5t-18 -35.5q-4 -11 0 -17zM1352 3082q10 -10 23.5 -13t23.5 7l153 117q6 4 11 10q16 20 13 45
t-24 39q-20 16 -43.5 13t-40.5 -23l-116 -154q-18 -18 0 -41zM1382 2715.5q4 -12.5 17 -16.5l157 -65q8 -4 15 -4q23 -4 39 9t20 36t-9 40t-36 21l-170 23q-25 0 -33 -19q-4 -12 0 -24.5zM0 682q0 141 37 272t103.5 245t159.5 207t207 159.5t245 103.5t272 37
q211 0 398.5 -81t325.5 -219t219 -325.5t81 -398.5q0 -141 -37 -272t-103.5 -245t-159.5 -207t-207 -159.5t-245 -103.5t-272 -37t-272 37t-245 103.5t-207 159.5t-159.5 207t-103.5 245t-37 272zM590 172q0 -16 16 -16h836q16 0 16 16v600q0 16 -16 16h-836q-16 0 -16 -16
v-600zM590 883q0 -18 16 -19h836q16 0 16 19v176q0 16 -16 16h-82v35q0 47 -27.5 72.5t-75.5 25.5q-49 0 -76.5 -25.5t-27.5 -72.5v-35h-25v35q0 47 -27.5 72.5t-76.5 25.5q-47 0 -74.5 -25.5t-27.5 -72.5v-35h-25v35q0 47 -28.5 72.5t-75.5 25.5t-76 -25.5t-29 -72.5v-35
h-82q-16 0 -16 -16v-176zM752 971v139q0 35 41 35t41 -35v-139q0 -35 -41 -35t-41 35zM770 305l8 60q0 2 4 6q2 2 6 0q37 -14 80 -15q23 0 37.5 9.5t14.5 25.5q0 18 -14.5 28.5t-65.5 14.5q-8 0 -9 8v60q0 8 9 8q43 4 53 14.5t10 20.5q0 6 -5 14t-34 8t-65 -16h-6q-6 2 -7 6
l-8 59q0 8 6 9q39 18 99 18q53 0 84.5 -22.5t31.5 -57.5q0 -55 -57 -82q27 -10 47.5 -29.5t20.5 -56.5q0 -53 -41 -83.5t-109 -30.5q-47 0 -86 16q-6 6 -4 8zM985 971v139q0 35 39 35q41 0 41 -35v-139q0 -35 -41 -35q-39 0 -39 35zM1069 578q0 6 6 10l103 49q0 2 2 2h37
q8 0 8 -10v-334q0 -8 -8 -8h-72q-8 0 -8 8v235l-47 -18h-9q-4 4 -4 8zM1217 971v139q0 35 40 35q39 0 39 -35v-139q0 -35 -39 -35q-40 0 -40 35z" />
    <glyph glyph-name="icircumflex" unicode="&#xee;" 
d="M0 2853q0 141 37 272t103.5 245t159.5 207t207 159.5t245 103.5t272 37q211 0 398.5 -81t325.5 -219t219 -325.5t81 -398.5q0 -141 -37 -272t-103.5 -245t-159.5 -207t-207 -159.5t-245 -103.5t-272 -37t-272 37t-245 103.5t-207 159.5t-159.5 207t-103.5 245t-37 272z
M526 2970q0 -4 2 -6q2 -23 4.5 -44.5t6.5 -43.5q4 -29 28.5 -82.5t59.5 -117t75.5 -132t77.5 -127t64.5 -100.5t40.5 -54q16 -16 37.5 -34.5t42 -33t37 -22.5t22.5 -8t21.5 8t36 21.5t42 32t39.5 36.5q12 12 41 54t67 101.5t78 127t73.5 132t58 117t28.5 81.5q4 23 6.5 44
t4.5 44v6q0 4 1 6t1 6v2q0 102 -39 192.5t-106.5 158t-158 107.5t-192.5 40h-2h-2q-102 0 -192.5 -40t-158 -107.5t-106.5 -158t-39 -192.5v-2v-12zM821 2988q0 84 58.5 142.5t142.5 58.5t142.5 -58.5t58.5 -142.5t-58.5 -142.5t-142.5 -58.5t-142.5 58.5t-58.5 142.5z
M0 682q0 141 37 272t103.5 245t159.5 207t207 159.5t245 103.5t272 37q211 0 398.5 -81t325.5 -219t219 -325.5t81 -398.5q0 -141 -37 -272t-103.5 -245t-159.5 -207t-207 -159.5t-245 -103.5t-272 -37t-272 37t-245 103.5t-207 159.5t-159.5 207t-103.5 245t-37 272z
M590 172q0 -16 16 -16h836q16 0 16 16v600q0 16 -16 16h-836q-16 0 -16 -16v-600zM590 883q0 -18 16 -19h836q16 0 16 19v176q0 16 -16 16h-82v35q0 47 -27.5 72.5t-75.5 25.5q-49 0 -76.5 -25.5t-27.5 -72.5v-35h-25v35q0 47 -27.5 72.5t-76.5 25.5q-47 0 -74.5 -25.5
t-27.5 -72.5v-35h-25v35q0 47 -28.5 72.5t-75.5 25.5t-76 -25.5t-29 -72.5v-35h-82q-16 0 -16 -16v-176zM752 971v139q0 35 41 35t41 -35v-139q0 -35 -41 -35t-41 35zM770 305l8 60q0 2 4 6q2 2 6 0q37 -14 80 -15q23 0 37.5 9.5t14.5 25.5q0 18 -14.5 28.5t-65.5 14.5
q-8 0 -9 8v60q0 8 9 8q43 4 53 14.5t10 20.5q0 6 -5 14t-34 8t-65 -16h-6q-6 2 -7 6l-8 59q0 8 6 9q39 18 99 18q53 0 84.5 -22.5t31.5 -57.5q0 -55 -57 -82q27 -10 47.5 -29.5t20.5 -56.5q0 -53 -41 -83.5t-109 -30.5q-47 0 -86 16q-6 6 -4 8zM985 971v139q0 35 39 35
q41 0 41 -35v-139q0 -35 -41 -35q-39 0 -39 35zM1069 578q0 6 6 10l103 49q0 2 2 2h37q8 0 8 -10v-334q0 -8 -8 -8h-72q-8 0 -8 8v235l-47 -18h-9q-4 4 -4 8zM1217 971v139q0 35 40 35q39 0 39 -35v-139q0 -35 -39 -35q-40 0 -40 35z" />
    <glyph glyph-name="ntilde" unicode="&#xf1;" 
d="M0 2853q0 141 37 272t103.5 245t159.5 207t207 159.5t245 103.5t272 37q211 0 398.5 -81t325.5 -219t219 -325.5t81 -398.5q0 -141 -37 -272t-103.5 -245t-159.5 -207t-207 -159.5t-245 -103.5t-272 -37t-272 37t-245 103.5t-207 159.5t-159.5 207t-103.5 245t-37 272z
M453 2673q4 -23 20 -35t39 -10q4 2 6 2t6 2l154 65q10 4 15 15.5t1 21.5q-10 23 -30 19l-166 -21q-23 -4 -36 -20t-9 -39zM498 3248.5q-4 -24.5 12 -45.5q4 -6 10 -10l154 -117q10 -10 24.5 -7t22.5 13q18 23 0 41l-117 154q-14 20 -38.5 23.5t-45.5 -13.5
q-18 -14 -22 -38.5zM711 2876q0 -2 2 -5q0 -31 6 -57q10 -55 44 -108.5t64 -116.5q43 -88 64.5 -135t54.5 -54q2 0 15.5 -1t29 -1t28.5 1t17 1t17.5 -1t29 -1t28.5 1t17 1q31 6 52.5 53.5t64.5 135.5q33 63 65.5 116.5t43.5 108.5q4 14 5 27.5t3 29.5v13q0 68 -25.5 127
t-69.5 103t-103.5 69.5t-127.5 25.5t-127 -25.5t-103 -69.5t-69.5 -103.5t-25.5 -126.5v-8zM903 2208q0 -39 45 -39h88h90q18 0 31.5 11t13.5 28q0 16 -13 27.5t-32 11.5h-90h-88q-20 0 -32.5 -11.5t-12.5 -27.5zM903 2329q0 -16 12.5 -28.5t32.5 -12.5h88h90q18 0 31.5 12
t13.5 29q0 16 -13 27.5t-32 11.5h-90h-88q-20 0 -32.5 -11.5t-12.5 -27.5zM979 3467l25 -190q4 -25 32 -29q29 4 33 29l27 190v17q-4 23 -20.5 36t-39.5 15q-23 -2 -39 -15.5t-18 -35.5q-4 -11 0 -17zM1352 3082q10 -10 23.5 -13t23.5 7l153 117q6 4 11 10q16 20 13 45
t-24 39q-20 16 -43.5 13t-40.5 -23l-116 -154q-18 -18 0 -41zM1382 2715.5q4 -12.5 17 -16.5l157 -65q8 -4 15 -4q23 -4 39 9t20 36t-9 40t-36 21l-170 23q-25 0 -33 -19q-4 -12 0 -24.5zM0 682q0 141 37 272t103.5 245t159.5 207t207 159.5t245 103.5t272 37
q211 0 398.5 -81t325.5 -219t219 -325.5t81 -398.5q0 -141 -37 -272t-103.5 -245t-159.5 -207t-207 -159.5t-245 -103.5t-272 -37t-272 37t-245 103.5t-207 159.5t-159.5 207t-103.5 245t-37 272zM459 283q0 -33 33 -33h393q33 0 33 33v471q0 33 -33 32h-125q0 164 211 195
q12 0 22 14q8 10 4 25l-32 149q-4 12 -14 21q-7 7 -16 6h-5q-471 -25 -471 -506v-407zM1065 283q0 -14 10 -23.5t25 -9.5h391q14 0 24.5 9t10.5 24v471q0 14 -10.5 23t-24.5 9h-125q4 164 211 195q14 0 22 14q7 7 8 17q0 4 -1 8l-33 149q-4 12 -13 21q-7 7 -17 6h-5
q-473 -25 -473 -506v-407z" />
    <glyph glyph-name="ograve" unicode="&#xf2;" 
d="M0 2853q0 141 37 272t103.5 245t159.5 207t207 159.5t245 103.5t272 37q211 0 398.5 -81t325.5 -219t219 -325.5t81 -398.5q0 -141 -37 -272t-103.5 -245t-159.5 -207t-207 -159.5t-245 -103.5t-272 -37t-272 37t-245 103.5t-207 159.5t-159.5 207t-103.5 245t-37 272z
M453 2673q4 -23 20 -35t39 -10q4 2 6 2t6 2l154 65q10 4 15 15.5t1 21.5q-10 23 -30 19l-166 -21q-23 -4 -36 -20t-9 -39zM498 3248.5q-4 -24.5 12 -45.5q4 -6 10 -10l154 -117q10 -10 24.5 -7t22.5 13q18 23 0 41l-117 154q-14 20 -38.5 23.5t-45.5 -13.5
q-18 -14 -22 -38.5zM711 2876q0 -2 2 -5q0 -31 6 -57q10 -55 44 -108.5t64 -116.5q43 -88 64.5 -135t54.5 -54q2 0 15.5 -1t29 -1t28.5 1t17 1t17.5 -1t29 -1t28.5 1t17 1q31 6 52.5 53.5t64.5 135.5q33 63 65.5 116.5t43.5 108.5q4 14 5 27.5t3 29.5v13q0 68 -25.5 127
t-69.5 103t-103.5 69.5t-127.5 25.5t-127 -25.5t-103 -69.5t-69.5 -103.5t-25.5 -126.5v-8zM903 2208q0 -39 45 -39h88h90q18 0 31.5 11t13.5 28q0 16 -13 27.5t-32 11.5h-90h-88q-20 0 -32.5 -11.5t-12.5 -27.5zM903 2329q0 -16 12.5 -28.5t32.5 -12.5h88h90q18 0 31.5 12
t13.5 29q0 16 -13 27.5t-32 11.5h-90h-88q-20 0 -32.5 -11.5t-12.5 -27.5zM979 3467l25 -190q4 -25 32 -29q29 4 33 29l27 190v17q-4 23 -20.5 36t-39.5 15q-23 -2 -39 -15.5t-18 -35.5q-4 -11 0 -17zM1352 3082q10 -10 23.5 -13t23.5 7l153 117q6 4 11 10q16 20 13 45
t-24 39q-20 16 -43.5 13t-40.5 -23l-116 -154q-18 -18 0 -41zM1382 2715.5q4 -12.5 17 -16.5l157 -65q8 -4 15 -4q23 -4 39 9t20 36t-9 40t-36 21l-170 23q-25 0 -33 -19q-4 -12 0 -24.5zM0 682q0 141 37 272t103.5 245t159.5 207t207 159.5t245 103.5t272 37
q211 0 398.5 -81t325.5 -219t219 -325.5t81 -398.5q0 -141 -37 -272t-103.5 -245t-159.5 -207t-207 -159.5t-245 -103.5t-272 -37t-272 37t-245 103.5t-207 159.5t-159.5 207t-103.5 245t-37 272zM336 416q0 -16 10 -28.5t25 -12.5h221v164q0 70 57 96l88 41
q25 25 40.5 61.5t15.5 77.5q0 74 -45.5 127t-108.5 53q-66 0 -111 -53t-45 -127q0 -53 23.5 -95t60.5 -65l-209 -98q-23 -10 -22 -37v-104zM653 324q0 -16 8.5 -26.5t20.5 -10.5h696q12 0 20.5 10t8.5 27v215q0 25 -18 34l-297 140l24 16q47 29 72.5 81t25.5 112
q0 45 -14 83.5t-38.5 68.5t-58.5 47.5t-73 17.5t-72.5 -17.5t-58.5 -47.5t-39 -68.5t-14 -83.5q0 -61 26.5 -113.5t73.5 -81.5l25 -14l-299 -140q-18 -10 -19 -34v-215zM1268 815q0 -41 15 -77t40 -60l88 -43q57 -27 57 -96v-164h222q16 0 25 12t9 29v104q0 27 -20 37
l-209 98q37 23 59.5 65t22.5 95q0 74 -45 127t-109 53q-66 0 -110.5 -53t-44.5 -127z" />
    <glyph glyph-name="ocircumflex" unicode="&#xf4;" 
d="M0 2853q0 141 37 272t103.5 245t159.5 207t207 159.5t245 103.5t272 37q211 0 398.5 -81t325.5 -219t219 -325.5t81 -398.5q0 -141 -37 -272t-103.5 -245t-159.5 -207t-207 -159.5t-245 -103.5t-272 -37t-272 37t-245 103.5t-207 159.5t-159.5 207t-103.5 245t-37 272z
M526 2970q0 -4 2 -6q2 -23 4.5 -44.5t6.5 -43.5q4 -29 28.5 -82.5t59.5 -117t75.5 -132t77.5 -127t64.5 -100.5t40.5 -54q16 -16 37.5 -34.5t42 -33t37 -22.5t22.5 -8t21.5 8t36 21.5t42 32t39.5 36.5q12 12 41 54t67 101.5t78 127t73.5 132t58 117t28.5 81.5q4 23 6.5 44
t4.5 44v6q0 4 1 6t1 6v2q0 102 -39 192.5t-106.5 158t-158 107.5t-192.5 40h-2h-2q-102 0 -192.5 -40t-158 -107.5t-106.5 -158t-39 -192.5v-2v-12zM821 2988q0 84 58.5 142.5t142.5 58.5t142.5 -58.5t58.5 -142.5t-58.5 -142.5t-142.5 -58.5t-142.5 58.5t-58.5 142.5z
M0 682q0 141 37 272t103.5 245t159.5 207t207 159.5t245 103.5t272 37q211 0 398.5 -81t325.5 -219t219 -325.5t81 -398.5q0 -141 -37 -272t-103.5 -245t-159.5 -207t-207 -159.5t-245 -103.5t-272 -37t-272 37t-245 103.5t-207 159.5t-159.5 207t-103.5 245t-37 272z
M336 416q0 -16 10 -28.5t25 -12.5h221v164q0 70 57 96l88 41q25 25 40.5 61.5t15.5 77.5q0 74 -45.5 127t-108.5 53q-66 0 -111 -53t-45 -127q0 -53 23.5 -95t60.5 -65l-209 -98q-23 -10 -22 -37v-104zM653 324q0 -16 8.5 -26.5t20.5 -10.5h696q12 0 20.5 10t8.5 27v215
q0 25 -18 34l-297 140l24 16q47 29 72.5 81t25.5 112q0 45 -14 83.5t-38.5 68.5t-58.5 47.5t-73 17.5t-72.5 -17.5t-58.5 -47.5t-39 -68.5t-14 -83.5q0 -61 26.5 -113.5t73.5 -81.5l25 -14l-299 -140q-18 -10 -19 -34v-215zM1268 815q0 -41 15 -77t40 -60l88 -43
q57 -27 57 -96v-164h222q16 0 25 12t9 29v104q0 27 -20 37l-209 98q37 23 59.5 65t22.5 95q0 74 -45 127t-109 53q-66 0 -110.5 -53t-44.5 -127z" />
    <glyph glyph-name="otilde" unicode="&#xf5;" 
d="M0 2853q0 141 37 272t103.5 245t159.5 207t207 159.5t245 103.5t272 37q211 0 398.5 -81t325.5 -219t219 -325.5t81 -398.5q0 -141 -37 -272t-103.5 -245t-159.5 -207t-207 -159.5t-245 -103.5t-272 -37t-272 37t-245 103.5t-207 159.5t-159.5 207t-103.5 245t-37 272z
M453 2673q4 -23 20 -35t39 -10q4 2 6 2t6 2l154 65q10 4 15 15.5t1 21.5q-10 23 -30 19l-166 -21q-23 -4 -36 -20t-9 -39zM498 3248.5q-4 -24.5 12 -45.5q4 -6 10 -10l154 -117q10 -10 24.5 -7t22.5 13q18 23 0 41l-117 154q-14 20 -38.5 23.5t-45.5 -13.5
q-18 -14 -22 -38.5zM711 2876q0 -2 2 -5q0 -31 6 -57q10 -55 44 -108.5t64 -116.5q43 -88 64.5 -135t54.5 -54q2 0 15.5 -1t29 -1t28.5 1t17 1t17.5 -1t29 -1t28.5 1t17 1q31 6 52.5 53.5t64.5 135.5q33 63 65.5 116.5t43.5 108.5q4 14 5 27.5t3 29.5v13q0 68 -25.5 127
t-69.5 103t-103.5 69.5t-127.5 25.5t-127 -25.5t-103 -69.5t-69.5 -103.5t-25.5 -126.5v-8zM903 2208q0 -39 45 -39h88h90q18 0 31.5 11t13.5 28q0 16 -13 27.5t-32 11.5h-90h-88q-20 0 -32.5 -11.5t-12.5 -27.5zM903 2329q0 -16 12.5 -28.5t32.5 -12.5h88h90q18 0 31.5 12
t13.5 29q0 16 -13 27.5t-32 11.5h-90h-88q-20 0 -32.5 -11.5t-12.5 -27.5zM979 3467l25 -190q4 -25 32 -29q29 4 33 29l27 190v17q-4 23 -20.5 36t-39.5 15q-23 -2 -39 -15.5t-18 -35.5q-4 -11 0 -17zM1352 3082q10 -10 23.5 -13t23.5 7l153 117q6 4 11 10q16 20 13 45
t-24 39q-20 16 -43.5 13t-40.5 -23l-116 -154q-18 -18 0 -41zM1382 2715.5q4 -12.5 17 -16.5l157 -65q8 -4 15 -4q23 -4 39 9t20 36t-9 40t-36 21l-170 23q-25 0 -33 -19q-4 -12 0 -24.5zM0 682q0 141 37 272t103.5 245t159.5 207t207 159.5t245 103.5t272 37
q211 0 398.5 -81t325.5 -219t219 -325.5t81 -398.5q0 -141 -37 -272t-103.5 -245t-159.5 -207t-207 -159.5t-245 -103.5t-272 -37t-272 37t-245 103.5t-207 159.5t-159.5 207t-103.5 245t-37 272zM336 416q0 -16 10 -28.5t25 -12.5h221v164q0 70 57 96l88 41
q25 25 40.5 61.5t15.5 77.5q0 74 -45.5 127t-108.5 53q-66 0 -111 -53t-45 -127q0 -53 23.5 -95t60.5 -65l-209 -98q-23 -10 -22 -37v-104zM653 324q0 -16 8.5 -26.5t20.5 -10.5h696q12 0 20.5 10t8.5 27v215q0 25 -18 34l-297 140l24 16q47 29 72.5 81t25.5 112
q0 45 -14 83.5t-38.5 68.5t-58.5 47.5t-73 17.5t-72.5 -17.5t-58.5 -47.5t-39 -68.5t-14 -83.5q0 -61 26.5 -113.5t73.5 -81.5l25 -14l-299 -140q-18 -10 -19 -34v-215zM1268 815q0 -41 15 -77t40 -60l88 -43q57 -27 57 -96v-164h222q16 0 25 12t9 29v104q0 27 -20 37
l-209 98q37 23 59.5 65t22.5 95q0 74 -45 127t-109 53q-66 0 -110.5 -53t-44.5 -127z" />
    <glyph glyph-name="ugrave" unicode="&#xf9;" 
d="M0 2853q0 141 37 272t103.5 245t159.5 207t207 159.5t245 103.5t272 37q211 0 398.5 -81t325.5 -219t219 -325.5t81 -398.5q0 -141 -37 -272t-103.5 -245t-159.5 -207t-207 -159.5t-245 -103.5t-272 -37t-272 37t-245 103.5t-207 159.5t-159.5 207t-103.5 245t-37 272z
M453 2673q4 -23 20 -35t39 -10q4 2 6 2t6 2l154 65q10 4 15 15.5t1 21.5q-10 23 -30 19l-166 -21q-23 -4 -36 -20t-9 -39zM498 3248.5q-4 -24.5 12 -45.5q4 -6 10 -10l154 -117q10 -10 24.5 -7t22.5 13q18 23 0 41l-117 154q-14 20 -38.5 23.5t-45.5 -13.5
q-18 -14 -22 -38.5zM711 2876q0 -2 2 -5q0 -31 6 -57q10 -55 44 -108.5t64 -116.5q43 -88 64.5 -135t54.5 -54q2 0 15.5 -1t29 -1t28.5 1t17 1t17.5 -1t29 -1t28.5 1t17 1q31 6 52.5 53.5t64.5 135.5q33 63 65.5 116.5t43.5 108.5q4 14 5 27.5t3 29.5v13q0 68 -25.5 127
t-69.5 103t-103.5 69.5t-127.5 25.5t-127 -25.5t-103 -69.5t-69.5 -103.5t-25.5 -126.5v-8zM903 2208q0 -39 45 -39h88h90q18 0 31.5 11t13.5 28q0 16 -13 27.5t-32 11.5h-90h-88q-20 0 -32.5 -11.5t-12.5 -27.5zM903 2329q0 -16 12.5 -28.5t32.5 -12.5h88h90q18 0 31.5 12
t13.5 29q0 16 -13 27.5t-32 11.5h-90h-88q-20 0 -32.5 -11.5t-12.5 -27.5zM979 3467l25 -190q4 -25 32 -29q29 4 33 29l27 190v17q-4 23 -20.5 36t-39.5 15q-23 -2 -39 -15.5t-18 -35.5q-4 -11 0 -17zM1352 3082q10 -10 23.5 -13t23.5 7l153 117q6 4 11 10q16 20 13 45
t-24 39q-20 16 -43.5 13t-40.5 -23l-116 -154q-18 -18 0 -41zM1382 2715.5q4 -12.5 17 -16.5l157 -65q8 -4 15 -4q23 -4 39 9t20 36t-9 40t-36 21l-170 23q-25 0 -33 -19q-4 -12 0 -24.5zM0 682q0 141 37 272t103.5 245t159.5 207t207 159.5t245 103.5t272 37
q211 0 398.5 -81t325.5 -219t219 -325.5t81 -398.5q0 -141 -37 -272t-103.5 -245t-159.5 -207t-207 -159.5t-245 -103.5t-272 -37t-272 37t-245 103.5t-207 159.5t-159.5 207t-103.5 245t-37 272zM473 524q0 -16 10.5 -26.5t26.5 -10.5h500v-186q0 -25 20 -35q8 -3 17 -3
l24 7l555 398q16 10 16 30t-16 31l-555 395q-12 7 -24 8l-17 -4q-20 -14 -20 -34v-187h-500q-16 0 -26.5 -11t-10.5 -28v-344z" />
    <glyph glyph-name="ucircumflex" unicode="&#xfb;" 
d="M0 2853q0 141 37 272t103.5 245t159.5 207t207 159.5t245 103.5t272 37q211 0 398.5 -81t325.5 -219t219 -325.5t81 -398.5q0 -141 -37 -272t-103.5 -245t-159.5 -207t-207 -159.5t-245 -103.5t-272 -37t-272 37t-245 103.5t-207 159.5t-159.5 207t-103.5 245t-37 272z
M526 2970q0 -4 2 -6q2 -23 4.5 -44.5t6.5 -43.5q4 -29 28.5 -82.5t59.5 -117t75.5 -132t77.5 -127t64.5 -100.5t40.5 -54q16 -16 37.5 -34.5t42 -33t37 -22.5t22.5 -8t21.5 8t36 21.5t42 32t39.5 36.5q12 12 41 54t67 101.5t78 127t73.5 132t58 117t28.5 81.5q4 23 6.5 44
t4.5 44v6q0 4 1 6t1 6v2q0 102 -39 192.5t-106.5 158t-158 107.5t-192.5 40h-2h-2q-102 0 -192.5 -40t-158 -107.5t-106.5 -158t-39 -192.5v-2v-12zM821 2988q0 84 58.5 142.5t142.5 58.5t142.5 -58.5t58.5 -142.5t-58.5 -142.5t-142.5 -58.5t-142.5 58.5t-58.5 142.5z
M0 682q0 141 37 272t103.5 245t159.5 207t207 159.5t245 103.5t272 37q211 0 398.5 -81t325.5 -219t219 -325.5t81 -398.5q0 -141 -37 -272t-103.5 -245t-159.5 -207t-207 -159.5t-245 -103.5t-272 -37t-272 37t-245 103.5t-207 159.5t-159.5 207t-103.5 245t-37 272z
M473 524q0 -16 10.5 -26.5t26.5 -10.5h500v-186q0 -25 20 -35q8 -3 17 -3l24 7l555 398q16 10 16 30t-16 31l-555 395q-12 7 -24 8l-17 -4q-20 -14 -20 -34v-187h-500q-16 0 -26.5 -11t-10.5 -28v-344z" />
    <glyph glyph-name="OE" unicode="&#x152;" horiz-adv-x="4096" 
d="M2048 682q0 141 37 272t103.5 245t159.5 207t207 159.5t245 103.5t272 37q211 0 398.5 -81t325.5 -219t219 -325.5t81 -398.5q0 -141 -37 -272t-103.5 -245t-159.5 -207t-207 -159.5t-245 -103.5t-272 -37t-272 37t-245 103.5t-207 159.5t-159.5 207t-103.5 245t-37 272z
M2488 545q0 -10 8.5 -19.5t20.5 -9.5h1110q12 0 20.5 9.5t8.5 19.5v274q0 10 -8.5 19.5t-20.5 9.5h-1110q-12 0 -20.5 -9.5t-8.5 -19.5v-274zM0 682q0 141 37 272t103.5 245t159.5 207t207 159.5t245 103.5t272 37q211 0 398.5 -81t325.5 -219t219 -325.5t81 -398.5
q0 -141 -37 -272t-103.5 -245t-159.5 -207t-207 -159.5t-245 -103.5t-272 -37t-272 37t-245 103.5t-207 159.5t-159.5 207t-103.5 245t-37 272zM336 416q0 -16 10 -28.5t25 -12.5h221v164q0 70 57 96l88 41q25 25 40.5 61.5t15.5 77.5q0 74 -45.5 127t-108.5 53
q-66 0 -111 -53t-45 -127q0 -53 23.5 -95t60.5 -65l-209 -98q-23 -10 -22 -37v-104zM653 324q0 -16 8.5 -26.5t20.5 -10.5h696q12 0 20.5 10t8.5 27v215q0 25 -18 34l-297 140l24 16q47 29 72.5 81t25.5 112q0 45 -14 83.5t-38.5 68.5t-58.5 47.5t-73 17.5t-72.5 -17.5
t-58.5 -47.5t-39 -68.5t-14 -83.5q0 -61 26.5 -113.5t73.5 -81.5l25 -14l-299 -140q-18 -10 -19 -34v-215zM1268 815q0 -41 15 -77t40 -60l88 -43q57 -27 57 -96v-164h222q16 0 25 12t9 29v104q0 27 -20 37l-209 98q37 23 59.5 65t22.5 95q0 74 -45 127t-109 53
q-66 0 -110.5 -53t-44.5 -127z" />
    <glyph glyph-name="oe" unicode="&#x153;" horiz-adv-x="4096" 
d="M2048 682q0 141 37 272t103.5 245t159.5 207t207 159.5t245 103.5t272 37q211 0 398.5 -81t325.5 -219t219 -325.5t81 -398.5q0 -141 -37 -272t-103.5 -245t-159.5 -207t-207 -159.5t-245 -103.5t-272 -37t-272 37t-245 103.5t-207 159.5t-159.5 207t-103.5 245t-37 272z
M2488 545q0 -10 8.5 -19.5t20.5 -9.5h1110q12 0 20.5 9.5t8.5 19.5v274q0 10 -8.5 19.5t-20.5 9.5h-1110q-12 0 -20.5 -9.5t-8.5 -19.5v-274zM0 682q0 141 37 272t103.5 245t159.5 207t207 159.5t245 103.5t272 37q211 0 398.5 -81t325.5 -219t219 -325.5t81 -398.5
q0 -141 -37 -272t-103.5 -245t-159.5 -207t-207 -159.5t-245 -103.5t-272 -37t-272 37t-245 103.5t-207 159.5t-159.5 207t-103.5 245t-37 272zM336 416q0 -16 10 -28.5t25 -12.5h221v164q0 70 57 96l88 41q25 25 40.5 61.5t15.5 77.5q0 74 -45.5 127t-108.5 53
q-66 0 -111 -53t-45 -127q0 -53 23.5 -95t60.5 -65l-209 -98q-23 -10 -22 -37v-104zM653 324q0 -16 8.5 -26.5t20.5 -10.5h696q12 0 20.5 10t8.5 27v215q0 25 -18 34l-297 140l24 16q47 29 72.5 81t25.5 112q0 45 -14 83.5t-38.5 68.5t-58.5 47.5t-73 17.5t-72.5 -17.5
t-58.5 -47.5t-39 -68.5t-14 -83.5q0 -61 26.5 -113.5t73.5 -81.5l25 -14l-299 -140q-18 -10 -19 -34v-215zM1268 815q0 -41 15 -77t40 -60l88 -43q57 -27 57 -96v-164h222q16 0 25 12t9 29v104q0 27 -20 37l-209 98q37 23 59.5 65t22.5 95q0 74 -45 127t-109 53
q-66 0 -110.5 -53t-44.5 -127z" />
    <glyph glyph-name="circumflex" unicode="&#x2c6;" 
d="M0 682q0 141 37 272t103.5 245t159.5 207t207 159.5t245 103.5t272 37q211 0 398.5 -81t325.5 -219t219 -325.5t81 -398.5q0 -141 -37 -272t-103.5 -245t-159.5 -207t-207 -159.5t-245 -103.5t-272 -37t-272 37t-245 103.5t-207 159.5t-159.5 207t-103.5 245t-37 272z
M526 799q0 -4 2 -6q2 -23 4.5 -44.5t6.5 -43.5q4 -29 28.5 -82.5t59.5 -117t75.5 -132t77.5 -127t64.5 -100.5t40.5 -54q16 -16 37.5 -34.5t42 -33t37 -22.5t22.5 -8t21.5 8t36 21.5t42 32t39.5 36.5q12 12 41 54t67 101.5t78 127t73.5 132t58 117t28.5 81.5q4 23 6.5 44
t4.5 44v6q0 4 1 6t1 6v2q0 102 -39 192.5t-106.5 158t-158 107.5t-192.5 40h-2h-2q-102 0 -192.5 -40t-158 -107.5t-106.5 -158t-39 -192.5v-2v-12zM821 817q0 84 58.5 142.5t142.5 58.5t142.5 -58.5t58.5 -142.5t-58.5 -142.5t-142.5 -58.5t-142.5 58.5t-58.5 142.5z" />
    <glyph glyph-name="tilde" unicode="&#x2dc;" horiz-adv-x="512" 
d="M-1024 1147q0 141 37 272t103.5 245t159.5 207t207 159.5t245 103.5t272 37q211 0 398.5 -81t325.5 -219t219 -325.5t81 -398.5q0 -141 -37 -272t-103.5 -245t-159.5 -207t-207 -159.5t-245 -103.5t-272 -37t-272 37t-245 103.5t-207 159.5t-159.5 207t-103.5 245
t-37 272zM-571 967q4 -23 20 -35t39 -10q4 2 6 2t6 2l154 65q10 4 15 15.5t1 21.5q-10 23 -30 19l-166 -21q-23 -4 -36 -20t-9 -39zM-526 1542.5q-4 -24.5 12 -45.5q4 -6 10 -10l154 -117q10 -10 24.5 -7t22.5 13q18 23 0 41l-117 154q-14 20 -38.5 23.5t-45.5 -13.5
q-18 -14 -22 -38.5zM-313 1170q0 -2 2 -5q0 -31 6 -57q10 -55 44 -108.5t64 -116.5q43 -88 64.5 -135t54.5 -54q2 0 15.5 -1t29 -1t28.5 1t17 1t17.5 -1t29 -1t28.5 1t17 1q31 6 52.5 53.5t64.5 135.5q33 63 65.5 116.5t43.5 108.5q4 14 5 27.5t3 29.5v13q0 68 -25.5 127
t-69.5 103t-103.5 69.5t-127.5 25.5t-127 -25.5t-103 -69.5t-69.5 -103.5t-25.5 -126.5v-8zM-121 502q0 -39 45 -39h88h90q18 0 31.5 11t13.5 28q0 16 -13 27.5t-32 11.5h-90h-88q-20 0 -32.5 -11.5t-12.5 -27.5zM-121 623q0 -16 12.5 -28.5t32.5 -12.5h88h90q18 0 31.5 12
t13.5 29q0 16 -13 27.5t-32 11.5h-90h-88q-20 0 -32.5 -11.5t-12.5 -27.5zM-45 1761l25 -190q4 -25 32 -29q29 4 33 29l27 190v17q-4 23 -20.5 36t-39.5 15q-23 -2 -39 -15.5t-18 -35.5q-4 -11 0 -17zM328 1376q10 -10 23.5 -13t23.5 7l153 117q6 4 11 10q16 20 13 45
t-24 39q-20 16 -43.5 13t-40.5 -23l-116 -154q-18 -18 0 -41zM358 1009.5q4 -12.5 17 -16.5l157 -65q8 -4 15 -4q23 -4 39 9t20 36t-9 40t-36 21l-170 23q-25 0 -33 -19q-4 -12 0 -24.5z" />
    <glyph glyph-name="endash" unicode="&#x2013;" horiz-adv-x="1024" 
d="M0 -342v2048h1024v-2048h-1024z" />
    <glyph glyph-name="emdash" unicode="&#x2014;" 
d="M0 -342v2048h2048v-2048h-2048z" />
    <glyph glyph-name="quoteleft" unicode="&#x2018;" 
d="M0 682q0 141 37 272t103.5 245t159.5 207t207 159.5t245 103.5t272 37q211 0 398.5 -81t325.5 -219t219 -325.5t81 -398.5q0 -141 -37 -272t-103.5 -245t-159.5 -207t-207 -159.5t-245 -103.5t-272 -37t-272 37t-245 103.5t-207 159.5t-159.5 207t-103.5 245t-37 272z
M453 502q4 -23 20 -35t39 -10q4 2 6 2t6 2l154 65q10 4 15 15.5t1 21.5q-10 23 -30 19l-166 -21q-23 -4 -36 -20t-9 -39zM498 1077.5q-4 -24.5 12 -45.5q4 -6 10 -10l154 -117q10 -10 24.5 -7t22.5 13q18 23 0 41l-117 154q-14 20 -38.5 23.5t-45.5 -13.5q-18 -14 -22 -38.5
zM711 705q0 -2 2 -5q0 -31 6 -57q10 -55 44 -108.5t64 -116.5q43 -88 64.5 -135t54.5 -54q2 0 15.5 -1t29 -1t28.5 1t17 1t17.5 -1t29 -1t28.5 1t17 1q31 6 52.5 53.5t64.5 135.5q33 63 65.5 116.5t43.5 108.5q4 14 5 27.5t3 29.5v13q0 68 -25.5 127t-69.5 103t-103.5 69.5
t-127.5 25.5t-127 -25.5t-103 -69.5t-69.5 -103.5t-25.5 -126.5v-8zM903 37q0 -39 45 -39h88h90q18 0 31.5 11t13.5 28q0 16 -13 27.5t-32 11.5h-90h-88q-20 0 -32.5 -11.5t-12.5 -27.5zM903 158q0 -16 12.5 -28.5t32.5 -12.5h88h90q18 0 31.5 12t13.5 29q0 16 -13 27.5
t-32 11.5h-90h-88q-20 0 -32.5 -11.5t-12.5 -27.5zM979 1296l25 -190q4 -25 32 -29q29 4 33 29l27 190v17q-4 23 -20.5 36t-39.5 15q-23 -2 -39 -15.5t-18 -35.5q-4 -11 0 -17zM1352 911q10 -10 23.5 -13t23.5 7l153 117q6 4 11 10q16 20 13 45t-24 39q-20 16 -43.5 13
t-40.5 -23l-116 -154q-18 -18 0 -41zM1382 544.5q4 -12.5 17 -16.5l157 -65q8 -4 15 -4q23 -4 39 9t20 36t-9 40t-36 21l-170 23q-25 0 -33 -19q-4 -12 0 -24.5z" />
    <glyph glyph-name="quoteright" unicode="&#x2019;" 
d="M942 119q35 -8 82 -8q20 0 39.5 2t38.5 6l33 -119q-111 -18 -226 0zM1090 162q-33 -4 -67 -5t-69 5l43 160q9 -3 27 -3q16 0 25 3zM1223 -326q-49 -10 -99.5 -13t-99.5 -3q-53 0 -103.5 3t-97.5 13l31 119q41 -8 84 -11t86 -3q41 0 83 3t83 11zM899 -45q31 -4 61.5 -7
t63.5 -3q31 0 60.5 3t62.5 7l31 -119q-154 -24 -312 0zM1024 1706q211 0 398.5 -81t325.5 -220t219 -325.5t81 -399.5q0 -170 -53 -325.5t-147.5 -282.5t-225.5 -222.5t-287 -144.5l-205 766q-53 -27 -106 -27q-57 0 -111 27l-204 -766q-154 49 -284 144.5t-224.5 222.5
t-147.5 282.5t-53 325.5q0 213 80 399.5t218 325.5t325.5 220t400.5 81zM477 281q-78 106 -109.5 235t-11.5 264q19 135 86.5 249t178.5 196q12 10 15 24.5t-7 24.5q-11 14 -25 16t-26 -8q-121 -88 -197 -214t-98 -275q-23 -152 12 -294.5t125 -262.5q12 -15 29 -15
q10 0 22 6q12 11 14 26t-8 28zM807 975q12 10 14 24.5t-8 26.5t-24.5 14t-26.5 -6q-72 -53 -117 -128t-57 -161q-15 -88 6.5 -172t73.5 -155q12 -17 30 -17q7 0 12 2.5t11 6.5q12 10 14 24.5t-8 28.5q-43 59 -60.5 129t-7.5 143q11 72 50 133.5t98 106.5zM1024 557
q49 0 85 35t36 88q0 51 -36 86t-85 35q-53 0 -89 -35t-36 -86q0 -53 36 -88t89 -35zM1384 428q52 76 69 162t2 169t-61 156.5t-120 124.5q-14 11 -28.5 7.5t-24.5 -13.5q-9 -14 -5.5 -28.5t15.5 -24.5q61 -43 100 -104.5t51.5 -131t-2 -141.5t-57.5 -133q-8 -12 -6 -27.5
t16 -23.5q13 -8 21 -8q20 0 30 16zM1640 256q89 125 117.5 270.5t3 286.5t-104.5 268t-206 215q-33 21 -53 -10q-11 -10 -7.5 -24.5t17.5 -24.5q115 -80 186.5 -193.5t94 -241.5t-3 -259t-105.5 -246q-10 -12 -7 -26.5t15 -24.5q12 -6 23 -6q20 0 30 16z" />
    <glyph glyph-name="quotedblleft" unicode="&#x201c;" 
d="M0 682q0 141 37 272t103.5 245t159.5 207t207 159.5t245 103.5t272 37q211 0 398.5 -81t325.5 -219t219 -325.5t81 -398.5q0 -141 -37 -272t-103.5 -245t-159.5 -207t-207 -159.5t-245 -103.5t-272 -37t-272 37t-245 103.5t-207 159.5t-159.5 207t-103.5 245t-37 272z
M461 611.5q0 -25.5 16 -42.5q18 -18 44 -18t42 18l522 523q57 57 104.5 76.5t86.5 15.5t69.5 -24.5t53.5 -43.5q88 -88 61 -180q-14 -59 -86 -133l-52 -52l-101 -102q-59 -59 -128 -126.5t-129 -128.5l-104 -103l-53 -53q-51 -51 -92 -58q-8 0 -29.5 3t-54.5 34
q-49 49 -43 96q2 27 17.5 48.5t31.5 37.5l477 478q25 25 42.5 36t27.5 14t15 0t7 -5q2 -4 5 -9.5t0 -15.5t-14 -26.5t-36 -41.5l-438 -438l84 -86l440 438q47 47 67.5 87t21.5 73t-12 58.5t-32 44.5q-16 14 -39.5 28.5t-57.5 15.5t-76 -18.5t-91 -68.5l-477 -478
q-74 -74 -84 -159q-4 -35 9 -86.5t71 -108.5q41 -43 82 -57.5t76 -14.5q18 0 26 2q84 12 162 91l53 53l104 103l128 128l127 127q59 59 102 101.5t53 52.5q92 96 117 188q8 27 10 60.5t-6 71.5t-30.5 79t-65.5 84q-111 111 -237 104.5t-249 -126.5l-522 -525
q-16 -16 -16 -41.5z" />
    <glyph glyph-name="quotedblright" unicode="&#x201d;" 
d="M0 682q0 141 37 272t103.5 245t159.5 207t207 159.5t245 103.5t272 37q211 0 398.5 -81t325.5 -219t219 -325.5t81 -398.5q0 -141 -37 -272t-103.5 -245t-159.5 -207t-207 -159.5t-245 -103.5t-272 -37t-272 37t-245 103.5t-207 159.5t-159.5 207t-103.5 245t-37 272z
M461 611.5q0 -25.5 16 -42.5q18 -18 44 -18t42 18l522 523q57 57 104.5 76.5t86.5 15.5t69.5 -24.5t53.5 -43.5q88 -88 61 -180q-14 -59 -86 -133l-52 -52l-101 -102q-59 -59 -128 -126.5t-129 -128.5l-104 -103l-53 -53q-51 -51 -92 -58q-8 0 -29.5 3t-54.5 34
q-49 49 -43 96q2 27 17.5 48.5t31.5 37.5l477 478q25 25 42.5 36t27.5 14t15 0t7 -5q2 -4 5 -9.5t0 -15.5t-14 -26.5t-36 -41.5l-438 -438l84 -86l440 438q47 47 67.5 87t21.5 73t-12 58.5t-32 44.5q-16 14 -39.5 28.5t-57.5 15.5t-76 -18.5t-91 -68.5l-477 -478
q-74 -74 -84 -159q-4 -35 9 -86.5t71 -108.5q41 -43 82 -57.5t76 -14.5q18 0 26 2q84 12 162 91l53 53l104 103l128 128l127 127q59 59 102 101.5t53 52.5q92 96 117 188q8 27 10 60.5t-6 71.5t-30.5 79t-65.5 84q-111 111 -237 104.5t-249 -126.5l-522 -525
q-16 -16 -16 -41.5z" />
    <glyph glyph-name="ellipsis" unicode="&#x2026;" horiz-adv-x="6144" 
d="M4096 682q0 141 37 272t103.5 245t159.5 207t207 159.5t245 103.5t272 37q211 0 398.5 -81t325.5 -219t219 -325.5t81 -398.5q0 -141 -37 -272t-103.5 -245t-159.5 -207t-207 -159.5t-245 -103.5t-272 -37t-272 37t-245 103.5t-207 159.5t-159.5 207t-103.5 245t-37 272z
M4573 231q0 -29 19.5 -47t48.5 -18h950q29 0 48.5 18.5t19.5 46.5v902q0 29 -19.5 47t-48.5 18h-950q-29 0 -48.5 -18.5t-19.5 -46.5v-902zM4706 502v563h820v-563h-820zM2048 682q0 141 37 272t103.5 245t159.5 207t207 159.5t245 103.5t272 37q211 0 398.5 -81t325.5 -219
t219 -325.5t81 -398.5q0 -141 -37 -272t-103.5 -245t-159.5 -207t-207 -159.5t-245 -103.5t-272 -37t-272 37t-245 103.5t-207 159.5t-159.5 207t-103.5 245t-37 272zM2525 231q0 -29 19.5 -47t48.5 -18h950q29 0 48.5 18.5t19.5 46.5v902q0 29 -19.5 47t-48.5 18h-950
q-29 0 -48.5 -18.5t-19.5 -46.5v-902zM2658 502v563h820v-563h-820zM0 682q0 141 37 272t103.5 245t159.5 207t207 159.5t245 103.5t272 37q211 0 398.5 -81t325.5 -219t219 -325.5t81 -398.5q0 -141 -37 -272t-103.5 -245t-159.5 -207t-207 -159.5t-245 -103.5t-272 -37
t-272 37t-245 103.5t-207 159.5t-159.5 207t-103.5 245t-37 272zM477 231q0 -29 19.5 -47t48.5 -18h950q29 0 48.5 18.5t19.5 46.5v902q0 29 -19.5 47t-48.5 18h-950q-29 0 -48.5 -18.5t-19.5 -46.5v-902zM610 502v563h820v-563h-820z" />
    <glyph glyph-name="guilsinglleft" unicode="&#x2039;" 
d="M0 682q0 141 37 272t103.5 245t159.5 207t207 159.5t245 103.5t272 37q211 0 398.5 -81t325.5 -219t219 -325.5t81 -398.5q0 -141 -37 -272t-103.5 -245t-159.5 -207t-207 -159.5t-245 -103.5t-272 -37t-272 37t-245 103.5t-207 159.5t-159.5 207t-103.5 245t-37 272z
M410 291q0 -31 22.5 -52.5t52.5 -21.5h1069q33 0 54.5 21.5t21.5 52.5v774q0 31 -21.5 53.5t-54.5 22.5h-1069q-31 0 -53 -22.5t-22 -53.5v-774zM559 367v622h922v-622h-922zM883 465l180 104l180 105l-180 104l-180 105v-209v-209z" />
    <glyph glyph-name="guilsinglright" unicode="&#x203a;" 
d="M0 682q0 141 37 272t103.5 245t159.5 207t207 159.5t245 103.5t272 37q211 0 398.5 -81t325.5 -219t219 -325.5t81 -398.5q0 -141 -37 -272t-103.5 -245t-159.5 -207t-207 -159.5t-245 -103.5t-272 -37t-272 37t-245 103.5t-207 159.5t-159.5 207t-103.5 245t-37 272z
M477 231q0 -29 19.5 -47t48.5 -18h950q29 0 48.5 18.5t19.5 46.5v902q0 29 -19.5 47t-48.5 18h-950q-29 0 -48.5 -18.5t-19.5 -46.5v-902zM610 502v563h820v-563h-820z" />
    <glyph glyph-name="trademark" unicode="&#x2122;" horiz-adv-x="4096" 
d="M2048 682q0 141 37 272t103.5 245t159.5 207t207 159.5t245 103.5t272 37q211 0 398.5 -81t325.5 -219t219 -325.5t81 -398.5q0 -141 -37 -272t-103.5 -245t-159.5 -207t-207 -159.5t-245 -103.5t-272 -37t-272 37t-245 103.5t-207 159.5t-159.5 207t-103.5 245t-37 272z
M2585 276q0 -16 10 -26t24 -10h271q16 0 26.5 10t10.5 26v404h311v-404q0 -16 10 -26t27 -10h270q16 0 26.5 10t10.5 26v658q0 18 -14 29l-471 364q-10 8 -21.5 8t-23.5 -8l-455 -364q-12 -10 -12 -29v-658zM0 682q0 141 37 272t103.5 245t159.5 207t207 159.5t245 103.5
t272 37q211 0 398.5 -81t325.5 -219t219 -325.5t81 -398.5q0 -141 -37 -272t-103.5 -245t-159.5 -207t-207 -159.5t-245 -103.5t-272 -37t-272 37t-245 103.5t-207 159.5t-159.5 207t-103.5 245t-37 272zM360 489q0 -27 18.5 -45t45.5 -18h1216q27 0 45.5 18.5t18.5 44.5
v385q0 27 -18.5 45.5t-45.5 18.5h-1216q-27 0 -45.5 -18.5t-18.5 -45.5v-385z" />
    <glyph glyph-name="uniE000" unicode="&#xe000;" horiz-adv-x="1706" 
d="M0 1706h1706v-1706h-1706v1706z" />
    <glyph glyph-name="uniFB01" unicode="&#xfb01;" horiz-adv-x="4096" 
d="M2048 682q0 141 37 272t103.5 245t159.5 207t207 159.5t245 103.5t272 37q211 0 398.5 -81t325.5 -219t219 -325.5t81 -398.5q0 -141 -37 -272t-103.5 -245t-159.5 -207t-207 -159.5t-245 -103.5t-272 -37t-272 37t-245 103.5t-207 159.5t-159.5 207t-103.5 245t-37 272z
M2638 172q0 -16 16 -16h836q16 0 16 16v600q0 16 -16 16h-836q-16 0 -16 -16v-600zM2638 883q0 -18 16 -19h836q16 0 16 19v176q0 16 -16 16h-82v35q0 47 -27.5 72.5t-75.5 25.5q-49 0 -76.5 -25.5t-27.5 -72.5v-35h-25v35q0 47 -27.5 72.5t-76.5 25.5q-47 0 -74.5 -25.5
t-27.5 -72.5v-35h-25v35q0 47 -28.5 72.5t-75.5 25.5t-76 -25.5t-29 -72.5v-35h-82q-16 0 -16 -16v-176zM2800 971v139q0 35 41 35t41 -35v-139q0 -35 -41 -35t-41 35zM2818 305l8 60q0 2 4 6q2 2 6 0q37 -14 80 -15q23 0 37.5 9.5t14.5 25.5q0 18 -14.5 28.5t-65.5 14.5
q-8 0 -9 8v60q0 8 9 8q43 4 53 14.5t10 20.5q0 6 -5 14t-34 8t-65 -16h-6q-6 2 -7 6l-8 59q0 8 6 9q39 18 99 18q53 0 84.5 -22.5t31.5 -57.5q0 -55 -57 -82q27 -10 47.5 -29.5t20.5 -56.5q0 -53 -41 -83.5t-109 -30.5q-47 0 -86 16q-6 6 -4 8zM3033 971v139q0 35 39 35
q41 0 41 -35v-139q0 -35 -41 -35q-39 0 -39 35zM3117 578q0 6 6 10l103 49q0 2 2 2h37q8 0 8 -10v-334q0 -8 -8 -8h-72q-8 0 -8 8v235l-47 -18h-9q-4 4 -4 8zM3265 971v139q0 35 40 35q39 0 39 -35v-139q0 -35 -39 -35q-40 0 -40 35zM0 682q0 141 37 272t103.5 245
t159.5 207t207 159.5t245 103.5t272 37q211 0 398.5 -81t325.5 -219t219 -325.5t81 -398.5q0 -141 -37 -272t-103.5 -245t-159.5 -207t-207 -159.5t-245 -103.5t-272 -37t-272 37t-245 103.5t-207 159.5t-159.5 207t-103.5 245t-37 272zM387 504q0 -12 8 -21l383 -383
q10 -10 23 -10h2q14 0 20 10l830 828q10 10 10 22.5t-10 20.5l-164 166q-8 8 -23 8q-14 0 -22 -8l-643 -643l-197 198q-23 18 -45 0l-164 -166q-8 -8 -8 -22z" />
    <glyph glyph-name="uniFB02" unicode="&#xfb02;" horiz-adv-x="4096" 
d="M2048 682q0 141 37 272t103.5 245t159.5 207t207 159.5t245 103.5t272 37q211 0 398.5 -81t325.5 -219t219 -325.5t81 -398.5q0 -141 -37 -272t-103.5 -245t-159.5 -207t-207 -159.5t-245 -103.5t-272 -37t-272 37t-245 103.5t-207 159.5t-159.5 207t-103.5 245t-37 272z
M2306 799q20 -29 46 -51.5t51.5 -39t49 -28.5t37.5 -18q35 -16 78 -26.5t82 -29.5l10 -10q6 -6 15 -12q4 -4 10 -9.5t12 -11.5q4 -4 7 -5t8 -5q0 -10 -4.5 -30.5t-2.5 -61.5q2 -47 20.5 -81t37.5 -63l12 -18q10 -16 16.5 -28.5t1.5 -26.5q-2 -12 -6 -46t-9 -76t-11 -87
t-8 -80q18 -8 31.5 -16.5t28.5 -15.5t36.5 -13t58.5 -8q8 14 17 37q8 16 19 41.5t28 56.5q0 31 9 53.5t19 36.5q12 16 29 29q41 29 73 61.5t38 50.5t11 60.5t5 83.5q0 20 -16.5 36.5t-42 33t-56 38t-61.5 53.5q-31 33 -63.5 46.5t-66.5 15.5t-63.5 -2t-54.5 -4q-4 0 -6 1
t-6 1q-8 12 -16 14q-6 2 -11 6l-2 2v2q0 4 6 11q6 8 2 18q-8 8 -16 8q-10 0 -20 -2q-2 10 -7 21q-4 10 -7 23.5t-5 31.5q29 -25 50.5 -36t35.5 -15q16 -6 27 -4q23 6 25 38q1 11 1 24q0 27 -4 65q6 8 8 16q8 35 21.5 46t13.5 13q6 0 6 5q8 6 35 10q10 2 19.5 4t19.5 6
q16 8 8 23q-2 0 -2 1t-2 1q8 4 15.5 9t11.5 9q10 10 18 20t15.5 21.5t13.5 21.5q-10 16 -24.5 29.5t-24.5 22.5q-14 8 -27 14q-14 20 -39 12q-12 0 -20 6q-4 2 -8 7q-18 12 -25 14q-10 4 -27 8q-29 18 -54 43t-40 53q-10 23 -38.5 30t-61.5 3q-115 -88 -191.5 -212.5
t-99.5 -274.5zM2826 1407q55 -29 126 -52.5t140 -23.5q10 0 20.5 1t20.5 3q16 2 32 10.5t32 18.5q10 6 20.5 11t20.5 9q27 10 55.5 7.5t59.5 -9.5q16 -4 26 -6q-72 33 -150.5 50.5t-164.5 17.5q-125 0 -238 -37zM3162 623q10 -53 42 -82t75 -29h4q4 0 8 1t10 1q45 0 62.5 -5
t19.5 -7q-10 -27 -8 -42.5t10 -31.5l6 -12q10 -23 9.5 -45.5t-4.5 -46.5q0 -14 -2 -23q-2 -29 8 -55l20 -53q4 -10 8 -18.5t9 -18.5q0 -2 1 -3t1 -6q6 -16 15 -35.5t28 -23.5q4 -1 8 -1q38 0 88 52q41 47 49 103q2 20 16 45q12 25 19 51q4 12 0 27q27 47 26 79q0 20 3 31
l7 7l7 7q16 12 29 29q4 12 6 23q2 10 3 20t-3 21q-2 4 -11 8l-34 12q8 18 20 26.5t23 12.5q12 4 26 0l66 21v14q0 180 -74 331.5t-201 258.5q-35 -4 -73.5 -9.5t-75.5 -16.5t-66.5 -26.5t-44.5 -39.5q-25 -39 -34 -66t-12 -46.5t-3 -31.5t-6 -24t-15.5 -19.5t-15.5 -15.5
t-6 -22.5t12 -39.5q10 -18 11 -37q14 0 28 2q12 2 25.5 5.5t23.5 13.5l144 -12q16 20 39 28q10 4 22 6q10 -2 25 -10q12 -8 27.5 -24.5t35.5 -51.5l-59 -41q-20 6 -49 25q-14 8 -31 21q-16 8 -46 9t-61.5 -2t-64.5 -8.5t-55 -7.5q-2 -8 -8 -16q-4 -6 -11.5 -12t-17.5 -9
q-2 -6 -2 -20q0 -6 -2 -12q-32 -46 -32 -100q0 -16 3 -33zM0 682q0 141 37 272t103.5 245t159.5 207t207 159.5t245 103.5t272 37q211 0 398.5 -81t325.5 -219t219 -325.5t81 -398.5q0 -141 -37 -272t-103.5 -245t-159.5 -207t-207 -159.5t-245 -103.5t-272 -37t-272 37
t-245 103.5t-207 159.5t-159.5 207t-103.5 245t-37 272zM387 504q0 -12 8 -21l383 -383q10 -10 23 -10h2q14 0 20 10l830 828q10 10 10 22.5t-10 20.5l-164 166q-8 8 -23 8q-14 0 -22 -8l-643 -643l-197 198q-23 18 -45 0l-164 -166q-8 -8 -8 -22z" />
    <glyph glyph-name="uniFB03" unicode="&#xfb03;" horiz-adv-x="6144" 
d="M4096 682q0 141 37 272t103.5 245t159.5 207t207 159.5t245 103.5t272 37q211 0 398.5 -81t325.5 -219t219 -325.5t81 -398.5q0 -141 -37 -272t-103.5 -245t-159.5 -207t-207 -159.5t-245 -103.5t-272 -37t-272 37t-245 103.5t-207 159.5t-159.5 207t-103.5 245t-37 272z
M4686 172q0 -16 16 -16h836q16 0 16 16v600q0 16 -16 16h-836q-16 0 -16 -16v-600zM4686 883q0 -18 16 -19h836q16 0 16 19v176q0 16 -16 16h-82v35q0 47 -27.5 72.5t-75.5 25.5q-49 0 -76.5 -25.5t-27.5 -72.5v-35h-25v35q0 47 -27.5 72.5t-76.5 25.5q-47 0 -74.5 -25.5
t-27.5 -72.5v-35h-25v35q0 47 -28.5 72.5t-75.5 25.5t-76 -25.5t-29 -72.5v-35h-82q-16 0 -16 -16v-176zM4848 971v139q0 35 41 35t41 -35v-139q0 -35 -41 -35t-41 35zM4866 305l8 60q0 2 4 6q2 2 6 0q37 -14 80 -15q23 0 37.5 9.5t14.5 25.5q0 18 -14.5 28.5t-65.5 14.5
q-8 0 -9 8v60q0 8 9 8q43 4 53 14.5t10 20.5q0 6 -5 14t-34 8t-65 -16h-6q-6 2 -7 6l-8 59q0 8 6 9q39 18 99 18q53 0 84.5 -22.5t31.5 -57.5q0 -55 -57 -82q27 -10 47.5 -29.5t20.5 -56.5q0 -53 -41 -83.5t-109 -30.5q-47 0 -86 16q-6 6 -4 8zM5081 971v139q0 35 39 35
q41 0 41 -35v-139q0 -35 -41 -35q-39 0 -39 35zM5165 578q0 6 6 10l103 49q0 2 2 2h37q8 0 8 -10v-334q0 -8 -8 -8h-72q-8 0 -8 8v235l-47 -18h-9q-4 4 -4 8zM5313 971v139q0 35 40 35q39 0 39 -35v-139q0 -35 -39 -35q-40 0 -40 35zM2048 682q0 141 37 272t103.5 245
t159.5 207t207 159.5t245 103.5t272 37q211 0 398.5 -81t325.5 -219t219 -325.5t81 -398.5q0 -141 -37 -272t-103.5 -245t-159.5 -207t-207 -159.5t-245 -103.5t-272 -37t-272 37t-245 103.5t-207 159.5t-159.5 207t-103.5 245t-37 272zM2435 504q0 -12 8 -21l383 -383
q10 -10 23 -10h2q14 0 20 10l830 828q10 10 10 22.5t-10 20.5l-164 166q-8 8 -23 8q-14 0 -22 -8l-643 -643l-197 198q-23 18 -45 0l-164 -166q-8 -8 -8 -22zM0 682q0 141 37 272t103.5 245t159.5 207t207 159.5t245 103.5t272 37q211 0 398.5 -81t325.5 -219t219 -325.5
t81 -398.5q0 -141 -37 -272t-103.5 -245t-159.5 -207t-207 -159.5t-245 -103.5t-272 -37t-272 37t-245 103.5t-207 159.5t-159.5 207t-103.5 245t-37 272zM387 504q0 -12 8 -21l383 -383q10 -10 23 -10h2q14 0 20 10l830 828q10 10 10 22.5t-10 20.5l-164 166q-8 8 -23 8
q-14 0 -22 -8l-643 -643l-197 198q-23 18 -45 0l-164 -166q-8 -8 -8 -22z" />
    <glyph glyph-name="uniFB04" unicode="&#xfb04;" horiz-adv-x="6144" 
d="M4096 682q0 141 37 272t103.5 245t159.5 207t207 159.5t245 103.5t272 37q211 0 398.5 -81t325.5 -219t219 -325.5t81 -398.5q0 -141 -37 -272t-103.5 -245t-159.5 -207t-207 -159.5t-245 -103.5t-272 -37t-272 37t-245 103.5t-207 159.5t-159.5 207t-103.5 245t-37 272z
M4354 799q20 -29 46 -51.5t51.5 -39t49 -28.5t37.5 -18q35 -16 78 -26.5t82 -29.5l10 -10q6 -6 15 -12q4 -4 10 -9.5t12 -11.5q4 -4 7 -5t8 -5q0 -10 -4.5 -30.5t-2.5 -61.5q2 -47 20.5 -81t37.5 -63l12 -18q10 -16 16.5 -28.5t1.5 -26.5q-2 -12 -6 -46t-9 -76t-11 -87
t-8 -80q18 -8 31.5 -16.5t28.5 -15.5t36.5 -13t58.5 -8q8 14 17 37q8 16 19 41.5t28 56.5q0 31 9 53.5t19 36.5q12 16 29 29q41 29 73 61.5t38 50.5t11 60.5t5 83.5q0 20 -16.5 36.5t-42 33t-56 38t-61.5 53.5q-31 33 -63.5 46.5t-66.5 15.5t-63.5 -2t-54.5 -4q-4 0 -6 1
t-6 1q-8 12 -16 14q-6 2 -11 6l-2 2v2q0 4 6 11q6 8 2 18q-8 8 -16 8q-10 0 -20 -2q-2 10 -7 21q-4 10 -7 23.5t-5 31.5q29 -25 50.5 -36t35.5 -15q16 -6 27 -4q23 6 25 38q1 11 1 24q0 27 -4 65q6 8 8 16q8 35 21.5 46t13.5 13q6 0 6 5q8 6 35 10q10 2 19.5 4t19.5 6
q16 8 8 23q-2 0 -2 1t-2 1q8 4 15.5 9t11.5 9q10 10 18 20t15.5 21.5t13.5 21.5q-10 16 -24.5 29.5t-24.5 22.5q-14 8 -27 14q-14 20 -39 12q-12 0 -20 6q-4 2 -8 7q-18 12 -25 14q-10 4 -27 8q-29 18 -54 43t-40 53q-10 23 -38.5 30t-61.5 3q-115 -88 -191.5 -212.5
t-99.5 -274.5zM4874 1407q55 -29 126 -52.5t140 -23.5q10 0 20.5 1t20.5 3q16 2 32 10.5t32 18.5q10 6 20.5 11t20.5 9q27 10 55.5 7.5t59.5 -9.5q16 -4 26 -6q-72 33 -150.5 50.5t-164.5 17.5q-125 0 -238 -37zM5210 623q10 -53 42 -82t75 -29h4q4 0 8 1t10 1q45 0 62.5 -5
t19.5 -7q-10 -27 -8 -42.5t10 -31.5l6 -12q10 -23 9.5 -45.5t-4.5 -46.5q0 -14 -2 -23q-2 -29 8 -55l20 -53q4 -10 8 -18.5t9 -18.5q0 -2 1 -3t1 -6q6 -16 15 -35.5t28 -23.5q4 -1 8 -1q38 0 88 52q41 47 49 103q2 20 16 45q12 25 19 51q4 12 0 27q27 47 26 79q0 20 3 31
l7 7l7 7q16 12 29 29q4 12 6 23q2 10 3 20t-3 21q-2 4 -11 8l-34 12q8 18 20 26.5t23 12.5q12 4 26 0l66 21v14q0 180 -74 331.5t-201 258.5q-35 -4 -73.5 -9.5t-75.5 -16.5t-66.5 -26.5t-44.5 -39.5q-25 -39 -34 -66t-12 -46.5t-3 -31.5t-6 -24t-15.5 -19.5t-15.5 -15.5
t-6 -22.5t12 -39.5q10 -18 11 -37q14 0 28 2q12 2 25.5 5.5t23.5 13.5l144 -12q16 20 39 28q10 4 22 6q10 -2 25 -10q12 -8 27.5 -24.5t35.5 -51.5l-59 -41q-20 6 -49 25q-14 8 -31 21q-16 8 -46 9t-61.5 -2t-64.5 -8.5t-55 -7.5q-2 -8 -8 -16q-4 -6 -11.5 -12t-17.5 -9
q-2 -6 -2 -20q0 -6 -2 -12q-32 -46 -32 -100q0 -16 3 -33zM2048 682q0 141 37 272t103.5 245t159.5 207t207 159.5t245 103.5t272 37q211 0 398.5 -81t325.5 -219t219 -325.5t81 -398.5q0 -141 -37 -272t-103.5 -245t-159.5 -207t-207 -159.5t-245 -103.5t-272 -37t-272 37
t-245 103.5t-207 159.5t-159.5 207t-103.5 245t-37 272zM2435 504q0 -12 8 -21l383 -383q10 -10 23 -10h2q14 0 20 10l830 828q10 10 10 22.5t-10 20.5l-164 166q-8 8 -23 8q-14 0 -22 -8l-643 -643l-197 198q-23 18 -45 0l-164 -166q-8 -8 -8 -22zM0 682q0 141 37 272
t103.5 245t159.5 207t207 159.5t245 103.5t272 37q211 0 398.5 -81t325.5 -219t219 -325.5t81 -398.5q0 -141 -37 -272t-103.5 -245t-159.5 -207t-207 -159.5t-245 -103.5t-272 -37t-272 37t-245 103.5t-207 159.5t-159.5 207t-103.5 245t-37 272zM387 504q0 -12 8 -21
l383 -383q10 -10 23 -10h2q14 0 20 10l830 828q10 10 10 22.5t-10 20.5l-164 166q-8 8 -23 8q-14 0 -22 -8l-643 -643l-197 198q-23 18 -45 0l-164 -166q-8 -8 -8 -22z" />
  </font>
</defs>
</svg>
