<?xml version="1.0" encoding="utf-8"?>
<!-- Generator: Adobe Illustrator 17.0.2, SVG Export Plug-In . SVG Version: 6.00 Build 0)  -->
<!DOCTYPE svg PUBLIC "-//W3C//DTD SVG 1.1//EN" "http://www.w3.org/Graphics/SVG/1.1/DTD/svg11.dtd">
<svg version="1.1" id="Layer_1" xmlns="http://www.w3.org/2000/svg" xmlns:xlink="http://www.w3.org/1999/xlink" x="0px" y="0px"
	 width="400px" height="400px" viewBox="0 0 400 400" enable-background="new 0 0 400 400" xml:space="preserve">
<g>
	<path fill="#4FB3E0" d="M-0.001,0v309.683L199.995,400l200.007-90.317V0H-0.001z M167.085,98.824
		c1.18,14.596-15.122,36.303-35.953,33.793C132.628,110.052,153.605,97.19,167.085,98.824z M190.084,250.239h-26.06v-12.383
		c0-4.264,0.416-7.68,0.416-7.68h-0.416c-5.344,11.313-19.227,22.646-37.814,22.646c-23.287,0-37.822-11.749-37.822-41.46v-70.058
		h27.135v64.523c0,13.225,3.421,22.202,16.871,22.202c19.659,0,30.556-17.297,30.556-36.737v-49.988h27.135v108.935H190.084z
		 M255.239,250.678c0,0-4.07,0.648-8.548,0.648c-14.959,0-33.543-3.855-33.543-35.049V98.568h26.928v113.657
		c0,11.964,4.059,14.946,11.093,14.946c2.15,0,4.07-0.207,4.07-0.207V250.678z M311.633,250.678c0,0-4.049,0.648-8.538,0.648
		c-14.946,0-33.543-3.855-33.543-35.049V98.568h26.915v113.657c0,11.964,4.062,14.946,11.116,14.946
		c2.127,0,4.049-0.207,4.049-0.207L311.633,250.678L311.633,250.678z"/>
</g>
</svg>
