<?xml version="1.0" encoding="utf-8"?>
<!-- Generator: Adobe Illustrator 18.0.0, SVG Export Plug-In . SVG Version: 6.00 Build 0)  -->
<!DOCTYPE svg PUBLIC "-//W3C//DTD SVG 1.1//EN" "http://www.w3.org/Graphics/SVG/1.1/DTD/svg11.dtd">
<svg version="1.1" id="Layer_1" xmlns="http://www.w3.org/2000/svg" xmlns:xlink="http://www.w3.org/1999/xlink" x="0px" y="0px"
   viewBox="0 0 140 140" enable-background="new 0 0 140 140" xml:space="preserve">
<g>
  <path fill="#FFFFFF" d="M0,0v108.4L70,140l70-31.6V0H0z M58.5,34.6c0.4,5.1-5.3,12.7-12.6,11.8C46.4,38.5,53.8,34,58.5,34.6z
     M66.5,87.6h-9.1v-4.3c0-1.5,0.1-2.7,0.1-2.7h-0.1c-1.9,4-6.7,7.9-13.2,7.9c-8.2,0-13.2-4.1-13.2-14.5V49.5h9.5V72
    c0,4.6,1.2,7.8,5.9,7.8C53.2,79.8,57,73.8,57,67V49.5h9.5V87.6z M89.3,87.7c0,0-1.4,0.2-3,0.2c-5.2,0-11.7-1.3-11.7-12.3V34.5H84
    v39.8c0,4.2,1.4,5.2,3.9,5.2c0.8,0,1.4-0.1,1.4-0.1V87.7z M109.1,87.7c0,0-1.4,0.2-3,0.2c-5.2,0-11.7-1.3-11.7-12.3V34.5h9.4v39.8
    c0,4.2,1.4,5.2,3.9,5.2c0.7,0,1.4-0.1,1.4-0.1V87.7z"/>
</g>
</svg>
